<?xml version="1.0" encoding="utf-8"?>
<!-- Generator: Adobe Illustrator 16.0.4, SVG Export Plug-In . SVG Version: 6.00 Build 0)  -->
<!DOCTYPE svg PUBLIC "-//W3C//DTD SVG 1.1//EN" "http://www.w3.org/Graphics/SVG/1.1/DTD/svg11.dtd">
<svg version="1.1" id="Layer_1" xmlns="http://www.w3.org/2000/svg" xmlns:xlink="http://www.w3.org/1999/xlink" x="0px" y="0px" width="24px" height="24px" viewBox="0 0 24 24" enable-background="new 0 0 24 24" xml:space="preserve">
<g>
	<g>
		<path d="M23.5,22h-23C0.224,22,0,21.776,0,21.5v-19C0,2.224,0.224,2,0.5,2h23C23.776,2,24,2.224,24,2.5v19
			C24,21.776,23.776,22,23.5,22z M1,21h22V3H1V21z"/>
		<path d="M23.474,8.001H0.548c-0.276,0-0.5-0.224-0.5-0.5s0.224-0.5,0.5-0.5h22.926c0.276,0,0.5,0.224,0.5,0.5
			S23.75,8.001,23.474,8.001z"/>
		<path d="M3.488,8.001c-0.138,0-0.274-0.057-0.374-0.167C2.931,7.627,2.95,7.312,3.156,7.127l5.553-4.946
			C8.914,1.998,9.23,2.015,9.415,2.222C9.599,2.428,9.58,2.744,9.374,2.928L3.821,7.875C3.726,7.959,3.607,8.001,3.488,8.001z"/>
		<path d="M0.548,6.952c-0.141,0-0.282-0.06-0.38-0.176c-0.179-0.21-0.154-0.526,0.056-0.705l4.573-3.897
			c0.21-0.18,0.525-0.155,0.705,0.056c0.179,0.21,0.154,0.526-0.056,0.705L0.872,6.832C0.778,6.913,0.663,6.952,0.548,6.952z"/>
		<path d="M7.408,8.001c-0.138,0-0.274-0.057-0.374-0.167C6.851,7.627,6.87,7.311,7.076,7.127l5.553-4.946
			c0.207-0.185,0.522-0.165,0.706,0.041s0.166,0.522-0.04,0.706L7.741,7.875C7.646,7.959,7.527,8.001,7.408,8.001z"/>
		<path d="M11.329,8.001c-0.138,0-0.274-0.057-0.374-0.167c-0.184-0.206-0.165-0.522,0.041-0.706l5.553-4.946
			c0.206-0.184,0.523-0.165,0.706,0.041c0.184,0.206,0.166,0.522-0.04,0.706l-5.554,4.946C11.566,7.959,11.447,8.001,11.329,8.001z"/>
		<path d="M15.249,8.001c-0.138,0-0.274-0.057-0.373-0.167c-0.184-0.206-0.166-0.522,0.04-0.706l5.553-4.946
			c0.207-0.184,0.522-0.165,0.706,0.041s0.166,0.522-0.04,0.706l-5.553,4.946C15.486,7.959,15.367,8.001,15.249,8.001z"/>
		<path d="M19.169,8.001c-0.145,0-0.287-0.062-0.387-0.183c-0.175-0.213-0.144-0.528,0.069-0.704l4.305-3.536
			c0.213-0.175,0.527-0.144,0.704,0.069c0.175,0.213,0.144,0.528-0.069,0.704l-4.305,3.536C19.394,7.964,19.281,8.001,19.169,8.001z
			"/>
	</g>
	<path d="M15.45,18.988H8.523c-0.521,0-0.99-0.27-1.252-0.722c-0.263-0.451-0.266-0.991-0.008-1.444l3.463-6.102
		c0.261-0.46,0.732-0.734,1.261-0.734c0.529,0,1,0.274,1.26,0.734l3.464,6.102c0.258,0.454,0.254,0.994-0.009,1.445
		S15.972,18.988,15.45,18.988z M11.987,10.986c-0.079,0-0.275,0.022-0.391,0.228l-3.464,6.103c-0.115,0.202-0.036,0.38,0.003,0.447
		c0.04,0.067,0.156,0.225,0.388,0.225h6.927c0.232,0,0.349-0.156,0.388-0.224s0.118-0.246,0.004-0.448l-3.464-6.103
		C12.261,11.008,12.065,10.986,11.987,10.986z"/>
	<path d="M11.987,15.954c-0.276,0-0.5-0.224-0.5-0.5v-2.603c0-0.276,0.224-0.5,0.5-0.5c0.276,0,0.5,0.224,0.5,0.5v2.603
		C12.486,15.73,12.263,15.954,11.987,15.954z"/>
	<path d="M11.99,17.38c-0.13,0-0.26-0.061-0.35-0.15c-0.1-0.09-0.15-0.22-0.15-0.35c0-0.14,0.05-0.271,0.14-0.36
		c0.19-0.18,0.52-0.18,0.71,0c0.09,0.101,0.15,0.221,0.15,0.36c0,0.13-0.061,0.26-0.15,0.35C12.24,17.319,12.12,17.38,11.99,17.38z"/>
</g>
</svg>
