<?xml version="1.0" encoding="utf-8"?>
<!-- Generator: Adobe Illustrator 16.0.4, SVG Export Plug-In . SVG Version: 6.00 Build 0)  -->
<!DOCTYPE svg PUBLIC "-//W3C//DTD SVG 1.1//EN" "http://www.w3.org/Graphics/SVG/1.1/DTD/svg11.dtd">
<svg version="1.1" id="Layer_1" xmlns="http://www.w3.org/2000/svg" xmlns:xlink="http://www.w3.org/1999/xlink" x="0px" y="0px" width="12px" height="6.6px" viewBox="0 0 12 6.6" enable-background="new 0 0 12 6.6" xml:space="preserve">
<path d="M0,3.299C0,1.475,1.477,0,3.3,0h6.3C10.927,0,12,1.074,12,2.399s-1.073,2.399-2.4,2.399H4.5
	c-0.828,0-1.5-0.672-1.5-1.5s0.672-1.5,1.5-1.5H9V3H4.446c-0.329,0-0.329,0.6,0,0.6H9.6c0.66,0,1.2-0.54,1.2-1.2
	c0-0.659-0.54-1.2-1.2-1.2H3.3c-1.157,0-2.101,0.942-2.101,2.1c0,1.158,0.943,2.101,2.101,2.101H9v1.2H3.3
	C1.477,6.6,0,5.124,0,3.299z"/>
</svg>
