<?xml version="1.0" encoding="utf-8"?>
<!-- Generator: Adobe Illustrator 16.0.4, SVG Export Plug-In . SVG Version: 6.00 Build 0)  -->
<!DOCTYPE svg PUBLIC "-//W3C//DTD SVG 1.1//EN" "http://www.w3.org/Graphics/SVG/1.1/DTD/svg11.dtd">
<svg version="1.1" id="recuperar_senha" xmlns="http://www.w3.org/2000/svg" xmlns:xlink="http://www.w3.org/1999/xlink" x="0px" y="0px" width="151.099px" height="175.033px" viewBox="221.91 323.445 151.099 175.033" enable-background="new 221.91 323.445 151.099 175.033" xml:space="preserve">
<title>icon_aviaozin</title>
<path d="M254.171,437.884l-23.321,23.32c-2.045,2.046-5.361,2.046-7.406,0c-2.045-2.045-2.045-5.36,0-7.405
	l23.364-23.252c2.036-2.036,5.336-2.036,7.372,0c2.036,2.035,2.036,5.336,0,7.371l0,0l0,0L254.171,437.884z M266.227,482.579
	l-7.001,7.001c-2.036,2.036-2.036,5.336,0,7.372c2.036,2.035,5.336,2.035,7.372,0l7.001-7.001c2.036-2.036,2.036-5.337,0-7.372
	C271.563,480.543,268.263,480.543,266.227,482.579L266.227,482.579L266.227,482.579z M368.983,365.252
	c-0.49,1.231-1.007,2.532-1.541,3.901l-34.025,87.091c-4.831,12.375-8.354,18.877-14.218,20.074
	c-0.601,0.124-1.213,0.188-1.826,0.189c-4.581,0-8.146-3.66-12.538-8.146L304.481,468l-54.892,3.591
	c-2.871,0.188-5.352-1.986-5.541-4.857c-0.099-1.499,0.455-2.969,1.519-4.03l26.826-26.825L249.4,412.884
	c-6.623-6.622-10.489-11.824-9.318-17.318c1.292-6.028,7.406-8.371,16.655-11.902l3.901-1.499l87.091-33.991
	c12.444-4.857,19.075-6.45,23.141-2.36c4.064,4.091,1.723,10.274-1.912,19.445l0,0L368.983,365.252z M361.99,354.324
	c-3.552,0.964-7.04,2.146-10.446,3.539l-87.091,33.991l-3.979,1.533c-3.832,1.464-8.517,3.255-10.007,4.444
	c0.37,0.861,1.723,3.049,6.321,7.682l22.994,22.994l47.003-47.046c2.035-2.036,5.336-2.036,7.372,0c2.035,2.036,2.035,5.336,0,7.372
	l0,0l-50.681,50.681l0,0l0,0l-20.668,20.668l31.984-2.093l-6.175-6.175c-2.036-2.035-2.036-5.336,0-7.371
	c2.036-2.036,5.336-2.036,7.372,0l13.969,13.969c0.86,0.86,1.662,1.722,2.42,2.462c1.545,1.676,3.202,3.244,4.96,4.694
	c0.965-1.094,2.937-4.255,6.468-13.314l33.896-86.997c0.543-1.395,1.077-2.722,1.576-3.97c0.93-2.334,2.007-5.029,2.687-7.062l0,0
	L361.99,354.324z"/>
</svg>
