<?xml version="1.0" encoding="utf-8"?>
<!-- Generator: Adobe Illustrator 16.0.4, SVG Export Plug-In . SVG Version: 6.00 Build 0)  -->
<!DOCTYPE svg PUBLIC "-//W3C//DTD SVG 1.1//EN" "http://www.w3.org/Graphics/SVG/1.1/DTD/svg11.dtd">
<svg version="1.1" id="Layer_1" xmlns="http://www.w3.org/2000/svg" xmlns:xlink="http://www.w3.org/1999/xlink" x="0px" y="0px" width="24px" height="24px" viewBox="0 0 24 24" enable-background="new 0 0 24 24" xml:space="preserve">
<g>
	<path d="M21.144,24H2.875c-1.58,0-2.865-1.285-2.865-2.865V2.865C0.009,1.285,1.294,0,2.875,0h18.269
		c1.58,0,2.865,1.285,2.865,2.865v18.27C24.009,22.715,22.724,24,21.144,24z M2.875,1C1.846,1,1.009,1.837,1.009,2.865v18.27
		C1.009,22.163,1.846,23,2.875,23h18.269c1.028,0,1.865-0.837,1.865-1.865V2.865C23.009,1.837,22.172,1,21.144,1H2.875z"/>
	<path d="M8.981,19H5.02C4.458,19,4,18.543,4,17.98V14.02C4,13.457,4.458,13,5.02,13h3.961C9.543,13,10,13.457,10,14.02v3.961
		C10,18.543,9.543,19,8.981,19z M5.02,14L5,17.98L8.981,18C8.992,18,9,17.991,9,17.98V14.02L5.02,14z"/>
	<path d="M19.438,15h-6.896c-0.276,0-0.5-0.224-0.5-0.5s0.224-0.5,0.5-0.5h6.896c0.276,0,0.5,0.224,0.5,0.5S19.714,15,19.438,15z"/>
	<path d="M19.438,17h-6.896c-0.276,0-0.5-0.224-0.5-0.5s0.224-0.5,0.5-0.5h6.896c0.276,0,0.5,0.224,0.5,0.5S19.714,17,19.438,17z"/>
	<path d="M8.981,10H5.02C4.458,10,4,9.542,4,8.98V5.019C4,4.457,4.458,4,5.02,4H8.98C9.542,4,10,4.457,10,5.019V8.98
		C10,9.542,9.543,10,8.981,10z M5.02,5L5,8.98L8.981,9C8.992,9,9,8.991,9,8.98V5.019L5.02,5z"/>
	<path d="M19.438,6h-6.896c-0.276,0-0.5-0.224-0.5-0.5s0.224-0.5,0.5-0.5h6.896c0.276,0,0.5,0.224,0.5,0.5S19.714,6,19.438,6z"/>
	<path d="M19.438,8h-6.896c-0.276,0-0.5-0.224-0.5-0.5s0.224-0.5,0.5-0.5h6.896c0.276,0,0.5,0.224,0.5,0.5S19.714,8,19.438,8z"/>
</g>
</svg>
