<?xml version="1.0" encoding="utf-8"?>
<!-- Generator: Adobe Illustrator 16.0.4, SVG Export Plug-In . SVG Version: 6.00 Build 0)  -->
<!DOCTYPE svg PUBLIC "-//W3C//DTD SVG 1.1//EN" "http://www.w3.org/Graphics/SVG/1.1/DTD/svg11.dtd">
<svg version="1.1" id="Layer_1" xmlns="http://www.w3.org/2000/svg" xmlns:xlink="http://www.w3.org/1999/xlink" x="0px" y="0px" width="24px" height="24px" viewBox="0 0 24 24" enable-background="new 0 0 24 24" xml:space="preserve">
<g>
	<path d="M1.354,23.94c-0.318,0-0.64-0.133-0.893-0.387c-0.369-0.37-0.486-0.899-0.3-1.349c2.305-6.506,2.346-6.546,2.454-6.653
		c0.194-0.194,0.512-0.195,0.707,0.002c0.16,0.161,0.188,0.403,0.083,0.593c-0.156,0.362-1.46,4.016-2.312,6.417
		c-0.044,0.109,0.01,0.219,0.076,0.285c0.039,0.038,0.138,0.12,0.253,0.074c2.438-0.848,6.11-2.133,6.475-2.287
		c0.19-0.102,0.431-0.073,0.59,0.085c0.196,0.194,0.197,0.511,0.003,0.707c-0.109,0.109-0.149,0.15-6.715,2.431
		C1.64,23.914,1.497,23.94,1.354,23.94z"/>
	<path d="M2.903,23.431c-0.128,0-0.256-0.049-0.354-0.146l-1.818-1.818c-0.195-0.195-0.195-0.512,0-0.707s0.512-0.195,0.707,0
		l1.818,1.818c0.195,0.195,0.195,0.512,0,0.707C3.159,23.382,3.031,23.431,2.903,23.431z"/>
	<path d="M8.136,21.575c-0.128,0-0.256-0.049-0.354-0.146L2.613,16.26c-0.195-0.195-0.195-0.512,0-0.707L17.438,0.727
		c0.79-0.79,2.166-0.788,2.954,0l2.923,2.923c0.395,0.395,0.611,0.919,0.611,1.477s-0.217,1.082-0.611,1.477L8.489,21.429
		C8.392,21.526,8.264,21.575,8.136,21.575z M3.674,15.906l4.462,4.462L22.608,5.896c0.205-0.206,0.318-0.479,0.318-0.77
		s-0.113-0.564-0.318-0.77l-2.923-2.923c-0.412-0.411-1.128-0.412-1.54,0L3.674,15.906z"/>
	<path d="M6.097,19.536c-0.128,0-0.256-0.049-0.354-0.146c-0.195-0.195-0.195-0.512,0-0.707L17.844,6.582
		c0.195-0.195,0.512-0.195,0.707,0s0.195,0.512,0,0.707L6.45,19.39C6.353,19.487,6.225,19.536,6.097,19.536z"/>
</g>
</svg>
