<?xml version="1.0" encoding="utf-8"?>
<!-- Generator: Adobe Illustrator 16.0.4, SVG Export Plug-In . SVG Version: 6.00 Build 0)  -->
<!DOCTYPE svg PUBLIC "-//W3C//DTD SVG 1.1//EN" "http://www.w3.org/Graphics/SVG/1.1/DTD/svg11.dtd">
<svg version="1.1" id="Login" xmlns="http://www.w3.org/2000/svg" xmlns:xlink="http://www.w3.org/1999/xlink" x="0px" y="0px" width="154.789px" height="174.05px" viewBox="220.216 324.445 154.789 174.05" enable-background="new 220.216 324.445 154.789 174.05" xml:space="preserve">
<title>icon_erro_422</title>
<g>
	<path d="M320.903,470.411c-0.004,0.001-0.007,0.001-0.011,0.002c-1.758,0.284-2.953,1.939-2.669,3.698l0.001,0.002
		l2.942,17.897h-47.041l2.895-17.865c0.285-1.759-0.91-3.415-2.669-3.7s-3.415,0.91-3.7,2.669l-3.136,19.63
		c0,3.169,2.837,5.748,6.32,5.748H321.4c3.369,0.1,6.181-2.552,6.28-5.92c0.003-0.115,0.003-0.229,0-0.344l-3.104-19.114
		C324.308,471.354,322.663,470.144,320.903,470.411z"/>
	<path d="M361.59,343.496c-0.098-0.001-0.194-0.001-0.292,0H233.921c-7.493-0.076-13.629,5.937-13.705,13.43
		c-0.001,0.092-0.001,0.184,0,0.275v88.6c-0.018,7.589,6.116,13.759,13.705,13.785h127.377c7.588-0.031,13.719-6.198,13.705-13.785
		v-88.568C375.092,349.736,369.087,343.585,361.59,343.496z M368.554,445.801c0.044,4.007-3.168,7.291-7.175,7.335
		c-0.027,0.001-0.055,0.001-0.081,0.001H233.921c-4.007,0-7.256-3.248-7.256-7.255c0-0.027,0-0.055,0-0.081v-5.563h141.889V445.801z
		 M368.554,357.201v76.587H226.665v-76.587c-0.036-3.971,3.155-7.22,7.126-7.255c0.043,0,0.086,0,0.129,0h127.377
		c3.976-0.031,7.225,3.167,7.256,7.142C368.554,357.125,368.554,357.163,368.554,357.201z"/>
	<path d="M312.395,382.031h-1.612v-6.675c0-6.925-5.894-12.568-13.141-12.568c-7.248,0-13.141,5.644-13.141,12.568
		v6.675h-1.612c-4.528,0.021-8.182,3.708-8.162,8.236c0,0.062,0.001,0.125,0.003,0.188l2.16,22.363
		c-0.009,4.501,3.633,8.158,8.134,8.167h25.193c4.388,0.032,7.995-3.45,8.118-7.836l2.193-22.984
		C320.52,385.677,316.884,382.04,312.395,382.031z M290.926,375.356c0-3.37,2.999-6.119,6.691-6.119s6.691,2.749,6.691,6.119v6.675
		h-13.383V375.356z M311.927,412.844c0,0.932-0.753,1.688-1.685,1.693h-25.193c-0.996-0.052-1.761-0.902-1.709-1.897
		c0.002-0.034,0.004-0.068,0.008-0.102l-2.161-22.363c-0.005-0.924,0.736-1.68,1.661-1.693h0.016h29.547
		c0.827-0.019,1.547,0.564,1.701,1.378L311.927,412.844z"/>
	<path d="M297.617,398.284c-1.781,0-3.225,1.443-3.225,3.225v5.208c0,1.781,1.444,3.225,3.225,3.225
		c1.781,0,3.225-1.444,3.225-3.225v-5.208C300.842,399.728,299.399,398.284,297.617,398.284z"/>
</g>
</svg>
