<?xml version="1.0" encoding="utf-8"?>
<!-- Generator: Adobe Illustrator 16.0.4, SVG Export Plug-In . SVG Version: 6.00 Build 0)  -->
<!DOCTYPE svg PUBLIC "-//W3C//DTD SVG 1.1//EN" "http://www.w3.org/Graphics/SVG/1.1/DTD/svg11.dtd">
<svg version="1.1" id="Layer_1" xmlns:sketch="http://www.bohemiancoding.com/sketch/ns" xmlns="http://www.w3.org/2000/svg" xmlns:xlink="http://www.w3.org/1999/xlink" x="0px" y="0px" width="48px" height="48px" viewBox="0 0 48 48" enable-background="new 0 0 48 48" xml:space="preserve">
<title>thin-0021_calendar_month_day_planner</title>
<desc>Created with Sketch.</desc>
<g>
	<path d="M41.01,1.154H6.99c-3.218,0-5.835,2.618-5.835,5.835v34.022c0,3.217,2.618,5.834,5.835,5.834h34.02
		c3.218,0,5.836-2.618,5.836-5.835V6.989C46.846,3.772,44.228,1.154,41.01,1.154z M6.99,3.952h34.02
		c1.675,0,3.038,1.362,3.038,3.037v5.354H3.952V6.989C3.952,5.314,5.314,3.952,6.99,3.952z M41.01,44.048H6.99
		c-1.675,0-3.038-1.362-3.038-3.036v-25.87h40.096v25.869C44.048,42.686,42.685,44.048,41.01,44.048z"/>
	<polygon points="29.033,23.954 31.008,23.225 31.008,37.844 33.806,37.844 33.806,19.211 28.064,21.329 	"/>
	<path d="M14.061,19.819v2.797h7.021l-6.679,8.195l3.257-0.254c0.783-0.062,3.277,0.028,4.398,1.202
		c0.519,0.543,0.709,1.306,0.581,2.327c-0.172,1.377-0.982,2.211-2.407,2.479c-2.075,0.391-4.767-0.585-5.538-2.007l-2.459,1.331
		c1.141,2.109,4.144,3.56,7.035,3.56c0.5,0,0.997-0.043,1.48-0.135c2.639-0.496,4.34-2.275,4.666-4.881
		c0.293-2.345-0.563-3.799-1.334-4.605c-1.045-1.095-2.474-1.623-3.742-1.871l6.631-8.138H14.061z"/>
</g>
</svg>
