<?xml version="1.0" encoding="utf-8"?>
<!-- Generator: Adobe Illustrator 16.0.4, SVG Export Plug-In . SVG Version: 6.00 Build 0)  -->
<!DOCTYPE svg PUBLIC "-//W3C//DTD SVG 1.1//EN" "http://www.w3.org/Graphics/SVG/1.1/DTD/svg11.dtd">
<svg version="1.1" id="Layer_1" xmlns="http://www.w3.org/2000/svg" xmlns:xlink="http://www.w3.org/1999/xlink" x="0px" y="0px" width="181px" height="54px" viewBox="0 0 181 54" enable-background="new 0 0 181 54" xml:space="preserve">
<title>gestao-de-documento</title>
<desc>Created with Sketch.</desc>
<g id="Group-13" transform="translate(0.000000, 0.890600)">
	<g id="Clip-6">
	</g>
	<g id="Clip-12">
	</g>
</g>
<g>
	<path d="M16.219,40.532c-4.38-0.963-5.194,1.772-4.589,3.304c2.996,1.567,6.401,2.459,10.018,2.459
		c8.212,0,15.355-4.574,19.023-11.31C38.158,36.293,26.087,42.704,16.219,40.532z"/>
	<path d="M34.898,12.116c-3.374-0.11-13.724-10.022-24.263-3.734c0.608-0.318,3.517-1.409,9.189,2.981
		c1.067,0.827,16.268,16.322,23.071,17.416c0.26-1.338,0.399-2.719,0.399-4.132c0-5.802-2.287-11.067-6.003-14.954
		C37.456,10.468,37.533,12.203,34.898,12.116z"/>
	<path d="M39.798,32.511c0,0-6.758-1.45-25.327-15.715c-0.595-0.456-7.248-5.992-13.8,2.488
		C0.234,21,0,22.796,0,24.648c0,1.526,0.16,3.014,0.461,4.453C3.587,24.762,22.283,39.854,39.798,32.511z"/>
	<rect x="52.295" y="1.294" width="2" height="50"/>
	<path d="M70.907,15.43c1.358,0,2.478-0.254,3.359-0.76c0.524-0.293,1.126-0.82,1.806-1.578l0.492,1.938h1.312V6.97
		h-6.614v1.692h4.717c-0.021,1.764-0.468,3.04-1.342,3.829c-0.874,0.79-1.978,1.185-3.311,1.185c-1.742,0-2.998-0.562-3.768-1.687
		c-0.771-1.125-1.156-2.582-1.156-4.374c0-2.07,0.467-3.629,1.401-4.676c0.934-1.045,2.083-1.568,3.449-1.568
		c1.151,0,2.105,0.251,2.862,0.754c0.756,0.502,1.255,1.304,1.496,2.404h2.02c-0.33-1.969-1.233-3.346-2.708-4.133
		c-1.018-0.546-2.223-0.82-3.618-0.82c-2.035,0-3.692,0.712-4.973,2.133c-1.347,1.491-2.021,3.497-2.021,6.02
		c0,2.529,0.689,4.519,2.068,5.968C67.642,14.852,69.152,15.43,70.907,15.43z"/>
	<path d="M85.228,15.419c0.557,0,1.055-0.055,1.496-0.164c0.821-0.191,1.509-0.561,2.066-1.107
		c0.332-0.314,0.633-0.72,0.904-1.215c0.27-0.496,0.429-0.945,0.477-1.349h-1.815c-0.133,0.487-0.359,0.917-0.678,1.288
		c-0.57,0.639-1.333,0.958-2.289,0.958c-1.024,0-1.78-0.338-2.269-1.014c-0.489-0.675-0.75-1.571-0.784-2.688h7.988
		c0-1.107-0.055-1.914-0.163-2.42c-0.123-0.738-0.367-1.384-0.734-1.938c-0.38-0.58-0.934-1.054-1.661-1.42
		c-0.727-0.365-1.478-0.549-2.252-0.549c-1.536,0-2.779,0.551-3.73,1.651s-1.427,2.532-1.427,4.296c0,1.792,0.472,3.185,1.417,4.179
		C82.718,14.922,83.87,15.419,85.228,15.419z M83.282,6.33c0.569-0.612,1.274-0.918,2.115-0.918c1.173,0,2.01,0.444,2.512,1.333
		c0.271,0.479,0.444,1.117,0.519,1.918h-6.05C82.411,7.719,82.713,6.941,83.282,6.33z"/>
	<path d="M98.542,13.446c-0.53,0.297-1.145,0.445-1.842,0.445c-1.173,0-1.995-0.297-2.47-0.892
		c-0.259-0.328-0.416-0.8-0.471-1.415h-1.774c0.048,1.094,0.417,2.012,1.105,2.753c0.688,0.742,1.86,1.112,3.515,1.112
		c1.536,0,2.68-0.355,3.431-1.066c0.751-0.71,1.126-1.555,1.126-2.532c0-1.012-0.358-1.753-1.076-2.226
		c-0.46-0.3-1.365-0.611-2.717-0.933l-1.242-0.298c-0.544-0.129-0.955-0.279-1.233-0.45C94.41,7.659,94.17,7.278,94.17,6.801
		c0-0.437,0.184-0.787,0.551-1.053s0.908-0.398,1.621-0.398c1.07,0,1.823,0.241,2.258,0.724c0.266,0.341,0.416,0.718,0.451,1.132
		h1.742c0.014-0.71-0.211-1.373-0.676-1.988c-0.74-0.971-1.949-1.457-3.626-1.457c-1.282,0-2.302,0.322-3.061,0.965
		s-1.138,1.483-1.138,2.521c0,0.883,0.402,1.573,1.209,2.072c0.451,0.287,1.153,0.547,2.105,0.779l1.489,0.369
		c0.8,0.198,1.334,0.372,1.604,0.522c0.424,0.246,0.637,0.604,0.637,1.077C99.338,12.689,99.072,13.148,98.542,13.446z"/>
	<path d="M103.531,12.825c0,0.705,0.154,1.277,0.461,1.718c0.309,0.441,0.893,0.661,1.754,0.661
		c0.267,0,0.514-0.014,0.743-0.041s0.45-0.071,0.661-0.133v-1.467c-0.137,0.019-0.256,0.03-0.358,0.035
		c-0.103,0.004-0.198,0.006-0.287,0.006c-0.335,0-0.574-0.037-0.718-0.112c-0.26-0.13-0.39-0.386-0.39-0.769V5.555h1.753V4.047
		h-1.753V0.982h-1.866v3.065h-1.486v1.508h1.486V12.825z"/>
	<path d="M111.084,1.679c0.152-0.157,0.35-0.235,0.589-0.235c0.191,0,0.388,0.028,0.589,0.087
		c0.202,0.058,0.464,0.146,0.785,0.261l0.543,0.195c0.178,0.068,0.383,0.13,0.615,0.185s0.424,0.082,0.574,0.082
		c0.486,0,0.932-0.164,1.338-0.492c0.407-0.328,0.683-0.926,0.826-1.794h-1.076c-0.035,0.26-0.096,0.454-0.186,0.584
		c-0.164,0.239-0.438,0.359-0.82,0.359c-0.164,0-0.324-0.024-0.481-0.072s-0.331-0.113-0.522-0.195
		c-0.479-0.205-0.86-0.341-1.145-0.41c-0.283-0.067-0.541-0.102-0.773-0.102c-0.766,0-1.344,0.314-1.732,0.943
		c-0.205,0.342-0.353,0.782-0.441,1.322h1.005C110.825,2.076,110.93,1.836,111.084,1.679z"/>
	<path d="M115.897,13.574c0.062,0.438,0.167,0.776,0.317,1.016c0.287,0.45,0.749,0.677,1.385,0.677
		c0.26,0,0.465-0.011,0.615-0.031s0.369-0.072,0.656-0.154v-1.363c-0.116,0.021-0.226,0.036-0.328,0.046
		c-0.103,0.011-0.195,0.016-0.277,0.016c-0.252,0-0.418-0.058-0.496-0.174c-0.08-0.116-0.119-0.27-0.119-0.462V6.817
		c0-1.039-0.398-1.805-1.197-2.297c-0.807-0.492-1.854-0.738-3.145-0.738c-1.113,0-2.092,0.266-2.935,0.797
		s-1.282,1.476-1.315,2.832h1.723c0.068-0.569,0.215-0.999,0.439-1.288c0.402-0.521,1.085-0.782,2.047-0.782
		c0.832,0,1.472,0.142,1.918,0.427c0.447,0.285,0.671,0.743,0.671,1.374c0,0.309-0.041,0.546-0.123,0.71
		c-0.144,0.301-0.427,0.479-0.851,0.532l-2.943,0.369c-1.032,0.13-1.866,0.475-2.502,1.034s-0.953,1.349-0.953,2.366
		c0,0.929,0.322,1.701,0.969,2.319s1.479,0.927,2.496,0.927c0.848,0,1.624-0.182,2.328-0.543
		C114.981,14.494,115.521,14.066,115.897,13.574z M112.381,13.831c-0.533,0-0.995-0.154-1.385-0.461s-0.584-0.727-0.584-1.258
		c0-0.703,0.285-1.215,0.855-1.535c0.338-0.19,0.84-0.331,1.508-0.419l1.116-0.144c0.341-0.041,0.688-0.109,1.044-0.206
		c0.354-0.096,0.645-0.216,0.869-0.359v1.484c0,1.133-0.512,1.948-1.537,2.446C113.658,13.68,113.029,13.831,112.381,13.831z"/>
	<path d="M125.069,3.73c-1.568,0-2.817,0.547-3.747,1.64s-1.395,2.561-1.395,4.405c0,1.721,0.44,3.092,1.323,4.113
		c0.882,1.021,2.073,1.531,3.573,1.531c1.799,0,3.127-0.577,3.981-1.731c0.855-1.154,1.283-2.616,1.283-4.385
		c0-1.83-0.485-3.217-1.456-4.159S126.475,3.73,125.069,3.73z M127.486,12.443c-0.449,0.925-1.279,1.388-2.488,1.388
		c-1.102,0-1.906-0.39-2.414-1.168c-0.506-0.778-0.76-1.751-0.76-2.919c0-1.215,0.254-2.253,0.76-3.113
		c0.508-0.86,1.318-1.29,2.434-1.29c1.258,0,2.143,0.505,2.656,1.516c0.325,0.642,0.487,1.475,0.487,2.499
		C128.161,10.488,127.937,11.517,127.486,12.443z"/>
	<path d="M141.915,15.419c0.756,0,1.427-0.15,2.013-0.451c0.585-0.301,1.092-0.79,1.521-1.466v1.527h1.661V-0.084
		h-1.774v5.548c-0.415-0.514-0.786-0.872-1.113-1.077c-0.564-0.355-1.266-0.533-2.104-0.533c-1.512,0-2.675,0.586-3.488,1.759
		c-0.814,1.172-1.221,2.559-1.221,4.158c0,1.709,0.446,3.077,1.338,4.106C139.641,14.905,140.695,15.419,141.915,15.419z
		 M140.221,6.53c0.574-0.711,1.324-1.066,2.25-1.066c0.829,0,1.526,0.333,2.091,0.999c0.564,0.667,0.847,1.694,0.847,3.081
		c0,1.375-0.273,2.429-0.821,3.164c-0.548,0.734-1.246,1.102-2.097,1.102c-1.095,0-1.891-0.396-2.387-1.189
		c-0.497-0.792-0.745-1.776-0.745-2.953C139.358,8.287,139.646,7.241,140.221,6.53z"/>
	<path d="M159.047,7.708c-0.123-0.738-0.367-1.384-0.734-1.938c-0.38-0.58-0.934-1.054-1.66-1.42
		c-0.728-0.365-1.479-0.549-2.252-0.549c-1.536,0-2.779,0.551-3.73,1.651s-1.427,2.532-1.427,4.296c0,1.792,0.472,3.185,1.417,4.179
		c0.943,0.995,2.096,1.492,3.453,1.492c0.557,0,1.056-0.055,1.496-0.164c0.821-0.191,1.51-0.561,2.066-1.107
		c0.332-0.314,0.633-0.72,0.904-1.215c0.27-0.496,0.428-0.945,0.477-1.349h-1.815c-0.133,0.487-0.358,0.917-0.678,1.288
		c-0.569,0.639-1.333,0.958-2.289,0.958c-1.024,0-1.78-0.338-2.269-1.014c-0.488-0.675-0.75-1.571-0.783-2.688h7.987
		C159.21,9.021,159.155,8.214,159.047,7.708z M151.264,8.663c0.033-0.943,0.335-1.722,0.904-2.333
		c0.569-0.612,1.274-0.918,2.115-0.918c1.172,0,2.01,0.444,2.512,1.333c0.271,0.479,0.443,1.117,0.518,1.918H151.264z"/>
	<path d="M71.007,19.167h-6.021V34.23h6c2.55,0,4.348-1.143,5.393-3.426c0.594-1.291,0.891-2.736,0.891-4.336
		c0-2.072-0.502-3.771-1.508-5.097C74.637,19.902,73.052,19.167,71.007,19.167z M75.029,28.396
		c-0.174,0.949-0.458,1.729-0.852,2.338c-0.495,0.758-1.13,1.271-1.905,1.537c-0.435,0.145-0.989,0.215-1.664,0.215h-3.56V20.92
		h3.54c1.611,0,2.779,0.517,3.504,1.548c0.725,1.033,1.088,2.482,1.088,4.348C75.179,27.302,75.129,27.828,75.029,28.396z"/>
	<path d="M83.963,34.619c1.799,0,3.126-0.576,3.981-1.73c0.855-1.154,1.283-2.617,1.283-4.385
		c0-1.831-0.485-3.217-1.456-4.16s-2.159-1.414-3.563-1.414c-1.568,0-2.817,0.547-3.747,1.64c-0.93,1.093-1.395,2.561-1.395,4.405
		c0,1.721,0.441,3.092,1.324,4.113C81.271,34.109,82.463,34.619,83.963,34.619z M81.723,25.831c0.507-0.86,1.318-1.29,2.434-1.29
		c1.257,0,2.143,0.505,2.656,1.516c0.325,0.642,0.487,1.475,0.487,2.499c0,1.133-0.225,2.162-0.674,3.088s-1.279,1.389-2.489,1.389
		c-1.102,0-1.907-0.391-2.414-1.168c-0.507-0.779-0.76-1.752-0.76-2.92C80.962,27.729,81.216,26.691,81.723,25.831z"/>
	<path d="M95.461,34.549c1.279,0,2.328-0.338,3.148-1.012c0.82-0.672,1.333-1.736,1.538-3.193h-1.794
		c-0.172,0.811-0.48,1.449-0.929,1.916c-0.448,0.465-1.054,0.699-1.819,0.699c-0.998,0-1.73-0.375-2.195-1.127
		s-0.697-1.676-0.697-2.775c0-1.092,0.164-2.011,0.492-2.755c0.506-1.146,1.348-1.72,2.523-1.72c0.861,0,1.486,0.224,1.876,0.671
		c0.39,0.448,0.64,1.011,0.749,1.687h1.794c-0.157-1.469-0.624-2.505-1.399-3.106c-0.776-0.602-1.783-0.902-3.02-0.902
		c-1.449,0-2.643,0.537-3.579,1.61s-1.405,2.573-1.405,4.5c0,1.572,0.427,2.883,1.282,3.934
		C92.881,34.023,94.025,34.549,95.461,34.549z"/>
	<path d="M108.812,28.643c0,1.072-0.123,1.916-0.37,2.531c-0.452,1.148-1.305,1.723-2.556,1.723
		c-0.873,0-1.469-0.328-1.788-0.984c-0.173-0.355-0.26-0.812-0.26-1.373v-7.292h-1.887v7.465c0,0.938,0.151,1.686,0.452,2.246
		c0.557,1.045,1.604,1.568,3.14,1.568c0.986,0,1.825-0.287,2.515-0.861c0.35-0.287,0.642-0.639,0.877-1.057l-0.021,1.621h1.744
		V23.248h-1.846V28.643z"/>
	<path d="M125.003,23.001c-0.69,0-1.312,0.143-1.866,0.426c-0.554,0.284-1.035,0.72-1.445,1.308
		c-0.246-0.479-0.52-0.841-0.82-1.087c-0.533-0.431-1.238-0.646-2.113-0.646c-0.771,0-1.463,0.209-2.07,0.626
		c-0.355,0.246-0.752,0.64-1.189,1.179v-1.559h-1.826V34.23h1.846v-5.824c0-1.416,0.285-2.393,0.857-2.933
		c0.57-0.54,1.204-0.81,1.901-0.81c0.766,0,1.288,0.256,1.569,0.769c0.178,0.342,0.266,0.886,0.266,1.63v7.168h1.877v-6.389
		c0-1.134,0.262-1.945,0.785-2.43c0.521-0.485,1.146-0.729,1.871-0.729c0.525,0,0.972,0.138,1.338,0.41
		c0.365,0.274,0.549,0.776,0.549,1.508v7.629h1.917v-7.311c0-0.971-0.144-1.744-0.431-2.318
		C127.484,23.535,126.479,23.001,125.003,23.001z"/>
	<path d="M138.538,30.785c-0.133,0.486-0.358,0.916-0.678,1.287c-0.569,0.639-1.333,0.959-2.289,0.959
		c-1.024,0-1.78-0.338-2.269-1.014s-0.75-1.572-0.783-2.689h7.987c0-1.107-0.055-1.914-0.163-2.419
		c-0.123-0.738-0.367-1.384-0.734-1.938c-0.38-0.58-0.934-1.054-1.66-1.42c-0.728-0.365-1.479-0.549-2.252-0.549
		c-1.536,0-2.779,0.551-3.73,1.651s-1.427,2.532-1.427,4.296c0,1.791,0.472,3.184,1.417,4.178c0.943,0.996,2.096,1.492,3.453,1.492
		c0.557,0,1.056-0.055,1.496-0.164c0.821-0.191,1.51-0.561,2.066-1.107c0.332-0.314,0.633-0.719,0.904-1.215
		c0.27-0.496,0.428-0.945,0.477-1.348H138.538z M133.465,25.53c0.569-0.612,1.274-0.918,2.115-0.918c1.172,0,2.01,0.444,2.512,1.333
		c0.271,0.479,0.443,1.117,0.518,1.918h-6.049C132.594,26.919,132.896,26.141,133.465,25.53z"/>
	<path d="M149.623,25.689c0.197,0.41,0.297,0.95,0.297,1.619v6.922h1.877v-7.045c0-1.107-0.15-1.958-0.451-2.553
		c-0.547-1.087-1.6-1.631-3.158-1.631c-0.711,0-1.357,0.141-1.938,0.421s-1.132,0.742-1.651,1.384v-1.559h-1.753V34.23h1.846v-5.752
		c0-0.719,0.046-1.271,0.139-1.657c0.092-0.387,0.292-0.761,0.6-1.123c0.383-0.451,0.827-0.752,1.333-0.902
		c0.28-0.089,0.639-0.133,1.076-0.133C148.699,24.664,149.295,25.005,149.623,25.689z"/>
	<path d="M154.893,20.182v3.065h-1.486v1.508h1.486v7.27c0,0.705,0.154,1.277,0.462,1.717
		c0.308,0.441,0.892,0.662,1.753,0.662c0.268,0,0.515-0.014,0.744-0.041c0.229-0.027,0.449-0.072,0.661-0.133v-1.467
		c-0.137,0.018-0.257,0.029-0.358,0.035c-0.104,0.004-0.199,0.006-0.287,0.006c-0.336,0-0.574-0.037-0.719-0.113
		c-0.26-0.129-0.389-0.385-0.389-0.768v-7.168h1.753v-1.508h-1.753v-3.065H154.893z"/>
	<path d="M168.315,24.344c-0.971-0.942-2.159-1.414-3.563-1.414c-1.568,0-2.817,0.547-3.747,1.64
		c-0.931,1.093-1.396,2.561-1.396,4.405c0,1.721,0.441,3.092,1.324,4.113s2.074,1.531,3.574,1.531c1.799,0,3.125-0.576,3.98-1.73
		s1.283-2.617,1.283-4.385C169.771,26.673,169.286,25.287,168.315,24.344z M167.17,31.643c-0.45,0.926-1.279,1.389-2.489,1.389
		c-1.103,0-1.907-0.391-2.413-1.168c-0.508-0.779-0.761-1.752-0.761-2.92c0-1.215,0.253-2.252,0.761-3.113
		c0.506-0.86,1.317-1.29,2.434-1.29c1.257,0,2.143,0.505,2.656,1.516c0.324,0.642,0.486,1.475,0.486,2.499
		C167.844,29.688,167.619,30.717,167.17,31.643z"/>
	<path d="M179.461,28.826c-0.459-0.301-1.365-0.611-2.716-0.934l-1.243-0.297c-0.543-0.129-0.955-0.28-1.232-0.451
		c-0.483-0.286-0.725-0.667-0.725-1.144c0-0.437,0.184-0.787,0.551-1.053s0.908-0.398,1.622-0.398c1.07,0,1.823,0.241,2.257,0.724
		c0.266,0.341,0.416,0.718,0.451,1.132h1.743c0.014-0.71-0.212-1.373-0.676-1.988c-0.741-0.971-1.95-1.457-3.626-1.457
		c-1.282,0-2.303,0.322-3.061,0.965c-0.759,0.643-1.139,1.483-1.139,2.521c0,0.883,0.403,1.573,1.209,2.073
		c0.451,0.287,1.154,0.547,2.105,0.779l1.49,0.369c0.799,0.197,1.334,0.371,1.604,0.521c0.424,0.246,0.636,0.605,0.636,1.078
		c0,0.621-0.266,1.08-0.795,1.379c-0.531,0.297-1.145,0.445-1.842,0.445c-1.173,0-1.996-0.297-2.471-0.893
		c-0.258-0.328-0.415-0.799-0.471-1.414h-1.773c0.048,1.094,0.416,2.012,1.105,2.752c0.688,0.742,1.859,1.113,3.514,1.113
		c1.537,0,2.68-0.355,3.432-1.066c0.75-0.711,1.126-1.555,1.126-2.533C180.538,30.039,180.18,29.299,179.461,28.826z"/>
	<path d="M69.637,42.711c-0.212-0.225-0.5-0.4-0.864-0.529c-0.364-0.127-0.826-0.191-1.386-0.191h-3.156v8.641h0.816
		v-3.816h1.848c0.4,0,0.798-0.035,1.194-0.107s0.75-0.199,1.062-0.379s0.566-0.426,0.762-0.738c0.196-0.311,0.294-0.707,0.294-1.188
		c0-0.32-0.042-0.625-0.126-0.918C69.997,43.193,69.849,42.934,69.637,42.711z M69.217,45.236c-0.116,0.229-0.28,0.408-0.492,0.541
		c-0.212,0.131-0.47,0.221-0.774,0.27c-0.304,0.047-0.648,0.072-1.032,0.072h-1.872v-3.434h2.112c0.776,0,1.342,0.141,1.698,0.42
		c0.356,0.281,0.534,0.693,0.534,1.236C69.391,44.711,69.333,45.008,69.217,45.236z"/>
	<path d="M76.135,45.201c-0.24-0.293-0.54-0.525-0.9-0.697s-0.784-0.258-1.272-0.258c-0.48,0-0.9,0.086-1.26,0.258
		c-0.36,0.172-0.66,0.406-0.9,0.703c-0.24,0.295-0.42,0.641-0.54,1.037c-0.12,0.396-0.18,0.822-0.18,1.277
		c0,0.545,0.076,1.021,0.228,1.43c0.152,0.406,0.358,0.748,0.618,1.02c0.26,0.271,0.564,0.477,0.912,0.611
		c0.348,0.137,0.722,0.209,1.122,0.217c0.432,0,0.826-0.078,1.182-0.234s0.66-0.379,0.912-0.666s0.446-0.633,0.582-1.031
		c0.136-0.4,0.204-0.85,0.204-1.346c0-0.455-0.058-0.883-0.174-1.283C76.553,45.838,76.375,45.492,76.135,45.201z M75.955,48.494
		c-0.08,0.312-0.204,0.592-0.372,0.84s-0.386,0.447-0.654,0.594c-0.268,0.148-0.59,0.223-0.966,0.223
		c-0.344,0-0.648-0.064-0.912-0.191c-0.264-0.129-0.484-0.309-0.66-0.541c-0.176-0.232-0.31-0.51-0.402-0.834
		c-0.092-0.324-0.138-0.678-0.138-1.062c0-0.336,0.04-0.66,0.12-0.977c0.08-0.316,0.204-0.596,0.372-0.84s0.386-0.441,0.654-0.588
		c0.268-0.148,0.59-0.223,0.966-0.223c0.384,0,0.708,0.068,0.972,0.203c0.264,0.137,0.48,0.322,0.648,0.559s0.292,0.514,0.372,0.834
		c0.08,0.32,0.12,0.664,0.12,1.031C76.075,47.857,76.035,48.182,75.955,48.494z"/>
	<polygon points="83.419,49.67 82.051,44.414 81.247,44.414 79.807,49.719 78.199,44.414 77.479,44.414 
		79.375,50.631 80.239,50.631 81.619,45.41 81.643,45.41 82.999,50.631 83.767,50.631 85.783,44.414 85.051,44.414 	"/>
	<path d="M91.375,45.129c-0.488-0.588-1.16-0.883-2.016-0.883c-0.448,0-0.848,0.086-1.2,0.258
		s-0.65,0.408-0.894,0.709c-0.244,0.299-0.432,0.65-0.564,1.049c-0.132,0.4-0.198,0.828-0.198,1.285
		c0,0.455,0.056,0.881,0.168,1.277c0.112,0.396,0.284,0.74,0.516,1.031c0.232,0.293,0.528,0.523,0.888,0.691
		c0.36,0.168,0.788,0.252,1.284,0.252c0.392,0,0.736-0.053,1.032-0.156c0.295-0.104,0.552-0.25,0.767-0.438
		c0.217-0.189,0.396-0.408,0.541-0.66c0.144-0.252,0.26-0.527,0.348-0.822h-0.805c-0.111,0.455-0.335,0.809-0.671,1.057
		s-0.74,0.371-1.212,0.371c-0.344,0-0.648-0.066-0.912-0.197c-0.264-0.133-0.482-0.309-0.654-0.529
		c-0.172-0.219-0.302-0.479-0.39-0.779s-0.132-0.617-0.132-0.955h4.824C92.103,46.57,91.863,45.717,91.375,45.129z M87.271,47.09
		c0.032-0.295,0.1-0.576,0.204-0.84c0.104-0.264,0.242-0.496,0.414-0.695c0.172-0.199,0.38-0.359,0.624-0.48
		c0.244-0.119,0.526-0.18,0.846-0.18s0.604,0.059,0.852,0.174s0.454,0.271,0.618,0.469c0.164,0.195,0.288,0.428,0.372,0.695
		s0.125,0.555,0.125,0.857H87.271z"/>
	<path d="M94.279,45.578h-0.024v-1.164h-0.72v6.217h0.72v-3.049c0-0.344,0.03-0.674,0.09-0.99
		c0.06-0.314,0.168-0.59,0.324-0.822c0.155-0.23,0.366-0.414,0.63-0.551s0.6-0.201,1.008-0.191v-0.781
		c-0.52,0-0.938,0.098-1.254,0.295C94.736,44.736,94.479,45.082,94.279,45.578z"/>
	<path d="M101.826,45.129c-0.488-0.588-1.16-0.883-2.016-0.883c-0.448,0-0.848,0.086-1.2,0.258
		s-0.649,0.408-0.894,0.709c-0.244,0.299-0.432,0.65-0.564,1.049c-0.132,0.4-0.197,0.828-0.197,1.285
		c0,0.455,0.055,0.881,0.168,1.277c0.111,0.396,0.283,0.74,0.516,1.031c0.232,0.293,0.527,0.523,0.888,0.691
		s0.788,0.252,1.284,0.252c0.393,0,0.736-0.053,1.032-0.156s0.552-0.25,0.768-0.438c0.216-0.189,0.396-0.408,0.54-0.66
		s0.26-0.527,0.348-0.822h-0.804c-0.112,0.455-0.336,0.809-0.672,1.057s-0.739,0.371-1.212,0.371c-0.344,0-0.648-0.066-0.912-0.197
		c-0.264-0.133-0.482-0.309-0.654-0.529c-0.172-0.219-0.302-0.479-0.39-0.779s-0.132-0.617-0.132-0.955h4.824
		C102.555,46.57,102.314,45.717,101.826,45.129z M97.723,47.09c0.031-0.295,0.1-0.576,0.204-0.84
		c0.104-0.264,0.241-0.496,0.413-0.695c0.173-0.199,0.381-0.359,0.625-0.48c0.244-0.119,0.525-0.18,0.846-0.18
		s0.604,0.059,0.852,0.174s0.455,0.271,0.619,0.469c0.163,0.195,0.287,0.428,0.371,0.695s0.126,0.555,0.126,0.857H97.723z"/>
	<path d="M108.751,45.41c-0.232-0.383-0.55-0.674-0.954-0.869c-0.404-0.197-0.826-0.295-1.266-0.295
		c-0.473,0-0.883,0.09-1.23,0.27c-0.348,0.182-0.636,0.42-0.863,0.721c-0.229,0.301-0.398,0.65-0.511,1.051
		c-0.112,0.398-0.168,0.814-0.168,1.248c0,0.455,0.052,0.883,0.156,1.283c0.104,0.4,0.271,0.746,0.498,1.037
		c0.228,0.293,0.518,0.523,0.87,0.691c0.352,0.168,0.779,0.252,1.283,0.252c0.2,0,0.404-0.029,0.612-0.084
		c0.208-0.057,0.41-0.137,0.606-0.24c0.195-0.104,0.375-0.234,0.539-0.391s0.299-0.338,0.402-0.545h0.024v1.092h0.72V41.99h-0.72
		V45.41z M108.613,48.549c-0.092,0.324-0.227,0.604-0.402,0.84s-0.396,0.422-0.66,0.559c-0.264,0.135-0.564,0.203-0.9,0.203
		c-0.304,0-0.584-0.055-0.84-0.162s-0.479-0.266-0.672-0.475c-0.191-0.207-0.342-0.461-0.449-0.762
		c-0.108-0.299-0.162-0.646-0.162-1.037c-0.017-0.393,0.016-0.758,0.096-1.098s0.208-0.639,0.384-0.895s0.399-0.459,0.672-0.605
		c0.272-0.148,0.597-0.223,0.972-0.223c0.328,0,0.623,0.07,0.883,0.209c0.26,0.141,0.479,0.328,0.66,0.564
		c0.18,0.236,0.317,0.512,0.414,0.828c0.096,0.316,0.144,0.65,0.144,1.002C108.751,47.875,108.705,48.225,108.613,48.549z"/>
	<path d="M119.736,45.236c-0.229-0.301-0.516-0.539-0.863-0.721c-0.349-0.18-0.759-0.27-1.23-0.27
		c-0.44,0-0.862,0.098-1.266,0.295c-0.404,0.195-0.723,0.486-0.955,0.869v-3.42h-0.719v8.641h0.719v-1.092h0.024
		c0.104,0.207,0.238,0.389,0.402,0.545c0.163,0.156,0.344,0.287,0.54,0.391c0.195,0.104,0.397,0.184,0.605,0.24
		c0.208,0.055,0.412,0.084,0.612,0.084c0.504,0,0.932-0.084,1.284-0.252c0.352-0.168,0.642-0.398,0.869-0.691
		c0.229-0.291,0.395-0.637,0.498-1.037c0.104-0.4,0.156-0.828,0.156-1.283c0-0.434-0.056-0.85-0.168-1.248
		C120.135,45.887,119.965,45.537,119.736,45.236z M119.484,48.752c-0.107,0.301-0.258,0.555-0.45,0.762
		c-0.192,0.209-0.416,0.367-0.672,0.475s-0.536,0.162-0.84,0.162c-0.336,0-0.636-0.068-0.899-0.203
		c-0.265-0.137-0.484-0.322-0.66-0.559c-0.177-0.236-0.311-0.516-0.402-0.84s-0.139-0.674-0.139-1.051
		c0-0.352,0.049-0.686,0.145-1.002s0.234-0.592,0.414-0.828s0.4-0.424,0.66-0.564c0.26-0.139,0.554-0.209,0.882-0.209
		c0.368,0,0.69,0.074,0.966,0.223c0.275,0.146,0.502,0.35,0.678,0.605s0.305,0.555,0.385,0.895s0.111,0.705,0.096,1.098
		C119.646,48.105,119.592,48.453,119.484,48.752z"/>
	<path d="M124.099,49.754l-1.992-5.34h-0.804l2.412,6.256c-0.072,0.135-0.137,0.301-0.192,0.496
		s-0.126,0.383-0.21,0.562s-0.19,0.334-0.318,0.463c-0.128,0.127-0.292,0.191-0.492,0.191c-0.104,0-0.205-0.008-0.306-0.025
		c-0.101-0.016-0.198-0.031-0.294-0.047v0.684c0.096,0.023,0.202,0.045,0.318,0.061c0.115,0.016,0.238,0.023,0.365,0.023
		c0.248,0,0.463-0.059,0.643-0.174s0.344-0.283,0.492-0.504c0.147-0.221,0.287-0.486,0.42-0.799c0.132-0.311,0.27-0.664,0.414-1.055
		l2.316-6.133h-0.781L124.099,49.754z"/>
	<path d="M135.066,46.863h2.916c-0.008,0.328-0.038,0.639-0.09,0.936c-0.053,0.295-0.146,0.58-0.282,0.852
		c-0.144,0.279-0.315,0.516-0.517,0.707c-0.199,0.193-0.416,0.35-0.647,0.469c-0.231,0.121-0.472,0.207-0.72,0.258
		c-0.248,0.053-0.488,0.078-0.721,0.078c-0.496,0-0.938-0.096-1.326-0.287c-0.387-0.193-0.715-0.453-0.983-0.781
		s-0.472-0.707-0.612-1.139c-0.14-0.434-0.209-0.889-0.209-1.369c0-0.607,0.061-1.166,0.186-1.674
		c0.123-0.508,0.318-0.943,0.582-1.309c0.264-0.363,0.6-0.645,1.008-0.846c0.408-0.199,0.896-0.299,1.464-0.299
		c0.319,0,0.628,0.045,0.925,0.137c0.295,0.092,0.563,0.225,0.803,0.396c0.24,0.172,0.446,0.387,0.619,0.643
		c0.172,0.256,0.293,0.543,0.365,0.863h0.84c-0.096-0.463-0.252-0.865-0.468-1.205s-0.481-0.625-0.798-0.854
		c-0.316-0.227-0.672-0.396-1.068-0.51c-0.396-0.111-0.822-0.168-1.277-0.168c-0.68,0-1.271,0.117-1.771,0.35
		c-0.5,0.23-0.916,0.549-1.248,0.953s-0.577,0.881-0.737,1.428c-0.16,0.549-0.24,1.139-0.24,1.77c0,0.77,0.094,1.441,0.281,2.018
		c0.188,0.574,0.451,1.053,0.787,1.434c0.336,0.379,0.735,0.666,1.199,0.857s0.969,0.287,1.512,0.287
		c0.424,0,0.805-0.039,1.141-0.119s0.632-0.193,0.888-0.342s0.481-0.328,0.679-0.541c0.195-0.211,0.369-0.445,0.521-0.701v1.477
		h0.695v-4.465h-3.695V46.863z"/>
	<path d="M145.17,45.129c-0.488-0.588-1.16-0.883-2.016-0.883c-0.448,0-0.848,0.086-1.2,0.258
		s-0.649,0.408-0.894,0.709c-0.244,0.299-0.432,0.65-0.564,1.049c-0.132,0.4-0.197,0.828-0.197,1.285
		c0,0.455,0.055,0.881,0.168,1.277c0.111,0.396,0.283,0.74,0.516,1.031c0.232,0.293,0.527,0.523,0.888,0.691
		s0.788,0.252,1.284,0.252c0.393,0,0.736-0.053,1.032-0.156s0.552-0.25,0.768-0.438c0.216-0.189,0.396-0.408,0.54-0.66
		s0.26-0.527,0.348-0.822h-0.804c-0.112,0.455-0.336,0.809-0.672,1.057s-0.739,0.371-1.212,0.371c-0.344,0-0.648-0.066-0.912-0.197
		c-0.264-0.133-0.482-0.309-0.654-0.529c-0.172-0.219-0.302-0.479-0.39-0.779s-0.132-0.617-0.132-0.955h4.824
		C145.898,46.57,145.658,45.717,145.17,45.129z M141.066,47.09c0.031-0.295,0.1-0.576,0.204-0.84
		c0.104-0.264,0.241-0.496,0.413-0.695c0.173-0.199,0.381-0.359,0.625-0.48c0.244-0.119,0.525-0.18,0.846-0.18
		s0.604,0.059,0.852,0.174s0.455,0.271,0.619,0.469c0.163,0.195,0.287,0.428,0.371,0.695s0.126,0.555,0.126,0.857H141.066z"/>
	<path d="M151.938,45.201c-0.239-0.293-0.54-0.525-0.899-0.697c-0.36-0.172-0.785-0.258-1.272-0.258
		c-0.479,0-0.899,0.086-1.26,0.258s-0.66,0.406-0.9,0.703c-0.239,0.295-0.42,0.641-0.54,1.037c-0.119,0.396-0.18,0.822-0.18,1.277
		c0,0.545,0.076,1.021,0.229,1.43c0.151,0.406,0.357,0.748,0.617,1.02s0.564,0.477,0.912,0.611c0.348,0.137,0.723,0.209,1.122,0.217
		c0.433,0,0.826-0.078,1.183-0.234c0.355-0.156,0.66-0.379,0.912-0.666s0.445-0.633,0.582-1.031c0.135-0.4,0.203-0.85,0.203-1.346
		c0-0.455-0.059-0.883-0.174-1.283C152.356,45.838,152.179,45.492,151.938,45.201z M151.759,48.494
		c-0.08,0.312-0.204,0.592-0.372,0.84s-0.387,0.447-0.654,0.594c-0.268,0.148-0.59,0.223-0.966,0.223
		c-0.345,0-0.647-0.064-0.912-0.191c-0.264-0.129-0.483-0.309-0.659-0.541c-0.177-0.232-0.311-0.51-0.402-0.834
		s-0.139-0.678-0.139-1.062c0-0.336,0.041-0.66,0.121-0.977c0.079-0.316,0.203-0.596,0.371-0.84s0.387-0.441,0.654-0.588
		c0.268-0.148,0.59-0.223,0.966-0.223c0.384,0,0.708,0.068,0.972,0.203c0.264,0.137,0.48,0.322,0.648,0.559s0.292,0.514,0.372,0.834
		c0.079,0.32,0.12,0.664,0.12,1.031C151.879,47.857,151.838,48.182,151.759,48.494z"/>
	<path d="M157.519,47.516c-0.296-0.131-0.616-0.232-0.96-0.305s-0.664-0.154-0.96-0.246s-0.542-0.213-0.738-0.361
		c-0.196-0.146-0.294-0.361-0.294-0.641c0-0.32,0.12-0.578,0.36-0.775c0.239-0.195,0.588-0.293,1.044-0.293s0.834,0.098,1.134,0.293
		c0.3,0.197,0.481,0.535,0.546,1.016h0.732c-0.088-0.705-0.342-1.207-0.762-1.506c-0.42-0.301-0.967-0.451-1.639-0.451
		c-0.695,0-1.234,0.166-1.613,0.498c-0.381,0.332-0.57,0.758-0.57,1.277c0,0.408,0.098,0.725,0.294,0.949s0.442,0.396,0.737,0.516
		c0.297,0.119,0.616,0.211,0.961,0.27c0.344,0.061,0.664,0.133,0.959,0.217c0.297,0.084,0.543,0.199,0.738,0.348
		c0.196,0.148,0.295,0.375,0.295,0.678c0,0.152-0.033,0.297-0.097,0.432c-0.063,0.137-0.158,0.258-0.282,0.367
		c-0.124,0.107-0.281,0.193-0.474,0.258s-0.42,0.096-0.685,0.096c-0.543,0-0.961-0.109-1.254-0.33
		c-0.292-0.221-0.494-0.598-0.605-1.135h-0.732c0.016,0.297,0.08,0.572,0.192,0.828s0.268,0.48,0.468,0.672
		c0.2,0.193,0.441,0.344,0.727,0.451c0.283,0.107,0.609,0.162,0.978,0.162s0.706-0.039,1.015-0.115
		c0.307-0.074,0.573-0.189,0.797-0.342c0.225-0.15,0.4-0.342,0.528-0.57c0.128-0.227,0.192-0.488,0.192-0.785
		c0-0.4-0.098-0.711-0.295-0.936C158.061,47.826,157.814,47.648,157.519,47.516z"/>
	<rect x="160.039" y="41.99" width="0.791" height="1.068"/>
	<rect x="160.074" y="44.414" width="0.721" height="6.217"/>
	<path d="M167.568,50.096c-0.101-0.076-0.15-0.254-0.15-0.533v-3.385c0-0.359-0.059-0.664-0.174-0.912
		c-0.116-0.248-0.275-0.445-0.48-0.594c-0.203-0.146-0.443-0.256-0.72-0.324c-0.276-0.066-0.569-0.102-0.882-0.102
		c-0.336,0-0.654,0.039-0.954,0.115c-0.3,0.074-0.563,0.195-0.792,0.359s-0.414,0.375-0.559,0.635
		c-0.143,0.262-0.228,0.574-0.252,0.943h0.732c0.032-0.271,0.098-0.498,0.198-0.678c0.101-0.182,0.228-0.324,0.384-0.434
		c0.156-0.107,0.338-0.184,0.547-0.227c0.207-0.045,0.436-0.066,0.684-0.066c0.56,0,0.957,0.117,1.193,0.354
		s0.354,0.539,0.354,0.906c0,0.111-0.015,0.234-0.042,0.365c-0.028,0.133-0.102,0.227-0.223,0.283
		c-0.119,0.057-0.273,0.1-0.461,0.131c-0.188,0.033-0.351,0.057-0.486,0.072l-0.996,0.133c-1.448,0.191-2.172,0.816-2.172,1.871
		c0,0.305,0.056,0.566,0.168,0.787c0.111,0.219,0.264,0.406,0.455,0.557c0.193,0.152,0.414,0.266,0.666,0.336
		c0.253,0.072,0.515,0.109,0.787,0.109c0.455,0,0.879-0.088,1.271-0.264s0.74-0.434,1.044-0.77c0,0.113,0.008,0.219,0.024,0.318
		c0.016,0.1,0.046,0.193,0.09,0.277s0.102,0.154,0.174,0.215s0.168,0.098,0.288,0.113c0.104,0.025,0.212,0.037,0.324,0.037
		c0.104,0,0.21-0.016,0.317-0.049c0.108-0.031,0.19-0.055,0.246-0.072v-0.562C167.87,50.154,167.668,50.172,167.568,50.096z
		 M166.698,48.338c0,0.312-0.064,0.582-0.192,0.811s-0.298,0.416-0.51,0.564s-0.454,0.258-0.727,0.33
		c-0.271,0.072-0.551,0.107-0.84,0.107c-0.168,0-0.334-0.021-0.498-0.066c-0.164-0.043-0.308-0.111-0.432-0.203
		s-0.225-0.209-0.3-0.348c-0.076-0.141-0.114-0.307-0.114-0.498c0-0.424,0.154-0.74,0.463-0.949
		c0.307-0.207,0.737-0.332,1.289-0.371c0.312-0.025,0.624-0.057,0.936-0.096c0.312-0.041,0.621-0.125,0.925-0.252V48.338z"/>
	<path d="M174.444,45.188c-0.228-0.291-0.519-0.521-0.87-0.689s-0.779-0.252-1.283-0.252
		c-0.201,0-0.404,0.029-0.612,0.084c-0.208,0.057-0.41,0.137-0.606,0.24c-0.195,0.104-0.376,0.236-0.539,0.396
		c-0.164,0.16-0.299,0.34-0.402,0.539h-0.024v-1.092h-0.72v8.664h0.72v-3.443c0.231,0.383,0.55,0.674,0.954,0.869
		c0.404,0.197,0.826,0.295,1.266,0.295c0.473,0,0.883-0.09,1.23-0.27c0.348-0.182,0.636-0.422,0.863-0.721
		c0.229-0.301,0.398-0.65,0.511-1.051c0.112-0.398,0.168-0.816,0.168-1.248c0-0.455-0.052-0.883-0.156-1.283
		S174.672,45.48,174.444,45.188z M174.234,48.428c-0.08,0.34-0.208,0.639-0.384,0.895c-0.177,0.256-0.402,0.459-0.679,0.605
		c-0.275,0.148-0.598,0.223-0.965,0.223c-0.328,0-0.623-0.07-0.883-0.211c-0.26-0.139-0.48-0.326-0.66-0.562
		s-0.317-0.512-0.414-0.828c-0.096-0.316-0.144-0.65-0.144-1.002c0-0.377,0.046-0.727,0.138-1.051s0.227-0.604,0.402-0.84
		s0.396-0.422,0.66-0.559c0.264-0.135,0.564-0.203,0.9-0.203c0.303,0,0.584,0.055,0.84,0.162s0.479,0.266,0.672,0.475
		c0.191,0.207,0.342,0.461,0.449,0.762c0.108,0.299,0.162,0.646,0.162,1.037C174.346,47.723,174.314,48.088,174.234,48.428z"/>
</g>
</svg>
