<?xml version="1.0" encoding="utf-8"?>
<!-- Generator: Adobe Illustrator 16.0.4, SVG Export Plug-In . SVG Version: 6.00 Build 0)  -->
<!DOCTYPE svg PUBLIC "-//W3C//DTD SVG 1.1//EN" "http://www.w3.org/Graphics/SVG/1.1/DTD/svg11.dtd">
<svg version="1.1" id="Layer_1" xmlns="http://www.w3.org/2000/svg" xmlns:xlink="http://www.w3.org/1999/xlink" x="0px" y="0px" width="24px" height="24px" viewBox="0 0 24 24" enable-background="new 0 0 24 24" xml:space="preserve">
<g>
	<path d="M7.524,7.989h-7c-0.276,0-0.5-0.224-0.5-0.5v-7c0-0.276,0.224-0.5,0.5-0.5h7c0.276,0,0.5,0.224,0.5,0.5v7
		C8.024,7.765,7.801,7.989,7.524,7.989z M1.024,6.989h6v-6h-6V6.989z"/>
	<path d="M14.524,7.989h-7c-0.276,0-0.5-0.224-0.5-0.5v-7c0-0.276,0.224-0.5,0.5-0.5h7c0.276,0,0.5,0.224,0.5,0.5v7
		C15.024,7.765,14.801,7.989,14.524,7.989z M8.024,6.989h6v-6h-6V6.989z"/>
	<path d="M21.524,7.989h-7c-0.276,0-0.5-0.224-0.5-0.5v-7c0-0.276,0.224-0.5,0.5-0.5h7c0.276,0,0.5,0.224,0.5,0.5v7
		C22.024,7.765,21.801,7.989,21.524,7.989z M15.024,6.989h6v-6h-6V6.989z"/>
	<path d="M7.524,14.989h-7c-0.276,0-0.5-0.224-0.5-0.5v-7c0-0.276,0.224-0.5,0.5-0.5h7c0.276,0,0.5,0.224,0.5,0.5v7
		C8.024,14.766,7.801,14.989,7.524,14.989z M1.024,13.989h6v-6h-6V13.989z"/>
	<path d="M14.524,14.989h-7c-0.276,0-0.5-0.224-0.5-0.5v-7c0-0.276,0.224-0.5,0.5-0.5h7c0.276,0,0.5,0.224,0.5,0.5v7
		C15.024,14.766,14.801,14.989,14.524,14.989z M8.024,13.989h6v-6h-6V13.989z"/>
	<path d="M7.524,21.99h-7c-0.276,0-0.5-0.224-0.5-0.5v-7c0-0.276,0.224-0.5,0.5-0.5h7c0.276,0,0.5,0.224,0.5,0.5v7
		C8.024,21.767,7.801,21.99,7.524,21.99z M1.024,20.99h6v-6h-6V20.99z"/>
</g>
</svg>
