<?xml version="1.0" encoding="utf-8"?>
<!-- Generator: Adobe Illustrator 16.0.4, SVG Export Plug-In . SVG Version: 6.00 Build 0)  -->
<!DOCTYPE svg PUBLIC "-//W3C//DTD SVG 1.1//EN" "http://www.w3.org/Graphics/SVG/1.1/DTD/svg11.dtd">
<svg version="1.1" id="recuperar_senha" xmlns="http://www.w3.org/2000/svg" xmlns:xlink="http://www.w3.org/1999/xlink" x="0px" y="0px" width="207.883px" height="180px" viewBox="193.438 330.863 207.883 180" enable-background="new 193.438 330.863 207.883 180" xml:space="preserve">
<title>icon_recuperar_senha</title>
<g>
	<path d="M387.374,505.004c-0.08-1.335-1.145-2.399-2.479-2.479h-36.562c2.513-3.166,3.521-7.271,2.762-11.24
		l-7.496-39.335c-0.946-4.954-4.494-9.012-9.279-10.609l-19.106-6.366c-0.322-0.107-0.662-0.151-1-0.13v-5.074
		c3.651-4.084,5.662-9.375,5.645-14.853v-6.256c3.368-1.136,5.639-4.292,5.645-7.847v-14.103
		c-0.005-9.254-7.51-16.754-16.765-16.754h-22.56c-3.646,0.004-6.862,2.388-7.927,5.875c-5.135,1.09-8.81,5.621-8.818,10.87v14.103
		c0.006,3.555,2.276,6.711,5.645,7.847v5.425c-0.003,5.615,1.995,11.048,5.635,15.323v5.436c-0.338-0.021-0.679,0.022-1,0.13
		l-19.107,6.365c-4.784,1.599-8.333,5.655-9.278,10.609l-7.497,39.335c-0.759,3.97,0.249,8.073,2.762,11.239h-36.572
		c-1.459,0-2.642,1.184-2.642,2.643c0,1.46,1.183,2.643,2.642,2.643h174.874C386.351,507.713,387.461,506.46,387.374,505.004z
		 M275.069,397.983v4.224c-0.231-0.435-0.352-0.919-0.351-1.411v-14.103c0.006-3.209,2.606-5.81,5.815-5.815
		c1.459,0,2.643-1.183,2.643-2.642c0-1.659,1.344-3.003,3.002-3.003h22.56c6.327,0.006,11.454,5.133,11.46,11.46v14.103
		c0.001,0.492-0.12,0.977-0.35,1.411v-4.224c-0.006-4.575-3.713-8.282-8.287-8.288h-28.205
		C278.781,389.701,275.073,393.408,275.069,397.983z M280.363,414.077h-0.01v-16.094c0-1.659,1.345-3.003,3.003-3.003h28.205
		c1.658,0,3.002,1.344,3.002,3.003v16.925c0.011,9.442-7.635,17.104-17.076,17.114c-0.186,0-0.373-0.003-0.56-0.009
		C287.789,431.722,280.363,423.686,280.363,414.077z M311.561,440.119l-0.011-0.02h0.11c-0.69,6.525-6.796,11.641-14.213,11.641
		c-7.417,0-13.521-5.125-14.212-11.641h0.11c1.459,0,2.643-1.183,2.643-2.642v-3.443c3.23,2.044,6.948,3.188,10.769,3.312h0.701
		c4.032,0.012,7.99-1.074,11.45-3.143v3.323C308.925,438.959,310.109,440.125,311.561,440.119z M331.478,502.324h-0.01
		c0,0.1-0.08,0.181-0.181,0.181h-67.679c-0.1,0-0.18-0.081-0.18-0.181v-36.661c0-0.1,0.08-0.181,0.18-0.181h67.69
		c0.099,0,0.179,0.081,0.18,0.181V502.324z M344.069,499.393l-0.01-0.07c-1.639,1.986-4.08,3.137-6.656,3.133h-0.66
		c0-0.061,0-0.12,0-0.181v-36.662c-0.006-3.016-2.448-5.459-5.465-5.465h-67.669c-3.016,0.006-5.459,2.449-5.465,5.465v36.662
		c0,0.061,0,0.12,0,0.181h-0.65c-4.771,0.001-8.64-3.863-8.641-8.636c0-0.544,0.051-1.089,0.153-1.624l7.497-39.335
		c0.588-3.07,2.789-5.586,5.755-6.575l15.774-5.255c1.181,9.008,9.438,15.954,19.417,15.954s18.236-7.006,19.417-15.954
		l15.774,5.255c2.967,0.989,5.167,3.505,5.755,6.575l7.496,39.335C346.402,494.746,345.732,497.392,344.069,499.393z"/>
	<path d="M297.458,477.132c-4.577,0-8.287,3.711-8.287,8.288s3.71,8.287,8.287,8.287s8.288-3.71,8.288-8.287
		C305.74,480.845,302.032,477.138,297.458,477.132z M297.468,488.423c-0.003,0-0.007,0-0.01,0v-0.011
		c-1.658,0-3.002-1.345-3.002-3.003s1.344-3.002,3.002-3.002c1.658,0,3.002,1.344,3.002,3.002
		C300.466,487.067,299.126,488.416,297.468,488.423z"/>
	<path d="M356.11,382.319c2.062-1.731,4.884-4.104,4.884-8.006c0-5.251-4.257-9.509-9.508-9.509
		s-9.509,4.257-9.509,9.509c0,1.752,1.421,3.172,3.174,3.172c1.752,0,3.172-1.42,3.172-3.172c-0.098-1.734,1.229-3.218,2.961-3.315
		s3.217,1.228,3.314,2.961c0.007,0.118,0.007,0.236,0,0.354c0,0.851-1,1.791-2.622,3.112c-2.002,1.691-4.524,3.854-4.493,7.287
		c0.01,1.752,1.419,3.176,3.172,3.203c1.763-0.038,3.165-1.49,3.143-3.253C353.877,384.241,355.328,382.97,356.11,382.319z"/>
	<path d="M350.744,390.666c-1.741,0-3.152,1.412-3.152,3.153c0,0.007,0,0.014,0,0.02
		c-0.011,1.736,1.387,3.152,3.123,3.163c0.01,0,0.02,0,0.029,0c1.75-0.171,3.029-1.728,2.858-3.478
		C353.454,392.012,352.258,390.814,350.744,390.666z"/>
	<path d="M321.69,368.877c0.002,0,0.006,0,0.009,0c1.765-0.028,3.179-1.468,3.174-3.233
		c-0.001-4.017,3.238-7.283,7.256-7.316h36.953c4.07,0.07,7.352,3.356,7.416,7.427v30.626c-0.064,4.073-3.344,7.362-7.416,7.437
		h-30.928c-0.987-0.035-1.932,0.404-2.542,1.182l-10.439,13.882c-1.022,1.409-0.709,3.381,0.699,4.404
		c0.534,0.387,1.174,0.596,1.833,0.601c0.989,0.032,1.935-0.41,2.543-1.19l9.487-12.572h29.336
		c7.576-0.076,13.697-6.206,13.762-13.782v-30.627c-0.064-7.571-6.181-13.696-13.751-13.772h-36.953
		c-7.558,0.022-13.669,6.164-13.651,13.722C318.477,367.439,319.914,368.877,321.69,368.877z"/>
</g>
</svg>
