<?xml version="1.0" encoding="utf-8"?>
<!-- Generator: Adobe Illustrator 16.0.4, SVG Export Plug-In . SVG Version: 6.00 Build 0)  -->
<!DOCTYPE svg PUBLIC "-//W3C//DTD SVG 1.1//EN" "http://www.w3.org/Graphics/SVG/1.1/DTD/svg11.dtd">
<svg version="1.1" id="Layer_1" xmlns="http://www.w3.org/2000/svg" xmlns:xlink="http://www.w3.org/1999/xlink" x="0px" y="0px" width="24px" height="24px" viewBox="0 0 24 24" enable-background="new 0 0 24 24" xml:space="preserve">
<g>
	<path d="M14.803,15H1c-0.276,0-0.5-0.224-0.5-0.5S0.724,14,1,14h13.803c0.276,0,0.5,0.224,0.5,0.5S15.079,15,14.803,15z"/>
	<path d="M23.5,15h-6.421c-0.276,0-0.5-0.224-0.5-0.5s0.224-0.5,0.5-0.5H23V4H1C0.724,4,0.5,3.776,0.5,3.5S0.724,3,1,3h22.5
		C23.776,3,24,3.224,24,3.5v11C24,14.776,23.776,15,23.5,15z"/>
	<path d="M18.585,21.476L18.585,21.476c-0.264,0-0.51-0.143-0.642-0.37l-0.951-1.672l-0.557,0.558
		c-0.396,0.396-1.159,0.152-1.252-0.398l-1.178-6.749c-0.038-0.216,0.021-0.435,0.16-0.601c0.261-0.31,0.762-0.35,1.064-0.075
		l5.156,4.631c0.211,0.191,0.294,0.478,0.219,0.749c-0.076,0.271-0.294,0.474-0.57,0.527l-0.489,0.097l0.937,1.236
		c0.123,0.163,0.173,0.37,0.14,0.569c-0.034,0.199-0.148,0.378-0.315,0.49l-1.309,0.882C18.875,21.432,18.732,21.476,18.585,21.476z
		 M17.103,18.116c0.022,0,0.044,0.002,0.066,0.005c0.155,0.021,0.291,0.112,0.368,0.248l1.135,1.994l0.848-0.57l-1.254-1.654
		c-0.104-0.137-0.13-0.318-0.069-0.479c0.062-0.161,0.202-0.279,0.371-0.312l0.765-0.151l-4.212-3.783l0.963,5.518l0.666-0.667
		C16.843,18.168,16.971,18.116,17.103,18.116z"/>
	<path d="M17.482,11.018L17.482,11.018c-0.253,0-0.493-0.122-0.642-0.327l-1.945-2.399c-0.236-0.32-0.217-0.73,0.029-1.009
		c0.142-0.177,0.389-0.271,0.597-0.271l3.922,0c0.3,0,0.569,0.164,0.704,0.428c0.136,0.268,0.111,0.594-0.063,0.833l-1.976,2.441
		C17.976,10.896,17.736,11.018,17.482,11.018z M15.955,8.011l1.527,1.885L19.01,8.01L15.955,8.011z"/>
	<path d="M11.499,14.892c-0.276,0-0.5-0.224-0.5-0.5V3.5c0-0.276,0.224-0.5,0.5-0.5s0.5,0.224,0.5,0.5v10.892
		C11.999,14.668,11.775,14.892,11.499,14.892z"/>
</g>
</svg>
