<?xml version="1.0" encoding="utf-8"?>
<!-- Generator: Adobe Illustrator 16.0.4, SVG Export Plug-In . SVG Version: 6.00 Build 0)  -->
<!DOCTYPE svg PUBLIC "-//W3C//DTD SVG 1.1//EN" "http://www.w3.org/Graphics/SVG/1.1/DTD/svg11.dtd">
<svg version="1.1" id="Layer_1" xmlns="http://www.w3.org/2000/svg" xmlns:xlink="http://www.w3.org/1999/xlink" x="0px" y="0px" width="175px" height="50px" viewBox="0 0 175 50" enable-background="new 0 0 175 50" xml:space="preserve">
<title>issoline</title>
<desc>Created with Sketch.</desc>
<g id="Group-13">
	<g id="Clip-6">
	</g>
	<g id="Clip-12">
	</g>
</g>
<g>
	<path d="M16.219,39.238c-4.38-0.963-5.194,1.773-4.589,3.305c2.996,1.566,6.401,2.459,10.018,2.459
		c8.212,0,15.355-4.574,19.023-11.311C38.158,35,26.087,41.41,16.219,39.238z"/>
	<path d="M34.898,10.822C31.524,10.712,21.174,0.8,10.635,7.088c0.608-0.318,3.517-1.409,9.189,2.981
		c1.067,0.827,16.268,16.321,23.071,17.416c0.26-1.338,0.399-2.719,0.399-4.132c0-5.802-2.287-11.067-6.003-14.954
		C37.456,9.174,37.533,10.909,34.898,10.822z"/>
	<path d="M39.798,31.217c0,0-6.758-1.45-25.327-15.715c-0.595-0.456-7.248-5.992-13.8,2.488
		C0.234,19.706,0,21.502,0,23.354c0,1.526,0.16,3.015,0.461,4.453C3.587,23.468,22.283,38.561,39.798,31.217z"/>
	<rect x="52.295" width="2" height="50"/>
	<rect x="65.356" y="8.036" width="2.061" height="15.062"/>
	<path d="M78.107,21.489c-0.606,0.219-1.277,0.328-2.015,0.328c-1.646,0-2.795-0.499-3.447-1.498
		c-0.342-0.533-0.537-1.227-0.583-2.081h-1.917c-0.021,1.627,0.486,2.916,1.52,3.866c1.033,0.957,2.463,1.436,4.29,1.436
		c1.566,0,2.941-0.359,4.125-1.077c1.183-0.718,1.775-1.91,1.775-3.579c0-1.339-0.464-2.361-1.391-3.065
		c-0.536-0.403-1.298-0.721-2.285-0.954l-2.046-0.481c-1.378-0.328-2.262-0.602-2.653-0.82c-0.596-0.342-0.894-0.882-0.894-1.62
		c0-0.67,0.252-1.258,0.757-1.764s1.334-0.759,2.487-0.759c1.429,0,2.441,0.394,3.038,1.179c0.321,0.432,0.531,1.05,0.629,1.856
		h1.917c0-1.675-0.537-2.894-1.611-3.655c-1.075-0.763-2.38-1.144-3.917-1.144c-1.67,0-2.96,0.435-3.872,1.302
		c-0.912,0.869-1.367,1.979-1.367,3.333c0,1.251,0.463,2.191,1.391,2.819c0.537,0.363,1.45,0.694,2.742,0.995l1.977,0.462
		c1.073,0.253,1.861,0.55,2.364,0.892c0.497,0.349,0.745,0.933,0.745,1.753C79.865,20.306,79.279,21.065,78.107,21.489z"/>
	<path d="M92.113,21.489c-0.605,0.219-1.277,0.328-2.015,0.328c-1.646,0-2.795-0.499-3.447-1.498
		c-0.342-0.533-0.537-1.227-0.583-2.081h-1.917c-0.021,1.627,0.486,2.916,1.52,3.866c1.033,0.957,2.463,1.436,4.29,1.436
		c1.566,0,2.941-0.359,4.125-1.077s1.775-1.91,1.775-3.579c0-1.339-0.464-2.361-1.391-3.065c-0.537-0.403-1.299-0.721-2.285-0.954
		l-2.047-0.481c-1.378-0.328-2.262-0.602-2.653-0.82c-0.596-0.342-0.894-0.882-0.894-1.62c0-0.67,0.252-1.258,0.757-1.764
		s1.334-0.759,2.487-0.759c1.429,0,2.441,0.394,3.037,1.179c0.322,0.432,0.531,1.05,0.63,1.856h1.917
		c0-1.675-0.537-2.894-1.611-3.655c-1.074-0.763-2.379-1.144-3.916-1.144c-1.67,0-2.96,0.435-3.872,1.302
		c-0.912,0.869-1.367,1.979-1.367,3.333c0,1.251,0.463,2.191,1.391,2.819c0.537,0.363,1.45,0.694,2.742,0.995l1.977,0.462
		c1.073,0.253,1.86,0.55,2.364,0.892c0.496,0.349,0.745,0.933,0.745,1.753C93.872,20.306,93.286,21.065,92.113,21.489z"/>
	<path d="M105.244,7.625c-2.543,0-4.465,0.93-5.764,2.789c-1.012,1.449-1.518,3.192-1.518,5.229
		c0,2.256,0.592,4.123,1.774,5.6c1.326,1.531,3.147,2.297,5.466,2.297c2.48,0,4.392-0.875,5.731-2.625
		c1.142-1.49,1.712-3.36,1.712-5.609c0-2.078-0.498-3.783-1.496-5.117C109.871,8.48,107.902,7.625,105.244,7.625z M109.35,19.79
		c-0.803,1.29-2.104,1.935-3.9,1.935c-1.895,0-3.264-0.573-4.107-1.719c-0.844-1.146-1.266-2.554-1.266-4.224
		c0-2.086,0.492-3.665,1.477-4.735c0.984-1.071,2.256-1.606,3.814-1.606c1.605,0,2.872,0.541,3.799,1.621
		c0.926,1.081,1.389,2.508,1.389,4.28C110.555,17.017,110.153,18.5,109.35,19.79z"/>
	<path d="M116.677,17.346c0-0.719,0.046-1.271,0.139-1.656c0.092-0.387,0.292-0.761,0.6-1.123
		c0.383-0.451,0.827-0.752,1.333-0.902c0.28-0.089,0.639-0.133,1.076-0.133c0.861,0,1.457,0.342,1.785,1.025
		c0.197,0.41,0.297,0.95,0.297,1.619v6.922h1.877v-7.045c0-1.107-0.15-1.958-0.451-2.553c-0.547-1.087-1.6-1.631-3.158-1.631
		c-0.711,0-1.357,0.141-1.938,0.421s-1.132,0.742-1.651,1.384v-1.559h-1.753v10.982h1.846V17.346z"/>
	<rect x="126.562" y="8.036" width="1.846" height="15.062"/>
	<rect x="131.176" y="8.036" width="1.877" height="2.092"/>
	<rect x="131.176" y="12.167" width="1.877" height="10.931"/>
	<path d="M142.619,14.557c0.198,0.41,0.297,0.95,0.297,1.619v6.922h1.877v-7.045c0-1.107-0.15-1.958-0.451-2.553
		c-0.547-1.087-1.6-1.631-3.158-1.631c-0.711,0-1.357,0.141-1.938,0.421c-0.582,0.28-1.132,0.742-1.651,1.384v-1.559h-1.753v10.982
		h1.846v-5.752c0-0.719,0.045-1.271,0.139-1.656c0.092-0.387,0.291-0.761,0.6-1.123c0.383-0.451,0.826-0.752,1.332-0.902
		c0.281-0.089,0.64-0.133,1.077-0.133C141.696,13.532,142.291,13.874,142.619,14.557z"/>
	<path d="M156.231,21.001c0.27-0.496,0.429-0.945,0.477-1.349h-1.815c-0.133,0.487-0.358,0.917-0.678,1.288
		c-0.569,0.639-1.332,0.958-2.289,0.958c-1.023,0-1.779-0.338-2.268-1.014c-0.489-0.675-0.75-1.571-0.784-2.688h7.987
		c0-1.107-0.055-1.914-0.162-2.42c-0.123-0.738-0.367-1.384-0.734-1.938c-0.381-0.58-0.934-1.054-1.661-1.42
		c-0.728-0.365-1.478-0.549-2.252-0.549c-1.536,0-2.778,0.551-3.729,1.651s-1.428,2.532-1.428,4.296
		c0,1.792,0.473,3.185,1.417,4.179c0.944,0.995,2.096,1.492,3.454,1.492c0.557,0,1.055-0.055,1.496-0.164
		c0.82-0.191,1.51-0.561,2.066-1.107C155.66,21.902,155.961,21.497,156.231,21.001z M149.82,14.398
		c0.568-0.612,1.273-0.918,2.114-0.918c1.173,0,2.01,0.444,2.512,1.333c0.271,0.479,0.444,1.117,0.519,1.918h-6.05
		C148.949,15.788,149.25,15.009,149.82,14.398z"/>
	<path d="M69.637,31.578c-0.212-0.223-0.5-0.4-0.864-0.527c-0.364-0.129-0.826-0.191-1.386-0.191h-3.156v8.639h0.816
		v-3.816h1.848c0.4,0,0.798-0.035,1.194-0.107s0.75-0.197,1.062-0.377c0.312-0.182,0.566-0.426,0.762-0.738
		c0.196-0.312,0.294-0.709,0.294-1.188c0-0.32-0.042-0.627-0.126-0.92C69.997,32.061,69.849,31.803,69.637,31.578z M69.217,34.105
		c-0.116,0.227-0.28,0.406-0.492,0.539c-0.212,0.133-0.47,0.223-0.774,0.27c-0.304,0.049-0.648,0.072-1.032,0.072h-1.872v-3.432
		h2.112c0.776,0,1.342,0.141,1.698,0.42s0.534,0.691,0.534,1.236C69.391,33.578,69.333,33.877,69.217,34.105z"/>
	<path d="M76.135,34.068c-0.24-0.291-0.54-0.523-0.9-0.695s-0.784-0.258-1.272-0.258c-0.48,0-0.9,0.086-1.26,0.258
		c-0.36,0.172-0.66,0.406-0.9,0.701c-0.24,0.297-0.42,0.643-0.54,1.039c-0.12,0.395-0.18,0.82-0.18,1.277
		c0,0.545,0.076,1.02,0.228,1.428c0.152,0.408,0.358,0.748,0.618,1.02c0.26,0.273,0.564,0.477,0.912,0.613
		c0.348,0.135,0.722,0.207,1.122,0.215c0.432,0,0.826-0.078,1.182-0.234c0.356-0.154,0.66-0.377,0.912-0.666
		c0.252-0.287,0.446-0.631,0.582-1.031c0.136-0.4,0.204-0.848,0.204-1.344c0-0.457-0.058-0.885-0.174-1.283
		C76.553,34.707,76.375,34.361,76.135,34.068z M75.955,37.363c-0.08,0.311-0.204,0.592-0.372,0.84s-0.386,0.445-0.654,0.594
		s-0.59,0.221-0.966,0.221c-0.344,0-0.648-0.062-0.912-0.191c-0.264-0.127-0.484-0.307-0.66-0.539
		c-0.176-0.232-0.31-0.51-0.402-0.834c-0.092-0.324-0.138-0.678-0.138-1.062c0-0.336,0.04-0.662,0.12-0.979
		c0.08-0.316,0.204-0.596,0.372-0.84s0.386-0.439,0.654-0.588c0.268-0.148,0.59-0.223,0.966-0.223c0.384,0,0.708,0.068,0.972,0.205
		c0.264,0.137,0.48,0.322,0.648,0.559c0.168,0.234,0.292,0.514,0.372,0.834c0.08,0.318,0.12,0.664,0.12,1.031
		C76.075,36.727,76.035,37.051,75.955,37.363z"/>
	<polygon points="83.419,38.539 82.051,33.283 81.247,33.283 79.807,38.586 78.199,33.283 77.479,33.283 
		79.375,39.498 80.239,39.498 81.619,34.279 81.643,34.279 82.999,39.498 83.767,39.498 85.783,33.283 85.051,33.283 	"/>
	<path d="M91.375,33.996c-0.488-0.588-1.16-0.881-2.016-0.881c-0.449,0-0.849,0.086-1.201,0.258
		c-0.352,0.172-0.649,0.408-0.894,0.707c-0.244,0.301-0.432,0.65-0.564,1.051c-0.132,0.4-0.198,0.828-0.198,1.283
		c0,0.457,0.056,0.883,0.168,1.279c0.112,0.395,0.284,0.738,0.516,1.031c0.232,0.293,0.528,0.521,0.887,0.689
		c0.361,0.168,0.789,0.252,1.285,0.252c0.392,0,0.735-0.051,1.031-0.156c0.296-0.104,0.553-0.25,0.768-0.438
		c0.217-0.188,0.396-0.408,0.541-0.66c0.144-0.252,0.26-0.525,0.348-0.822h-0.805c-0.111,0.457-0.336,0.809-0.672,1.057
		s-0.739,0.371-1.211,0.371c-0.345,0-0.648-0.064-0.912-0.197c-0.264-0.131-0.482-0.309-0.654-0.527
		c-0.172-0.221-0.302-0.48-0.39-0.781c-0.088-0.299-0.132-0.617-0.132-0.953h4.824C92.103,35.439,91.863,34.584,91.375,33.996z
		 M87.271,35.959c0.032-0.297,0.1-0.576,0.204-0.84c0.104-0.264,0.242-0.496,0.414-0.697c0.172-0.199,0.38-0.359,0.624-0.479
		c0.244-0.121,0.526-0.182,0.847-0.182c0.319,0,0.604,0.059,0.852,0.176c0.248,0.115,0.454,0.271,0.618,0.467
		c0.163,0.197,0.288,0.428,0.372,0.695c0.084,0.27,0.125,0.555,0.125,0.859H87.271z"/>
	<path d="M94.279,34.447h-0.024v-1.164h-0.72v6.215h0.72v-3.047c0-0.344,0.03-0.674,0.09-0.99
		s0.168-0.59,0.324-0.822c0.155-0.232,0.366-0.416,0.63-0.553c0.264-0.135,0.6-0.199,1.008-0.191v-0.779
		c-0.52,0-0.938,0.098-1.254,0.293C94.736,33.605,94.479,33.951,94.279,34.447z"/>
	<path d="M101.826,33.996c-0.488-0.588-1.16-0.881-2.016-0.881c-0.448,0-0.848,0.086-1.2,0.258
		s-0.649,0.408-0.894,0.707c-0.244,0.301-0.432,0.65-0.564,1.051c-0.132,0.4-0.197,0.828-0.197,1.283
		c0,0.457,0.055,0.883,0.168,1.279c0.111,0.395,0.283,0.738,0.516,1.031s0.527,0.521,0.888,0.689s0.788,0.252,1.284,0.252
		c0.393,0,0.736-0.051,1.032-0.156c0.296-0.104,0.552-0.25,0.768-0.438s0.396-0.408,0.54-0.66s0.26-0.525,0.348-0.822h-0.804
		c-0.112,0.457-0.336,0.809-0.672,1.057s-0.739,0.371-1.212,0.371c-0.344,0-0.648-0.064-0.912-0.197
		c-0.264-0.131-0.482-0.309-0.654-0.527c-0.172-0.221-0.302-0.48-0.39-0.781c-0.088-0.299-0.132-0.617-0.132-0.953h4.824
		C102.555,35.439,102.314,34.584,101.826,33.996z M97.723,35.959c0.031-0.297,0.1-0.576,0.204-0.84
		c0.104-0.264,0.241-0.496,0.413-0.697c0.173-0.199,0.381-0.359,0.625-0.479c0.244-0.121,0.525-0.182,0.846-0.182
		s0.604,0.059,0.852,0.176c0.248,0.115,0.455,0.271,0.619,0.467c0.163,0.197,0.287,0.428,0.371,0.695
		c0.084,0.27,0.126,0.555,0.126,0.859H97.723z"/>
	<path d="M108.751,34.279c-0.232-0.385-0.55-0.674-0.954-0.871c-0.404-0.195-0.826-0.293-1.266-0.293
		c-0.473,0-0.883,0.09-1.23,0.27s-0.636,0.42-0.863,0.721c-0.229,0.299-0.398,0.648-0.511,1.049s-0.168,0.816-0.168,1.248
		c0,0.457,0.052,0.885,0.156,1.285c0.104,0.398,0.271,0.744,0.498,1.037s0.518,0.521,0.87,0.689
		c0.352,0.168,0.779,0.252,1.283,0.252c0.2,0,0.404-0.027,0.612-0.084c0.208-0.055,0.41-0.135,0.606-0.24
		c0.195-0.104,0.375-0.232,0.539-0.389s0.299-0.338,0.402-0.547h0.024v1.092h0.72v-8.639h-0.72V34.279z M108.613,37.416
		c-0.092,0.324-0.227,0.605-0.402,0.84c-0.176,0.236-0.396,0.422-0.66,0.559s-0.564,0.203-0.9,0.203c-0.304,0-0.584-0.053-0.84-0.16
		c-0.256-0.109-0.479-0.268-0.672-0.475c-0.191-0.209-0.342-0.463-0.449-0.762c-0.108-0.301-0.162-0.646-0.162-1.039
		c-0.017-0.391,0.016-0.758,0.096-1.098s0.208-0.639,0.384-0.895s0.399-0.457,0.672-0.605s0.597-0.223,0.972-0.223
		c0.328,0,0.623,0.07,0.883,0.211s0.479,0.328,0.66,0.564c0.18,0.236,0.317,0.512,0.414,0.828c0.096,0.314,0.144,0.648,0.144,1.002
		C108.751,36.742,108.705,37.092,108.613,37.416z"/>
	<path d="M119.736,34.105c-0.229-0.301-0.516-0.541-0.863-0.721c-0.349-0.18-0.759-0.27-1.23-0.27
		c-0.44,0-0.862,0.098-1.266,0.293c-0.404,0.197-0.723,0.486-0.955,0.871v-3.42h-0.719v8.639h0.719v-1.092h0.024
		c0.104,0.209,0.238,0.391,0.402,0.547c0.163,0.156,0.344,0.285,0.54,0.389c0.195,0.105,0.397,0.186,0.605,0.24
		c0.208,0.057,0.412,0.084,0.612,0.084c0.504,0,0.932-0.084,1.284-0.252c0.352-0.168,0.642-0.396,0.869-0.689
		c0.229-0.293,0.395-0.639,0.498-1.037c0.104-0.4,0.156-0.828,0.156-1.285c0-0.432-0.056-0.848-0.168-1.248
		C120.135,34.754,119.965,34.404,119.736,34.105z M119.484,37.621c-0.107,0.299-0.258,0.553-0.45,0.762
		c-0.192,0.207-0.416,0.365-0.672,0.475c-0.256,0.107-0.536,0.16-0.84,0.16c-0.336,0-0.636-0.066-0.899-0.203
		c-0.265-0.137-0.484-0.322-0.66-0.559c-0.177-0.234-0.311-0.516-0.402-0.84s-0.139-0.674-0.139-1.049
		c0-0.354,0.049-0.688,0.145-1.002c0.096-0.316,0.234-0.592,0.414-0.828s0.4-0.424,0.66-0.564s0.554-0.211,0.882-0.211
		c0.368,0,0.69,0.074,0.966,0.223s0.502,0.35,0.678,0.605s0.305,0.555,0.385,0.895s0.111,0.707,0.096,1.098
		C119.646,36.975,119.592,37.32,119.484,37.621z"/>
	<path d="M124.099,38.623l-1.992-5.34h-0.804l2.412,6.254c-0.072,0.137-0.137,0.301-0.192,0.498
		c-0.056,0.195-0.126,0.383-0.21,0.562s-0.19,0.334-0.318,0.461c-0.128,0.129-0.292,0.191-0.492,0.191
		c-0.104,0-0.205-0.008-0.306-0.023s-0.198-0.031-0.294-0.049v0.686c0.096,0.023,0.202,0.043,0.318,0.059
		c0.115,0.016,0.238,0.025,0.365,0.025c0.248,0,0.463-0.059,0.643-0.174c0.18-0.117,0.344-0.285,0.492-0.506
		c0.147-0.219,0.287-0.484,0.42-0.797c0.132-0.312,0.27-0.664,0.414-1.057l2.316-6.131h-0.781L124.099,38.623z"/>
	<path d="M135.066,35.73h2.916c-0.008,0.328-0.038,0.641-0.09,0.936c-0.053,0.297-0.146,0.58-0.282,0.852
		c-0.144,0.281-0.315,0.518-0.517,0.709c-0.199,0.191-0.416,0.348-0.647,0.469c-0.231,0.119-0.472,0.205-0.72,0.258
		c-0.248,0.051-0.488,0.078-0.721,0.078c-0.496,0-0.938-0.098-1.326-0.289c-0.387-0.191-0.715-0.451-0.983-0.779
		s-0.472-0.709-0.612-1.141c-0.14-0.432-0.209-0.889-0.209-1.367c0-0.609,0.061-1.166,0.186-1.674
		c0.123-0.508,0.318-0.945,0.582-1.309s0.6-0.646,1.008-0.846c0.408-0.201,0.896-0.301,1.464-0.301c0.319,0,0.628,0.047,0.925,0.139
		c0.295,0.092,0.563,0.225,0.803,0.396c0.24,0.172,0.446,0.385,0.619,0.641c0.172,0.256,0.293,0.545,0.365,0.865h0.84
		c-0.096-0.465-0.252-0.867-0.468-1.207s-0.481-0.623-0.798-0.852s-0.672-0.398-1.068-0.51c-0.396-0.111-0.822-0.168-1.277-0.168
		c-0.68,0-1.271,0.115-1.771,0.348s-0.916,0.551-1.248,0.953c-0.332,0.404-0.577,0.881-0.737,1.43c-0.16,0.547-0.24,1.137-0.24,1.77
		c0,0.768,0.094,1.439,0.281,2.016c0.188,0.576,0.451,1.055,0.787,1.434c0.336,0.381,0.735,0.666,1.199,0.859
		c0.464,0.191,0.969,0.287,1.512,0.287c0.424,0,0.805-0.041,1.141-0.119c0.336-0.08,0.632-0.195,0.888-0.344
		c0.256-0.146,0.481-0.326,0.679-0.539c0.195-0.213,0.369-0.445,0.521-0.701v1.475h0.695v-4.463h-3.695V35.73z"/>
	<path d="M145.17,33.996c-0.488-0.588-1.16-0.881-2.016-0.881c-0.448,0-0.848,0.086-1.2,0.258
		s-0.649,0.408-0.894,0.707c-0.244,0.301-0.432,0.65-0.564,1.051c-0.132,0.4-0.197,0.828-0.197,1.283
		c0,0.457,0.055,0.883,0.168,1.279c0.111,0.395,0.283,0.738,0.516,1.031s0.527,0.521,0.888,0.689s0.788,0.252,1.284,0.252
		c0.393,0,0.736-0.051,1.032-0.156c0.296-0.104,0.552-0.25,0.768-0.438s0.396-0.408,0.54-0.66s0.26-0.525,0.348-0.822h-0.804
		c-0.112,0.457-0.336,0.809-0.672,1.057s-0.739,0.371-1.212,0.371c-0.344,0-0.648-0.064-0.912-0.197
		c-0.264-0.131-0.482-0.309-0.654-0.527c-0.172-0.221-0.302-0.48-0.39-0.781c-0.088-0.299-0.132-0.617-0.132-0.953h4.824
		C145.898,35.439,145.658,34.584,145.17,33.996z M141.066,35.959c0.031-0.297,0.1-0.576,0.204-0.84
		c0.104-0.264,0.241-0.496,0.413-0.697c0.173-0.199,0.381-0.359,0.625-0.479c0.244-0.121,0.525-0.182,0.846-0.182
		s0.604,0.059,0.852,0.176c0.248,0.115,0.455,0.271,0.619,0.467c0.163,0.197,0.287,0.428,0.371,0.695
		c0.084,0.27,0.126,0.555,0.126,0.859H141.066z"/>
	<path d="M151.938,34.068c-0.239-0.291-0.54-0.523-0.899-0.695c-0.36-0.172-0.785-0.258-1.272-0.258
		c-0.479,0-0.899,0.086-1.26,0.258s-0.66,0.406-0.9,0.701c-0.239,0.297-0.42,0.643-0.54,1.039c-0.119,0.395-0.18,0.82-0.18,1.277
		c0,0.545,0.076,1.02,0.229,1.428c0.151,0.408,0.357,0.748,0.617,1.02c0.26,0.273,0.564,0.477,0.912,0.613
		c0.348,0.135,0.723,0.207,1.122,0.215c0.433,0,0.826-0.078,1.183-0.234c0.355-0.154,0.66-0.377,0.912-0.666
		c0.252-0.287,0.445-0.631,0.582-1.031c0.135-0.4,0.203-0.848,0.203-1.344c0-0.457-0.059-0.885-0.174-1.283
		C152.356,34.707,152.179,34.361,151.938,34.068z M151.759,37.363c-0.08,0.311-0.204,0.592-0.372,0.84s-0.387,0.445-0.654,0.594
		s-0.59,0.221-0.966,0.221c-0.345,0-0.647-0.062-0.912-0.191c-0.264-0.127-0.483-0.307-0.659-0.539
		c-0.177-0.232-0.311-0.51-0.402-0.834s-0.139-0.678-0.139-1.062c0-0.336,0.041-0.662,0.121-0.979
		c0.079-0.316,0.203-0.596,0.371-0.84s0.387-0.439,0.654-0.588s0.59-0.223,0.966-0.223c0.384,0,0.708,0.068,0.972,0.205
		s0.48,0.322,0.648,0.559c0.168,0.234,0.292,0.514,0.372,0.834c0.079,0.318,0.12,0.664,0.12,1.031
		C151.879,36.727,151.838,37.051,151.759,37.363z"/>
	<path d="M157.519,36.385c-0.296-0.133-0.616-0.234-0.96-0.307s-0.664-0.154-0.96-0.246s-0.542-0.211-0.738-0.359
		s-0.294-0.361-0.294-0.643c0-0.32,0.12-0.578,0.36-0.773c0.239-0.195,0.588-0.295,1.044-0.295s0.834,0.1,1.134,0.295
		s0.481,0.533,0.546,1.014h0.732c-0.088-0.703-0.342-1.205-0.762-1.506s-0.967-0.449-1.639-0.449c-0.695,0-1.234,0.166-1.613,0.498
		c-0.381,0.332-0.57,0.758-0.57,1.277c0,0.408,0.098,0.725,0.294,0.947c0.196,0.225,0.442,0.396,0.737,0.518
		c0.297,0.119,0.616,0.209,0.961,0.27c0.344,0.059,0.664,0.131,0.959,0.215c0.297,0.084,0.543,0.201,0.738,0.35
		c0.196,0.146,0.295,0.373,0.295,0.678c0,0.152-0.033,0.295-0.097,0.432s-0.158,0.258-0.282,0.365
		c-0.124,0.109-0.281,0.195-0.474,0.258c-0.192,0.064-0.42,0.096-0.685,0.096c-0.543,0-0.961-0.109-1.254-0.328
		c-0.292-0.221-0.494-0.6-0.605-1.135h-0.732c0.016,0.297,0.08,0.572,0.192,0.828s0.268,0.48,0.468,0.672s0.441,0.342,0.727,0.449
		c0.283,0.109,0.609,0.162,0.978,0.162s0.706-0.037,1.015-0.113c0.307-0.076,0.573-0.189,0.797-0.342
		c0.225-0.152,0.4-0.342,0.528-0.57s0.192-0.49,0.192-0.785c0-0.4-0.098-0.713-0.295-0.938
		C158.061,36.695,157.814,36.516,157.519,36.385z"/>
	<rect x="160.039" y="30.859" width="0.791" height="1.066"/>
	<rect x="160.074" y="33.283" width="0.721" height="6.215"/>
	<path d="M167.568,38.965c-0.101-0.076-0.15-0.254-0.15-0.535v-3.383c0-0.359-0.059-0.664-0.174-0.912
		c-0.116-0.248-0.275-0.445-0.48-0.594c-0.203-0.148-0.443-0.256-0.72-0.324s-0.569-0.102-0.882-0.102
		c-0.336,0-0.654,0.037-0.954,0.113s-0.563,0.195-0.792,0.359s-0.414,0.377-0.559,0.637c-0.143,0.26-0.228,0.574-0.252,0.941h0.732
		c0.032-0.271,0.098-0.498,0.198-0.678s0.228-0.324,0.384-0.432s0.338-0.184,0.547-0.229c0.207-0.043,0.436-0.066,0.684-0.066
		c0.56,0,0.957,0.119,1.193,0.355s0.354,0.537,0.354,0.906c0,0.111-0.015,0.232-0.042,0.365c-0.028,0.133-0.102,0.227-0.223,0.281
		c-0.119,0.057-0.273,0.102-0.461,0.133c-0.188,0.031-0.351,0.057-0.486,0.072l-0.996,0.131c-1.448,0.193-2.172,0.816-2.172,1.873
		c0,0.305,0.056,0.566,0.168,0.785c0.111,0.221,0.264,0.406,0.455,0.559c0.193,0.152,0.414,0.264,0.666,0.336
		c0.253,0.072,0.515,0.107,0.787,0.107c0.455,0,0.879-0.088,1.271-0.264s0.74-0.432,1.044-0.768c0,0.111,0.008,0.219,0.024,0.318
		c0.016,0.1,0.046,0.191,0.09,0.275s0.102,0.156,0.174,0.217c0.072,0.059,0.168,0.098,0.288,0.113
		c0.104,0.023,0.212,0.035,0.324,0.035c0.104,0,0.21-0.016,0.317-0.047c0.108-0.033,0.19-0.057,0.246-0.072V38.91
		C167.87,39.023,167.668,39.041,167.568,38.965z M166.698,37.207c0,0.311-0.064,0.582-0.192,0.809
		c-0.128,0.229-0.298,0.416-0.51,0.564s-0.454,0.258-0.727,0.33c-0.271,0.072-0.551,0.107-0.84,0.107
		c-0.168,0-0.334-0.021-0.498-0.064c-0.164-0.045-0.308-0.113-0.432-0.205s-0.225-0.207-0.3-0.348
		c-0.076-0.141-0.114-0.307-0.114-0.498c0-0.424,0.154-0.74,0.463-0.947c0.307-0.209,0.737-0.332,1.289-0.373
		c0.312-0.023,0.624-0.055,0.936-0.096c0.312-0.039,0.621-0.123,0.925-0.252V37.207z"/>
	<path d="M174.942,35.094c-0.104-0.398-0.271-0.744-0.498-1.037s-0.519-0.521-0.87-0.689s-0.779-0.252-1.283-0.252
		c-0.201,0-0.404,0.027-0.612,0.084c-0.208,0.055-0.41,0.135-0.606,0.24c-0.195,0.104-0.376,0.234-0.539,0.395
		c-0.164,0.16-0.299,0.34-0.402,0.541h-0.024v-1.092h-0.72v8.664h0.72v-3.445c0.231,0.385,0.55,0.674,0.954,0.871
		c0.404,0.195,0.826,0.293,1.266,0.293c0.473,0,0.883-0.09,1.23-0.27s0.636-0.42,0.863-0.721c0.229-0.299,0.398-0.648,0.511-1.049
		s0.168-0.816,0.168-1.248C175.099,35.922,175.047,35.494,174.942,35.094z M174.234,37.297c-0.08,0.34-0.208,0.639-0.384,0.895
		c-0.177,0.256-0.402,0.457-0.679,0.605c-0.275,0.148-0.598,0.221-0.965,0.221c-0.328,0-0.623-0.068-0.883-0.209
		s-0.48-0.328-0.66-0.564s-0.317-0.512-0.414-0.828c-0.096-0.314-0.144-0.648-0.144-1.002c0-0.375,0.046-0.725,0.138-1.049
		s0.227-0.605,0.402-0.84c0.176-0.236,0.396-0.422,0.66-0.559s0.564-0.205,0.9-0.205c0.303,0,0.584,0.055,0.84,0.162
		c0.256,0.109,0.479,0.268,0.672,0.475c0.191,0.209,0.342,0.463,0.449,0.762c0.108,0.301,0.162,0.646,0.162,1.039
		C174.346,36.59,174.314,36.957,174.234,37.297z"/>
</g>
</svg>
