<?xml version="1.0" encoding="utf-8"?>
<!-- Generator: Adobe Illustrator 16.0.0, SVG Export Plug-In . SVG Version: 6.00 Build 0)  -->
<!DOCTYPE svg PUBLIC "-//W3C//DTD SVG 1.1//EN" "http://www.w3.org/Graphics/SVG/1.1/DTD/svg11.dtd">
<svg version="1.1" id="Layer_1" xmlns="http://www.w3.org/2000/svg" xmlns:xlink="http://www.w3.org/1999/xlink" x="0px" y="0px" width="38px" height="38px" viewBox="0 0 38 38" enable-background="new 0 0 38 38" xml:space="preserve">
<g>
	<g>
		<path d="M35.516,37.859H2.483C1.114,37.859,0,36.74,0,35.367v-4.455c0-1.023,0.641-1.957,1.592-2.326
			c9.537-3.658,11.451-5.246,11.829-5.762v-1.014c-1.099-1.238-1.961-2.82-2.519-4.622c-0.727-0.643-1.209-1.534-1.344-2.508
			c-0.136-0.986,0.084-1.961,0.623-2.788V8.3c0-5.108,3.297-8.159,8.818-8.159c5.603,0,8.814,2.974,8.814,8.159v3.591
			c0.541,0.827,0.762,1.803,0.625,2.788c-0.135,0.977-0.617,1.869-1.346,2.512c-0.557,1.801-1.42,3.381-2.516,4.618v1.023
			c0.354,0.484,2.229,2.07,11.822,5.75c0.955,0.361,1.6,1.301,1.6,2.328v4.453C38,36.74,36.885,37.859,35.516,37.859z M19,2.589
			c-4.167,0-6.371,1.975-6.371,5.711v3.988c0,0.283-0.098,0.557-0.277,0.776c-0.301,0.367-0.432,0.821-0.367,1.28
			c0.062,0.455,0.311,0.863,0.682,1.121c0.232,0.164,0.4,0.401,0.479,0.674c0.492,1.757,1.312,3.252,2.371,4.327
			c0.226,0.229,0.353,0.539,0.353,0.859v1.781c0,0.123-0.019,0.246-0.056,0.365c-0.422,1.346-2.33,3.172-13.34,7.395l-0.024,4.496
			l33.067,0.045c0.018,0,0.035-0.02,0.035-0.045V30.91c-11.031-4.264-12.941-6.092-13.365-7.436
			c-0.037-0.119-0.057-0.244-0.057-0.367v-1.781c0-0.32,0.127-0.631,0.354-0.859c1.059-1.072,1.877-2.569,2.371-4.325
			c0.076-0.274,0.246-0.512,0.479-0.674c0.371-0.258,0.621-0.668,0.684-1.125c0.064-0.457-0.066-0.912-0.369-1.28
			c-0.18-0.22-0.277-0.492-0.277-0.776V8.298C25.367,4.511,23.227,2.589,19,2.589z"/>
	</g>
</g>
</svg>
