<?xml version="1.0" encoding="utf-8"?>
<!-- Generator: Adobe Illustrator 16.0.0, SVG Export Plug-In . SVG Version: 6.00 Build 0)  -->
<!DOCTYPE svg PUBLIC "-//W3C//DTD SVG 1.1//EN" "http://www.w3.org/Graphics/SVG/1.1/DTD/svg11.dtd">
<svg version="1.1" id="Layer_1" xmlns="http://www.w3.org/2000/svg" xmlns:xlink="http://www.w3.org/1999/xlink" x="0px" y="0px" width="38px" height="38px" viewBox="181 181 38 38" enable-background="new 181 181 38 38" xml:space="preserve">
<g>
	<g>
		<path d="M214.254,219h-28.461c-0.684,0-1.237-0.58-1.237-1.297v-22.758c0-0.716,0.554-1.297,1.237-1.297
			c0.683,0,1.237,0.581,1.237,1.297v21.461h25.986v-21.461c0-0.716,0.555-1.297,1.238-1.297s1.236,0.581,1.236,1.297v22.758
			C215.49,218.42,214.938,219,214.254,219z"/>
	</g>
	<g>
		<path d="M196.928,209.955h-4.898c-0.683,0-1.237-0.581-1.237-1.297v-5.17c0-0.716,0.554-1.296,1.237-1.296h4.898
			c0.684,0,1.237,0.58,1.237,1.296v5.17C198.166,209.374,197.612,209.955,196.928,209.955z M193.267,207.361h2.425v-2.576h-2.425
			V207.361z"/>
	</g>
	<g>
		<path d="M207.948,219h-7.259c-0.684,0-1.237-0.58-1.237-1.297v-14.215c0-0.716,0.554-1.296,1.237-1.296h7.259
			c0.685,0,1.237,0.58,1.237,1.296v14.215C209.186,218.42,208.633,219,207.948,219z M201.927,216.406h4.785v-11.621h-4.785V216.406z
			"/>
	</g>
	<g>
		<path d="M217.762,199.355c-0.281,0-0.564-0.101-0.799-0.307L200,183.995l-16.963,15.053
			c-0.52,0.464-1.301,0.396-1.743-0.152c-0.442-0.546-0.377-1.364,0.145-1.827l17.762-15.763c0.461-0.409,1.137-0.409,1.599,0
			l17.764,15.763c0.521,0.463,0.586,1.281,0.146,1.827C218.463,199.2,218.113,199.355,217.762,199.355z"/>
	</g>
</g>
</svg>
