<?xml version="1.0" encoding="utf-8"?>
<!-- Generator: Adobe Illustrator 16.0.0, SVG Export Plug-In . SVG Version: 6.00 Build 0)  -->
<!DOCTYPE svg PUBLIC "-//W3C//DTD SVG 1.1//EN" "http://www.w3.org/Graphics/SVG/1.1/DTD/svg11.dtd">
<svg version="1.1" id="Layer_1" xmlns:sketch="http://www.bohemiancoding.com/sketch/ns" xmlns="http://www.w3.org/2000/svg" xmlns:xlink="http://www.w3.org/1999/xlink" x="0px" y="0px" width="49px" height="49px" viewBox="0 0 49 49" enable-background="new 0 0 49 49" xml:space="preserve">
<title>thin-0394_business_handshake_deal_contract_sign</title>
<desc>Created with Sketch.</desc>
<g id="Page-1">
	<g id="Picons" transform="translate(-226.000000, -2373.000000)">
		<g id="thin-0393_hand_papers_payment" transform="translate(226.000000, 2368.000000)">
			<g id="Group" transform="translate(0.000000, 6.000000)">
				<path id="Shape" stroke="#4C87FF" stroke-width="2.5" d="M46.539,10.9H9.597l6.045-5.93l24.913,0.006L46.539,10.9z"/>
				<g transform="translate(0.000000, 28.000000)">
					<path id="Shape_1_" stroke="#4C87FF" stroke-width="2.5" d="M9.134,7.33c5.489-0.892,11.053-0.545,12.807-0.031
						l11.061,3.246c3.154,0.926,1.758,5.715-1.396,4.788l-11.621-3.41"/>
					<path id="Shape_2_" stroke="#4C87FF" stroke-width="2.5" d="M34.581,11.939l8.618-3.928
						c3.127-1.426,5.095,3.156,2.134,4.506l-11.702,5.335c-2,0.912-9.946,1.573-18.765-2.368c-1.516-0.678-4.09,0.202-5.732,0.623"/>
					<rect id="Rectangle-path" x="1.097" y="5.006" stroke="#4C87FF" stroke-width="2.5" width="8" height="14"/>
				</g>
				<path id="Shape_3_" stroke="#4C87FF" stroke-width="2.5" d="M13.633,14.941L9.597,18.9h36.942l-4-3.959"/>
				<path id="Shape_4_" stroke="#4C87FF" stroke-width="2.5" d="M13.633,22.941l-4.037,3.96h36.942l-4-3.96"/>
			</g>
			<rect id="Rectangle-path_1_" y="6" width="48" height="48">
			</rect>
		</g>
	</g>
</g>
</svg>
