<?xml version="1.0" encoding="utf-8"?>
<!-- Generator: Adobe Illustrator 16.0.0, SVG Export Plug-In . SVG Version: 6.00 Build 0)  -->
<!DOCTYPE svg PUBLIC "-//W3C//DTD SVG 1.1//EN" "http://www.w3.org/Graphics/SVG/1.1/DTD/svg11.dtd">
<svg version="1.1" id="Layer_1" xmlns="http://www.w3.org/2000/svg" xmlns:xlink="http://www.w3.org/1999/xlink" x="0px" y="0px" width="34.667px" height="34.75px" viewBox="0 0 34.667 34.75" enable-background="new 0 0 34.667 34.75" xml:space="preserve">
<g>
	<path d="M9.405,14.507h15.774c0.396,0,0.716-0.321,0.716-0.717V0.883c0-0.396-0.32-0.717-0.716-0.717H9.405
		c-0.397,0-0.717,0.321-0.717,0.717V13.79C8.688,14.186,9.008,14.507,9.405,14.507z M10.122,1.601h14.341v11.472H10.122V1.601z"/>
	<path d="M7.971,27.413h-7.17c-0.396,0-0.717,0.321-0.717,0.717v5.736c0,0.396,0.321,0.717,0.717,0.717h7.17
		c0.396,0,0.717-0.321,0.717-0.717V28.13C8.688,27.734,8.367,27.413,7.971,27.413z M7.254,33.148H1.518v-4.302h5.736V33.148z"/>
	<path d="M20.877,27.413h-7.17c-0.396,0-0.718,0.321-0.718,0.717v5.736c0,0.396,0.321,0.717,0.718,0.717h7.17
		c0.396,0,0.717-0.321,0.717-0.717V28.13C21.594,27.734,21.273,27.413,20.877,27.413z M20.16,33.148h-5.736v-4.302h5.736V33.148z"/>
	<path d="M33.784,27.413h-7.171c-0.396,0-0.718,0.321-0.718,0.717v5.736c0,0.396,0.321,0.717,0.718,0.717h7.171
		c0.396,0,0.716-0.321,0.716-0.717V28.13C34.5,27.734,34.18,27.413,33.784,27.413z M33.066,33.148H27.33v-4.302h5.736V33.148z"/>
	<path d="M5.103,25.262c0.396,0,0.717-0.321,0.717-0.718v-2.868h10.819v2.868c0,0.397,0.321,0.718,0.717,0.718
		c0.396,0,0.718-0.321,0.718-0.718v-2.868h10.69v2.868c0,0.397,0.32,0.718,0.717,0.718c0.397,0,0.717-0.321,0.717-0.718V20.96
		c0-0.396-0.32-0.717-0.717-0.717H18.074v-2.868c0-0.396-0.321-0.716-0.718-0.716c-0.396,0-0.717,0.321-0.717,0.716v2.868H5.103
		c-0.397,0-0.717,0.321-0.717,0.717v3.584C4.386,24.941,4.706,25.262,5.103,25.262z"/>
</g>
</svg>
