<?xml version="1.0" encoding="utf-8"?>
<!-- Generator: Adobe Illustrator 16.0.0, SVG Export Plug-In . SVG Version: 6.00 Build 0)  -->
<!DOCTYPE svg PUBLIC "-//W3C//DTD SVG 1.1//EN" "http://www.w3.org/Graphics/SVG/1.1/DTD/svg11.dtd">
<svg version="1.1" id="Layer_1" xmlns="http://www.w3.org/2000/svg" xmlns:xlink="http://www.w3.org/1999/xlink" x="0px" y="0px" width="38px" height="38px" viewBox="181 181 38 38" enable-background="new 181 181 38 38" xml:space="preserve">
<g>
	<g>
		<path d="M216.516,219h-33.033c-1.369,0-2.483-1.118-2.483-2.492v-4.455c0-1.023,0.64-1.958,1.592-2.327
			c9.537-3.657,11.451-5.245,11.829-5.761v-1.013c-1.098-1.239-1.961-2.82-2.519-4.622c-0.726-0.642-1.208-1.534-1.343-2.508
			c-0.136-0.986,0.084-1.96,0.623-2.788v-3.593c0-5.108,3.296-8.159,8.818-8.159c5.603,0,8.815,2.974,8.815,8.159v3.591
			c0.54,0.828,0.761,1.803,0.624,2.789c-0.135,0.976-0.617,1.869-1.345,2.511c-0.558,1.801-1.42,3.381-2.517,4.618v1.022
			c0.354,0.486,2.23,2.071,11.824,5.75c0.954,0.363,1.598,1.301,1.598,2.329v4.454C219,217.882,217.885,219,216.516,219z
			 M200,183.731c-4.167,0-6.371,1.974-6.371,5.71v3.989c0,0.283-0.098,0.557-0.277,0.776c-0.301,0.367-0.432,0.822-0.368,1.28
			c0.063,0.456,0.311,0.864,0.682,1.122c0.232,0.163,0.401,0.401,0.478,0.673c0.493,1.757,1.313,3.252,2.372,4.327
			c0.225,0.229,0.352,0.538,0.352,0.859v1.781c0,0.124-0.019,0.247-0.056,0.365c-0.422,1.346-2.33,3.173-13.34,7.395l-0.024,4.497
			l33.068,0.045c0.017,0,0.035-0.02,0.035-0.045v-4.454c-11.031-4.264-12.941-6.091-13.365-7.436
			c-0.037-0.119-0.057-0.243-0.057-0.367v-1.781c0-0.321,0.127-0.63,0.354-0.859c1.057-1.072,1.876-2.569,2.37-4.325
			c0.077-0.274,0.246-0.511,0.478-0.673c0.372-0.259,0.622-0.668,0.684-1.125c0.064-0.458-0.066-0.913-0.369-1.281
			c-0.179-0.219-0.277-0.492-0.277-0.776v-3.988C206.367,185.653,204.226,183.731,200,183.731z"/>
	</g>
</g>
</svg>
