<?xml version="1.0" encoding="utf-8"?>
<!-- Generator: Adobe Illustrator 16.0.0, SVG Export Plug-In . SVG Version: 6.00 Build 0)  -->
<!DOCTYPE svg PUBLIC "-//W3C//DTD SVG 1.1//EN" "http://www.w3.org/Graphics/SVG/1.1/DTD/svg11.dtd">
<svg version="1.1" id="Layer_1" xmlns="http://www.w3.org/2000/svg" xmlns:xlink="http://www.w3.org/1999/xlink" x="0px" y="0px" width="38px" height="38px" viewBox="181 181 38 38" enable-background="new 181 181 38 38" xml:space="preserve">
<g>
	<g>
		<path d="M208.592,201.809h-9.235c-0.684,0-1.238-0.554-1.238-1.238v-13.917c0-0.685,0.555-1.239,1.238-1.239
			s1.238,0.554,1.238,1.239v12.679h7.997c0.685,0,1.238,0.554,1.238,1.238C209.83,201.255,209.276,201.809,208.592,201.809z"/>
	</g>
	<g>
		<path d="M200,219c-10.477,0-19-8.523-19-19c0-10.476,8.523-18.999,19-18.999c10.477,0,19,8.523,19,18.999
			C219,210.477,210.477,219,200,219z M200,183.477c-9.111,0-16.523,7.412-16.523,16.523s7.413,16.524,16.523,16.524
			s16.524-7.413,16.524-16.524S209.11,183.477,200,183.477z"/>
	</g>
</g>
</svg>
