<?xml version="1.0" encoding="utf-8"?>
<!-- Generator: Adobe Illustrator 16.0.0, SVG Export Plug-In . SVG Version: 6.00 Build 0)  -->
<!DOCTYPE svg PUBLIC "-//W3C//DTD SVG 1.1//EN" "http://www.w3.org/Graphics/SVG/1.1/DTD/svg11.dtd">
<svg version="1.1" id="Layer_1" xmlns="http://www.w3.org/2000/svg" xmlns:xlink="http://www.w3.org/1999/xlink" x="0px" y="0px" width="90px" height="90px" viewBox="0 0 90 90" enable-background="new 0 0 90 90" xml:space="preserve">
<g>
	<g>
		<path d="M45.293,88.108c-24.197,0-43.883-19.677-43.883-43.863c0-24.196,19.686-43.881,43.883-43.881
			c24.19,0,43.87,19.685,43.87,43.881C89.163,68.432,69.483,88.108,45.293,88.108z M45.293,5.146
			c-21.561,0-39.101,17.539-39.101,39.099c0,21.55,17.541,39.082,39.101,39.082c21.553,0,39.087-17.532,39.087-39.082
			C84.381,22.686,66.846,5.146,45.293,5.146z"/>
	</g>
	<g>
		<path d="M69.102,46.63h-47.63c-1.321,0-2.391-1.07-2.391-2.391s1.07-2.391,2.391-2.391h47.63
			c1.321,0,2.391,1.07,2.391,2.391S70.422,46.63,69.102,46.63z"/>
	</g>
</g>
</svg>
