<?xml version="1.0" encoding="utf-8"?>
<!-- Generator: Adobe Illustrator 16.0.0, SVG Export Plug-In . SVG Version: 6.00 Build 0)  -->
<!DOCTYPE svg PUBLIC "-//W3C//DTD SVG 1.1//EN" "http://www.w3.org/Graphics/SVG/1.1/DTD/svg11.dtd">
<svg version="1.1" id="Layer_1" xmlns="http://www.w3.org/2000/svg" xmlns:xlink="http://www.w3.org/1999/xlink" x="0px" y="0px" width="38px" height="38px" viewBox="181 181 38 38" enable-background="new 181 181 38 38" xml:space="preserve">
<g>
	<g>
		<path d="M205.85,219h-22.756c-1.155,0-2.094-0.962-2.094-2.146v-3.237c0-0.887,0.52-1.672,1.324-1.998
			c6.152-2.489,7.591-3.63,7.922-3.993v-0.515c-0.733-0.9-1.314-2.027-1.699-3.302c-0.513-0.508-0.854-1.188-0.956-1.923
			c-0.105-0.763,0.043-1.519,0.422-2.172v-2.529c0-3.864,2.475-6.265,6.458-6.265c4.042,0,6.456,2.342,6.456,6.265v2.527
			c0.381,0.655,0.53,1.413,0.424,2.179c-0.104,0.734-0.444,1.413-0.957,1.919c-0.386,1.274-0.965,2.401-1.697,3.301v0.545
			c0.264,0.277,1.619,1.414,7.921,3.963c0.806,0.327,1.324,1.112,1.324,1.998v3.237C207.943,218.038,207.004,219,205.85,219z
			 M183.452,216.548h22.039v-2.74c-7.923-3.22-8.903-4.532-9.195-5.511c-0.034-0.113-0.052-0.231-0.052-0.351v-1.295
			c0-0.312,0.118-0.609,0.331-0.837c0.689-0.738,1.228-1.778,1.556-3.007c0.072-0.271,0.234-0.508,0.459-0.673
			c0.177-0.13,0.298-0.343,0.332-0.585c0.021-0.148,0.024-0.44-0.189-0.716c-0.167-0.215-0.257-0.48-0.257-0.752v-2.897
			c0-2.565-1.31-3.812-4.004-3.812c-2.658,0-4.005,1.282-4.005,3.812v2.899c0,0.272-0.09,0.537-0.257,0.753
			c-0.212,0.272-0.209,0.562-0.188,0.711c0.034,0.243,0.155,0.457,0.334,0.589c0.224,0.166,0.385,0.401,0.457,0.671
			c0.328,1.228,0.867,2.267,1.557,3.007c0.212,0.228,0.33,0.527,0.33,0.837v1.295c0,0.119-0.017,0.235-0.051,0.35
			c-0.291,0.977-1.268,2.289-9.195,5.512V216.548L183.452,216.548z"/>
	</g>
	<g>
		<path d="M217.088,219h-6.668c-0.678,0-1.226-0.548-1.226-1.226s0.548-1.227,1.226-1.227h6.127v-1.547
			c-6.209-2.422-6.975-3.403-7.245-4.27c-0.036-0.118-0.056-0.241-0.056-0.366v-0.976c0-0.321,0.125-0.629,0.35-0.857
			c0.51-0.521,0.908-1.259,1.152-2.132c0.077-0.273,0.244-0.511,0.477-0.673c0.076-0.053,0.127-0.139,0.14-0.237
			c0.015-0.1-0.013-0.192-0.082-0.276c-0.179-0.22-0.274-0.492-0.274-0.774v-2.185c0-1.104-0.301-2.573-2.904-2.573
			c-1.955,0-2.905,0.842-2.905,2.573v2.185c0,0.281-0.097,0.554-0.274,0.772c-0.068,0.084-0.096,0.178-0.082,0.279
			c0.014,0.097,0.064,0.184,0.139,0.236c0.233,0.162,0.402,0.401,0.477,0.674c0.244,0.872,0.643,1.608,1.152,2.129
			c0.475,0.484,0.467,1.262-0.016,1.734c-0.485,0.475-1.262,0.466-1.734-0.017c-0.723-0.736-1.289-1.705-1.652-2.821
			c-0.427-0.428-0.709-0.989-0.795-1.598c-0.086-0.618,0.033-1.229,0.333-1.762v-1.812c0-3.1,2.053-5.025,5.358-5.025
			c3.354,0,5.356,1.879,5.356,5.025v1.812c0.302,0.533,0.419,1.143,0.334,1.761c-0.084,0.609-0.368,1.172-0.796,1.601
			c-0.303,0.927-0.745,1.753-1.3,2.429v0.121c0.362,0.312,1.646,1.157,6.076,2.869c0.733,0.285,1.226,1.006,1.226,1.793v2.44
			C219,218.139,218.143,219,217.088,219z"/>
	</g>
</g>
</svg>
