<?xml version="1.0" encoding="utf-8"?>
<!-- Generator: Adobe Illustrator 16.0.4, SVG Export Plug-In . SVG Version: 6.00 Build 0)  -->
<!DOCTYPE svg PUBLIC "-//W3C//DTD SVG 1.1//EN" "http://www.w3.org/Graphics/SVG/1.1/DTD/svg11.dtd">
<svg version="1.1" id="Layer_1" xmlns="http://www.w3.org/2000/svg" xmlns:xlink="http://www.w3.org/1999/xlink" x="0px" y="0px" width="175px" height="50px" viewBox="0 0 175 50" enable-background="new 0 0 175 50" xml:space="preserve">
<title>tributos</title>
<desc>Created with Sketch.</desc>
<g id="Clip-6">
</g>
<g id="Clip-12">
</g>
<g>
	<path d="M16.219,39.238c-4.38-0.963-5.194,1.773-4.589,3.305c2.996,1.566,6.401,2.459,10.018,2.459
		c8.212,0,15.355-4.574,19.023-11.311C38.158,35,26.087,41.41,16.219,39.238z"/>
	<path d="M34.898,10.822C31.524,10.712,21.174,0.8,10.635,7.088c0.608-0.318,3.517-1.409,9.189,2.981
		c1.067,0.827,16.268,16.321,23.071,17.416c0.26-1.338,0.399-2.719,0.399-4.132c0-5.802-2.287-11.067-6.003-14.954
		C37.456,9.174,37.533,10.909,34.898,10.822z"/>
	<path d="M39.798,31.217c0,0-6.758-1.45-25.327-15.715c-0.595-0.456-7.248-5.992-13.8,2.488
		C0.234,19.706,0,21.502,0,23.354c0,1.526,0.16,3.015,0.461,4.453C3.587,23.468,22.283,38.561,39.798,31.217z"/>
	<polygon points="75.846,8.036 63.633,8.036 63.633,9.83 68.709,9.83 68.709,23.098 70.77,23.098 70.77,9.83 
		75.846,9.83 	"/>
	<path d="M77.831,16.782c0-0.779,0.25-1.468,0.749-2.066c0.499-0.598,1.213-0.896,2.143-0.896
		c0.109,0,0.21,0.003,0.302,0.01c0.093,0.007,0.193,0.021,0.303,0.041v-1.948c-0.198-0.021-0.338-0.034-0.42-0.041
		s-0.14-0.011-0.174-0.011c-0.731,0-1.377,0.266-1.938,0.795c-0.561,0.53-0.913,0.979-1.056,1.349v-1.897h-1.753v10.982h1.846
		V16.782z"/>
	<rect x="82.171" y="12.167" width="1.876" height="10.931"/>
	<rect x="82.171" y="8.036" width="1.876" height="2.092"/>
	<path d="M87.629,21.694c0.391,0.526,0.758,0.909,1.102,1.148c0.576,0.402,1.283,0.604,2.12,0.604
		c1.496,0,2.666-0.574,3.511-1.723c0.844-1.148,1.266-2.591,1.266-4.327c0-1.832-0.428-3.218-1.281-4.158
		c-0.855-0.939-1.969-1.41-3.341-1.41c-0.659,0-1.27,0.139-1.833,0.416c-0.562,0.276-1.046,0.679-1.451,1.205V7.984h-1.794v15.114
		h1.702V21.694z M88.57,14.413c0.635-0.621,1.373-0.933,2.217-0.933c0.967,0,1.699,0.38,2.197,1.138
		c0.497,0.76,0.746,1.717,0.746,2.871c0,1.3-0.249,2.346-0.746,3.139c-0.498,0.793-1.247,1.189-2.248,1.189
		c-1.331,0-2.24-0.605-2.727-1.815c-0.261-0.643-0.391-1.479-0.391-2.513C87.619,16.061,87.936,15.036,88.57,14.413z"/>
	<path d="M103.926,23.098h1.742V12.116h-1.846v5.395c0,1.073-0.123,1.917-0.369,2.532
		c-0.453,1.148-1.305,1.723-2.557,1.723c-0.872,0-1.468-0.328-1.787-0.984c-0.174-0.355-0.26-0.813-0.26-1.374v-7.291h-1.887v7.465
		c0,0.938,0.15,1.686,0.453,2.246c0.557,1.046,1.603,1.568,3.139,1.568c0.986,0,1.824-0.287,2.516-0.861
		c0.349-0.287,0.641-0.639,0.875-1.056L103.926,23.098z"/>
	<path d="M110.162,9.05h-1.865v3.065h-1.487v1.508h1.487v7.27c0,0.705,0.153,1.277,0.461,1.718
		c0.308,0.441,0.893,0.661,1.754,0.661c0.266,0,0.514-0.014,0.742-0.041c0.229-0.027,0.45-0.071,0.662-0.133v-1.467
		c-0.137,0.019-0.256,0.03-0.359,0.035c-0.102,0.004-0.197,0.006-0.287,0.006c-0.334,0-0.574-0.037-0.717-0.112
		c-0.26-0.13-0.391-0.386-0.391-0.769v-7.168h1.754v-1.508h-1.754V9.05z"/>
	<path d="M120.963,13.212c-0.971-0.942-2.158-1.414-3.563-1.414c-1.568,0-2.817,0.547-3.747,1.64
		s-1.395,2.561-1.395,4.405c0,1.721,0.44,3.092,1.323,4.113c0.882,1.021,2.073,1.531,3.573,1.531c1.799,0,3.127-0.577,3.981-1.731
		c0.855-1.154,1.283-2.616,1.283-4.385C122.419,15.542,121.934,14.155,120.963,13.212z M119.816,20.511
		c-0.449,0.925-1.279,1.388-2.488,1.388c-1.102,0-1.906-0.39-2.414-1.168c-0.506-0.778-0.76-1.751-0.76-2.919
		c0-1.215,0.254-2.253,0.76-3.113c0.508-0.86,1.318-1.29,2.434-1.29c1.258,0,2.143,0.505,2.656,1.516
		c0.325,0.642,0.487,1.475,0.487,2.499C120.491,18.556,120.267,19.585,119.816,20.511z"/>
	<path d="M132.43,19.919c0-1.012-0.359-1.753-1.077-2.226c-0.46-0.3-1.365-0.611-2.716-0.933l-1.244-0.298
		c-0.543-0.129-0.954-0.279-1.232-0.45c-0.482-0.286-0.725-0.667-0.725-1.144c0-0.437,0.184-0.787,0.551-1.053
		c0.368-0.266,0.908-0.398,1.623-0.398c1.07,0,1.822,0.241,2.256,0.724c0.266,0.341,0.416,0.718,0.451,1.132h1.744
		c0.014-0.71-0.212-1.373-0.676-1.988c-0.742-0.971-1.951-1.457-3.627-1.457c-1.281,0-2.302,0.322-3.061,0.965
		c-0.758,0.643-1.138,1.483-1.138,2.521c0,0.883,0.403,1.573,1.209,2.072c0.451,0.287,1.153,0.547,2.104,0.779l1.49,0.369
		c0.799,0.198,1.334,0.372,1.605,0.522c0.424,0.246,0.635,0.604,0.635,1.077c0,0.622-0.265,1.081-0.795,1.379
		c-0.53,0.297-1.145,0.445-1.842,0.445c-1.172,0-1.996-0.297-2.471-0.892c-0.258-0.328-0.414-0.8-0.471-1.415h-1.773
		c0.049,1.094,0.417,2.012,1.105,2.753c0.689,0.742,1.86,1.112,3.514,1.112c1.537,0,2.681-0.355,3.432-1.066
		C132.054,21.742,132.43,20.897,132.43,19.919z"/>
	<path d="M69.637,31.578c-0.212-0.223-0.5-0.4-0.864-0.527c-0.364-0.129-0.826-0.191-1.386-0.191h-3.156v8.639h0.816
		v-3.816h1.848c0.4,0,0.798-0.035,1.194-0.107s0.75-0.197,1.062-0.377c0.312-0.182,0.566-0.426,0.762-0.738
		c0.196-0.312,0.294-0.709,0.294-1.188c0-0.32-0.042-0.627-0.126-0.92C69.997,32.061,69.849,31.803,69.637,31.578z M69.217,34.105
		c-0.116,0.227-0.28,0.406-0.492,0.539c-0.212,0.133-0.47,0.223-0.774,0.27c-0.304,0.049-0.648,0.072-1.032,0.072h-1.872v-3.432
		h2.112c0.776,0,1.342,0.141,1.698,0.42s0.534,0.691,0.534,1.236C69.391,33.578,69.333,33.877,69.217,34.105z"/>
	<path d="M76.135,34.068c-0.24-0.291-0.54-0.523-0.9-0.695s-0.784-0.258-1.272-0.258c-0.48,0-0.9,0.086-1.26,0.258
		c-0.36,0.172-0.66,0.406-0.9,0.701c-0.24,0.297-0.42,0.643-0.54,1.039c-0.12,0.395-0.18,0.82-0.18,1.277
		c0,0.545,0.076,1.02,0.228,1.428c0.152,0.408,0.358,0.748,0.618,1.02c0.26,0.273,0.564,0.477,0.912,0.613
		c0.348,0.135,0.722,0.207,1.122,0.215c0.432,0,0.826-0.078,1.182-0.234c0.356-0.154,0.66-0.377,0.912-0.666
		c0.252-0.287,0.446-0.631,0.582-1.031c0.136-0.4,0.204-0.848,0.204-1.344c0-0.457-0.058-0.885-0.174-1.283
		C76.553,34.707,76.375,34.361,76.135,34.068z M75.955,37.363c-0.08,0.311-0.204,0.592-0.372,0.84s-0.386,0.445-0.654,0.594
		s-0.59,0.221-0.966,0.221c-0.344,0-0.648-0.062-0.912-0.191c-0.264-0.127-0.484-0.307-0.66-0.539
		c-0.176-0.232-0.31-0.51-0.402-0.834c-0.092-0.324-0.138-0.678-0.138-1.062c0-0.336,0.04-0.662,0.12-0.979
		c0.08-0.316,0.204-0.596,0.372-0.84s0.386-0.439,0.654-0.588c0.268-0.148,0.59-0.223,0.966-0.223c0.384,0,0.708,0.068,0.972,0.205
		c0.264,0.137,0.48,0.322,0.648,0.559c0.168,0.234,0.292,0.514,0.372,0.834c0.08,0.318,0.12,0.664,0.12,1.031
		C76.075,36.727,76.035,37.051,75.955,37.363z"/>
	<polygon points="83.419,38.539 82.051,33.283 81.247,33.283 79.807,38.586 78.199,33.283 77.479,33.283 
		79.375,39.498 80.239,39.498 81.619,34.279 81.643,34.279 82.999,39.498 83.767,39.498 85.783,33.283 85.051,33.283 	"/>
	<path d="M91.375,33.996c-0.488-0.588-1.16-0.881-2.016-0.881c-0.449,0-0.849,0.086-1.201,0.258
		c-0.352,0.172-0.649,0.408-0.894,0.707c-0.244,0.301-0.432,0.65-0.564,1.051c-0.132,0.4-0.198,0.828-0.198,1.283
		c0,0.457,0.056,0.883,0.168,1.279c0.112,0.395,0.284,0.738,0.516,1.031c0.232,0.293,0.528,0.521,0.887,0.689
		c0.361,0.168,0.789,0.252,1.285,0.252c0.392,0,0.735-0.051,1.031-0.156c0.296-0.104,0.553-0.25,0.768-0.438
		c0.217-0.188,0.396-0.408,0.541-0.66c0.144-0.252,0.26-0.525,0.348-0.822h-0.805c-0.111,0.457-0.336,0.809-0.672,1.057
		s-0.739,0.371-1.211,0.371c-0.345,0-0.648-0.064-0.912-0.197c-0.264-0.131-0.482-0.309-0.654-0.527
		c-0.172-0.221-0.302-0.48-0.39-0.781c-0.088-0.299-0.132-0.617-0.132-0.953h4.824C92.103,35.439,91.863,34.584,91.375,33.996z
		 M87.271,35.959c0.032-0.297,0.1-0.576,0.204-0.84c0.104-0.264,0.242-0.496,0.414-0.697c0.172-0.199,0.38-0.359,0.624-0.479
		c0.244-0.121,0.526-0.182,0.847-0.182c0.319,0,0.604,0.059,0.852,0.176c0.248,0.115,0.454,0.271,0.618,0.467
		c0.163,0.197,0.288,0.428,0.372,0.695c0.084,0.27,0.125,0.555,0.125,0.859H87.271z"/>
	<path d="M94.279,34.447h-0.024v-1.164h-0.72v6.215h0.72v-3.047c0-0.344,0.03-0.674,0.09-0.99
		s0.168-0.59,0.324-0.822c0.155-0.232,0.366-0.416,0.63-0.553c0.264-0.135,0.6-0.199,1.008-0.191v-0.779
		c-0.52,0-0.938,0.098-1.254,0.293C94.736,33.605,94.479,33.951,94.279,34.447z"/>
	<path d="M101.826,33.996c-0.488-0.588-1.16-0.881-2.016-0.881c-0.448,0-0.848,0.086-1.2,0.258
		s-0.649,0.408-0.894,0.707c-0.244,0.301-0.432,0.65-0.564,1.051c-0.132,0.4-0.197,0.828-0.197,1.283
		c0,0.457,0.055,0.883,0.168,1.279c0.111,0.395,0.283,0.738,0.516,1.031s0.527,0.521,0.888,0.689s0.788,0.252,1.284,0.252
		c0.393,0,0.736-0.051,1.032-0.156c0.296-0.104,0.552-0.25,0.768-0.438s0.396-0.408,0.54-0.66s0.26-0.525,0.348-0.822h-0.804
		c-0.112,0.457-0.336,0.809-0.672,1.057s-0.739,0.371-1.212,0.371c-0.344,0-0.648-0.064-0.912-0.197
		c-0.264-0.131-0.482-0.309-0.654-0.527c-0.172-0.221-0.302-0.48-0.39-0.781c-0.088-0.299-0.132-0.617-0.132-0.953h4.824
		C102.555,35.439,102.314,34.584,101.826,33.996z M97.723,35.959c0.031-0.297,0.1-0.576,0.204-0.84
		c0.104-0.264,0.241-0.496,0.413-0.697c0.173-0.199,0.381-0.359,0.625-0.479c0.244-0.121,0.525-0.182,0.846-0.182
		s0.604,0.059,0.852,0.176c0.248,0.115,0.455,0.271,0.619,0.467c0.163,0.197,0.287,0.428,0.371,0.695
		c0.084,0.27,0.126,0.555,0.126,0.859H97.723z"/>
	<path d="M108.751,34.279c-0.232-0.385-0.55-0.674-0.954-0.871c-0.404-0.195-0.826-0.293-1.266-0.293
		c-0.473,0-0.883,0.09-1.23,0.27s-0.636,0.42-0.863,0.721c-0.229,0.299-0.398,0.648-0.511,1.049s-0.168,0.816-0.168,1.248
		c0,0.457,0.052,0.885,0.156,1.285c0.104,0.398,0.271,0.744,0.498,1.037s0.518,0.521,0.87,0.689
		c0.352,0.168,0.779,0.252,1.283,0.252c0.2,0,0.404-0.027,0.612-0.084c0.208-0.055,0.41-0.135,0.606-0.24
		c0.195-0.104,0.375-0.232,0.539-0.389s0.299-0.338,0.402-0.547h0.024v1.092h0.72v-8.639h-0.72V34.279z M108.613,37.416
		c-0.092,0.324-0.227,0.605-0.402,0.84c-0.176,0.236-0.396,0.422-0.66,0.559s-0.564,0.203-0.9,0.203c-0.304,0-0.584-0.053-0.84-0.16
		c-0.256-0.109-0.479-0.268-0.672-0.475c-0.191-0.209-0.342-0.463-0.449-0.762c-0.108-0.301-0.162-0.646-0.162-1.039
		c-0.017-0.391,0.016-0.758,0.096-1.098s0.208-0.639,0.384-0.895s0.399-0.457,0.672-0.605s0.597-0.223,0.972-0.223
		c0.328,0,0.623,0.07,0.883,0.211s0.479,0.328,0.66,0.564c0.18,0.236,0.317,0.512,0.414,0.828c0.096,0.314,0.144,0.648,0.144,1.002
		C108.751,36.742,108.705,37.092,108.613,37.416z"/>
	<path d="M119.736,34.105c-0.229-0.301-0.516-0.541-0.863-0.721c-0.349-0.18-0.759-0.27-1.23-0.27
		c-0.44,0-0.862,0.098-1.266,0.293c-0.404,0.197-0.723,0.486-0.955,0.871v-3.42h-0.719v8.639h0.719v-1.092h0.024
		c0.104,0.209,0.238,0.391,0.402,0.547c0.163,0.156,0.344,0.285,0.54,0.389c0.195,0.105,0.397,0.186,0.605,0.24
		c0.208,0.057,0.412,0.084,0.612,0.084c0.504,0,0.932-0.084,1.284-0.252c0.352-0.168,0.642-0.396,0.869-0.689
		c0.229-0.293,0.395-0.639,0.498-1.037c0.104-0.4,0.156-0.828,0.156-1.285c0-0.432-0.056-0.848-0.168-1.248
		C120.135,34.754,119.965,34.404,119.736,34.105z M119.484,37.621c-0.107,0.299-0.258,0.553-0.45,0.762
		c-0.192,0.207-0.416,0.365-0.672,0.475c-0.256,0.107-0.536,0.16-0.84,0.16c-0.336,0-0.636-0.066-0.899-0.203
		c-0.265-0.137-0.484-0.322-0.66-0.559c-0.177-0.234-0.311-0.516-0.402-0.84s-0.139-0.674-0.139-1.049
		c0-0.354,0.049-0.688,0.145-1.002c0.096-0.316,0.234-0.592,0.414-0.828s0.4-0.424,0.66-0.564s0.554-0.211,0.882-0.211
		c0.368,0,0.69,0.074,0.966,0.223s0.502,0.35,0.678,0.605s0.305,0.555,0.385,0.895s0.111,0.707,0.096,1.098
		C119.646,36.975,119.592,37.32,119.484,37.621z"/>
	<path d="M124.099,38.623l-1.992-5.34h-0.804l2.412,6.254c-0.072,0.137-0.137,0.301-0.192,0.498
		c-0.056,0.195-0.126,0.383-0.21,0.562s-0.19,0.334-0.318,0.461c-0.128,0.129-0.292,0.191-0.492,0.191
		c-0.104,0-0.205-0.008-0.306-0.023s-0.198-0.031-0.294-0.049v0.686c0.096,0.023,0.202,0.043,0.318,0.059
		c0.115,0.016,0.238,0.025,0.365,0.025c0.248,0,0.463-0.059,0.643-0.174c0.18-0.117,0.344-0.285,0.492-0.506
		c0.147-0.219,0.287-0.484,0.42-0.797c0.132-0.312,0.27-0.664,0.414-1.057l2.316-6.131h-0.781L124.099,38.623z"/>
	<path d="M135.066,35.73h2.916c-0.008,0.328-0.038,0.641-0.09,0.936c-0.053,0.297-0.146,0.58-0.282,0.852
		c-0.144,0.281-0.315,0.518-0.517,0.709c-0.199,0.191-0.416,0.348-0.647,0.469c-0.231,0.119-0.472,0.205-0.72,0.258
		c-0.248,0.051-0.488,0.078-0.721,0.078c-0.496,0-0.938-0.098-1.326-0.289c-0.387-0.191-0.715-0.451-0.983-0.779
		s-0.472-0.709-0.612-1.141c-0.14-0.432-0.209-0.889-0.209-1.367c0-0.609,0.061-1.166,0.186-1.674
		c0.123-0.508,0.318-0.945,0.582-1.309s0.6-0.646,1.008-0.846c0.408-0.201,0.896-0.301,1.464-0.301c0.319,0,0.628,0.047,0.925,0.139
		c0.295,0.092,0.563,0.225,0.803,0.396c0.24,0.172,0.446,0.385,0.619,0.641c0.172,0.256,0.293,0.545,0.365,0.865h0.84
		c-0.096-0.465-0.252-0.867-0.468-1.207s-0.481-0.623-0.798-0.852s-0.672-0.398-1.068-0.51c-0.396-0.111-0.822-0.168-1.277-0.168
		c-0.68,0-1.271,0.115-1.771,0.348s-0.916,0.551-1.248,0.953c-0.332,0.404-0.577,0.881-0.737,1.43c-0.16,0.547-0.24,1.137-0.24,1.77
		c0,0.768,0.094,1.439,0.281,2.016c0.188,0.576,0.451,1.055,0.787,1.434c0.336,0.381,0.735,0.666,1.199,0.859
		c0.464,0.191,0.969,0.287,1.512,0.287c0.424,0,0.805-0.041,1.141-0.119c0.336-0.08,0.632-0.195,0.888-0.344
		c0.256-0.146,0.481-0.326,0.679-0.539c0.195-0.213,0.369-0.445,0.521-0.701v1.475h0.695v-4.463h-3.695V35.73z"/>
	<path d="M145.17,33.996c-0.488-0.588-1.16-0.881-2.016-0.881c-0.448,0-0.848,0.086-1.2,0.258
		s-0.649,0.408-0.894,0.707c-0.244,0.301-0.432,0.65-0.564,1.051c-0.132,0.4-0.197,0.828-0.197,1.283
		c0,0.457,0.055,0.883,0.168,1.279c0.111,0.395,0.283,0.738,0.516,1.031s0.527,0.521,0.888,0.689s0.788,0.252,1.284,0.252
		c0.393,0,0.736-0.051,1.032-0.156c0.296-0.104,0.552-0.25,0.768-0.438s0.396-0.408,0.54-0.66s0.26-0.525,0.348-0.822h-0.804
		c-0.112,0.457-0.336,0.809-0.672,1.057s-0.739,0.371-1.212,0.371c-0.344,0-0.648-0.064-0.912-0.197
		c-0.264-0.131-0.482-0.309-0.654-0.527c-0.172-0.221-0.302-0.48-0.39-0.781c-0.088-0.299-0.132-0.617-0.132-0.953h4.824
		C145.898,35.439,145.658,34.584,145.17,33.996z M141.066,35.959c0.031-0.297,0.1-0.576,0.204-0.84
		c0.104-0.264,0.241-0.496,0.413-0.697c0.173-0.199,0.381-0.359,0.625-0.479c0.244-0.121,0.525-0.182,0.846-0.182
		s0.604,0.059,0.852,0.176c0.248,0.115,0.455,0.271,0.619,0.467c0.163,0.197,0.287,0.428,0.371,0.695
		c0.084,0.27,0.126,0.555,0.126,0.859H141.066z"/>
	<path d="M151.938,34.068c-0.239-0.291-0.54-0.523-0.899-0.695c-0.36-0.172-0.785-0.258-1.272-0.258
		c-0.479,0-0.899,0.086-1.26,0.258s-0.66,0.406-0.9,0.701c-0.239,0.297-0.42,0.643-0.54,1.039c-0.119,0.395-0.18,0.82-0.18,1.277
		c0,0.545,0.076,1.02,0.229,1.428c0.151,0.408,0.357,0.748,0.617,1.02c0.26,0.273,0.564,0.477,0.912,0.613
		c0.348,0.135,0.723,0.207,1.122,0.215c0.433,0,0.826-0.078,1.183-0.234c0.355-0.154,0.66-0.377,0.912-0.666
		c0.252-0.287,0.445-0.631,0.582-1.031c0.135-0.4,0.203-0.848,0.203-1.344c0-0.457-0.059-0.885-0.174-1.283
		C152.356,34.707,152.179,34.361,151.938,34.068z M151.759,37.363c-0.08,0.311-0.204,0.592-0.372,0.84s-0.387,0.445-0.654,0.594
		s-0.59,0.221-0.966,0.221c-0.345,0-0.647-0.062-0.912-0.191c-0.264-0.127-0.483-0.307-0.659-0.539
		c-0.177-0.232-0.311-0.51-0.402-0.834s-0.139-0.678-0.139-1.062c0-0.336,0.041-0.662,0.121-0.979
		c0.079-0.316,0.203-0.596,0.371-0.84s0.387-0.439,0.654-0.588s0.59-0.223,0.966-0.223c0.384,0,0.708,0.068,0.972,0.205
		s0.48,0.322,0.648,0.559c0.168,0.234,0.292,0.514,0.372,0.834c0.079,0.318,0.12,0.664,0.12,1.031
		C151.879,36.727,151.838,37.051,151.759,37.363z"/>
	<path d="M157.519,36.385c-0.296-0.133-0.616-0.234-0.96-0.307s-0.664-0.154-0.96-0.246s-0.542-0.211-0.738-0.359
		s-0.294-0.361-0.294-0.643c0-0.32,0.12-0.578,0.36-0.773c0.239-0.195,0.588-0.295,1.044-0.295s0.834,0.1,1.134,0.295
		s0.481,0.533,0.546,1.014h0.732c-0.088-0.703-0.342-1.205-0.762-1.506s-0.967-0.449-1.639-0.449c-0.695,0-1.234,0.166-1.613,0.498
		c-0.381,0.332-0.57,0.758-0.57,1.277c0,0.408,0.098,0.725,0.294,0.947c0.196,0.225,0.442,0.396,0.737,0.518
		c0.297,0.119,0.616,0.209,0.961,0.27c0.344,0.059,0.664,0.131,0.959,0.215c0.297,0.084,0.543,0.201,0.738,0.35
		c0.196,0.146,0.295,0.373,0.295,0.678c0,0.152-0.033,0.295-0.097,0.432s-0.158,0.258-0.282,0.365
		c-0.124,0.109-0.281,0.195-0.474,0.258c-0.192,0.064-0.42,0.096-0.685,0.096c-0.543,0-0.961-0.109-1.254-0.328
		c-0.292-0.221-0.494-0.6-0.605-1.135h-0.732c0.016,0.297,0.08,0.572,0.192,0.828s0.268,0.48,0.468,0.672s0.441,0.342,0.727,0.449
		c0.283,0.109,0.609,0.162,0.978,0.162s0.706-0.037,1.015-0.113c0.307-0.076,0.573-0.189,0.797-0.342
		c0.225-0.152,0.4-0.342,0.528-0.57s0.192-0.49,0.192-0.785c0-0.4-0.098-0.713-0.295-0.938
		C158.061,36.695,157.814,36.516,157.519,36.385z"/>
	<rect x="160.039" y="30.859" width="0.791" height="1.066"/>
	<rect x="160.074" y="33.283" width="0.721" height="6.215"/>
	<path d="M167.568,38.965c-0.101-0.076-0.15-0.254-0.15-0.535v-3.383c0-0.359-0.059-0.664-0.174-0.912
		c-0.116-0.248-0.275-0.445-0.48-0.594c-0.203-0.148-0.443-0.256-0.72-0.324s-0.569-0.102-0.882-0.102
		c-0.336,0-0.654,0.037-0.954,0.113s-0.563,0.195-0.792,0.359s-0.414,0.377-0.559,0.637c-0.143,0.26-0.228,0.574-0.252,0.941h0.732
		c0.032-0.271,0.098-0.498,0.198-0.678s0.228-0.324,0.384-0.432s0.338-0.184,0.547-0.229c0.207-0.043,0.436-0.066,0.684-0.066
		c0.56,0,0.957,0.119,1.193,0.355s0.354,0.537,0.354,0.906c0,0.111-0.015,0.232-0.042,0.365c-0.028,0.133-0.102,0.227-0.223,0.281
		c-0.119,0.057-0.273,0.102-0.461,0.133c-0.188,0.031-0.351,0.057-0.486,0.072l-0.996,0.131c-1.448,0.193-2.172,0.816-2.172,1.873
		c0,0.305,0.056,0.566,0.168,0.785c0.111,0.221,0.264,0.406,0.455,0.559c0.193,0.152,0.414,0.264,0.666,0.336
		c0.253,0.072,0.515,0.107,0.787,0.107c0.455,0,0.879-0.088,1.271-0.264s0.74-0.432,1.044-0.768c0,0.111,0.008,0.219,0.024,0.318
		c0.016,0.1,0.046,0.191,0.09,0.275s0.102,0.156,0.174,0.217c0.072,0.059,0.168,0.098,0.288,0.113
		c0.104,0.023,0.212,0.035,0.324,0.035c0.104,0,0.21-0.016,0.317-0.047c0.108-0.033,0.19-0.057,0.246-0.072V38.91
		C167.87,39.023,167.668,39.041,167.568,38.965z M166.698,37.207c0,0.311-0.064,0.582-0.192,0.809
		c-0.128,0.229-0.298,0.416-0.51,0.564s-0.454,0.258-0.727,0.33c-0.271,0.072-0.551,0.107-0.84,0.107
		c-0.168,0-0.334-0.021-0.498-0.064c-0.164-0.045-0.308-0.113-0.432-0.205s-0.225-0.207-0.3-0.348
		c-0.076-0.141-0.114-0.307-0.114-0.498c0-0.424,0.154-0.74,0.463-0.947c0.307-0.209,0.737-0.332,1.289-0.373
		c0.312-0.023,0.624-0.055,0.936-0.096c0.312-0.039,0.621-0.123,0.925-0.252V37.207z"/>
	<path d="M174.942,35.094c-0.104-0.398-0.271-0.744-0.498-1.037s-0.519-0.521-0.87-0.689s-0.779-0.252-1.283-0.252
		c-0.201,0-0.404,0.027-0.612,0.084c-0.208,0.055-0.41,0.135-0.606,0.24c-0.195,0.104-0.376,0.234-0.539,0.395
		c-0.164,0.16-0.299,0.34-0.402,0.541h-0.024v-1.092h-0.72v8.664h0.72v-3.445c0.231,0.385,0.55,0.674,0.954,0.871
		c0.404,0.195,0.826,0.293,1.266,0.293c0.473,0,0.883-0.09,1.23-0.27s0.636-0.42,0.863-0.721c0.229-0.299,0.398-0.648,0.511-1.049
		s0.168-0.816,0.168-1.248C175.099,35.922,175.047,35.494,174.942,35.094z M174.234,37.297c-0.08,0.34-0.208,0.639-0.384,0.895
		c-0.177,0.256-0.402,0.457-0.679,0.605c-0.275,0.148-0.598,0.221-0.965,0.221c-0.328,0-0.623-0.068-0.883-0.209
		s-0.48-0.328-0.66-0.564s-0.317-0.512-0.414-0.828c-0.096-0.314-0.144-0.648-0.144-1.002c0-0.375,0.046-0.725,0.138-1.049
		s0.227-0.605,0.402-0.84c0.176-0.236,0.396-0.422,0.66-0.559s0.564-0.205,0.9-0.205c0.303,0,0.584,0.055,0.84,0.162
		c0.256,0.109,0.479,0.268,0.672,0.475c0.191,0.209,0.342,0.463,0.449,0.762c0.108,0.301,0.162,0.646,0.162,1.039
		C174.346,36.59,174.314,36.957,174.234,37.297z"/>
	<rect x="52.25" width="2.25" height="50"/>
</g>
</svg>
