<?xml version="1.0" encoding="utf-8"?>
<!-- Generator: Adobe Illustrator 16.0.0, SVG Export Plug-In . SVG Version: 6.00 Build 0)  -->
<!DOCTYPE svg PUBLIC "-//W3C//DTD SVG 1.1//EN" "http://www.w3.org/Graphics/SVG/1.1/DTD/svg11.dtd">
<svg version="1.1" id="Layer_1" xmlns="http://www.w3.org/2000/svg" xmlns:xlink="http://www.w3.org/1999/xlink" x="0px" y="0px" width="26.167px" height="26px" viewBox="0 0 26.167 26" enable-background="new 0 0 26.167 26" xml:space="preserve">
<g>
	<g>
		<path d="M13.223,25.709C6.208,25.709,0.5,20.002,0.5,12.986S6.208,0.264,13.223,0.264s12.723,5.707,12.723,12.723
			S20.238,25.709,13.223,25.709z M13.223,1.585c-6.287,0-11.401,5.114-11.401,11.401s5.115,11.401,11.401,11.401
			s11.401-5.114,11.401-11.401S19.509,1.585,13.223,1.585z"/>
	</g>
	<g>
		<path d="M21.248,22.644c-0.084,0-0.17-0.016-0.253-0.051c-5.372-2.239-5.657-3.153-5.778-3.544
			c-0.021-0.063-0.03-0.13-0.03-0.196v-1.058c0-0.172,0.067-0.338,0.188-0.462c0.629-0.644,1.118-1.541,1.413-2.596
			c0.041-0.147,0.131-0.275,0.257-0.363c0.232-0.163,0.389-0.422,0.429-0.71c0.041-0.293-0.042-0.582-0.232-0.816
			c-0.095-0.118-0.148-0.265-0.148-0.417v-2.366c0-2.293-1.282-3.455-3.81-3.455c-2.493,0-3.811,1.194-3.811,3.455v2.367
			c0,0.152-0.052,0.299-0.148,0.417c-0.189,0.232-0.272,0.522-0.231,0.813c0.04,0.289,0.196,0.549,0.429,0.713
			c0.125,0.087,0.215,0.216,0.256,0.361c0.295,1.055,0.784,1.953,1.414,2.597c0.121,0.124,0.188,0.29,0.188,0.462v1.058
			c0,0.066-0.01,0.133-0.03,0.196c-0.211,0.676-1.041,1.565-5.653,3.482c-0.336,0.14-0.724-0.02-0.863-0.357
			c-0.14-0.336,0.02-0.723,0.356-0.862c3.925-1.632,4.712-2.382,4.869-2.606v-0.65c-0.651-0.732-1.163-1.676-1.492-2.753
			c-0.423-0.372-0.704-0.892-0.782-1.458c-0.08-0.576,0.05-1.145,0.367-1.627v-2.152c0-2.991,1.918-4.776,5.132-4.776
			c3.261,0,5.131,1.741,5.131,4.776v2.151c0.318,0.483,0.448,1.053,0.367,1.63c-0.079,0.566-0.36,1.085-0.783,1.456
			c-0.329,1.077-0.84,2.021-1.491,2.753v0.647c0.148,0.198,0.949,0.984,4.996,2.671c0.336,0.141,0.496,0.527,0.355,0.864
			C21.752,22.491,21.507,22.644,21.248,22.644z"/>
	</g>
</g>
</svg>
