<?xml version="1.0" encoding="utf-8"?>
<!-- Generator: Adobe Illustrator 16.0.4, SVG Export Plug-In . SVG Version: 6.00 Build 0)  -->
<!DOCTYPE svg PUBLIC "-//W3C//DTD SVG 1.1//EN" "http://www.w3.org/Graphics/SVG/1.1/DTD/svg11.dtd">
<svg version="1.1" id="criar_conta" xmlns="http://www.w3.org/2000/svg" xmlns:xlink="http://www.w3.org/1999/xlink" x="0px"
	 y="0px" width="180px" height="180px" viewBox="214.687 337.982 180 180" enable-background="new 214.687 337.982 180 180"
	 xml:space="preserve">
<title>icon_add_photo</title>
<path fill="#FFFFFF" d="M394.685,428.309c0.185-49.706-39.964-90.146-89.672-90.326c-49.705-0.181-90.144,39.967-90.325,89.672
	c-0.179,49.704,39.969,90.144,89.672,90.326c21.992,0.078,43.25-7.896,59.762-22.419c0.122-0.095,0.238-0.2,0.352-0.31
	C383.668,478.299,394.672,453.921,394.685,428.309z M222.92,428.309c-0.083-45.337,36.604-82.159,81.94-82.241
	c45.34-0.083,82.158,36.605,82.241,81.942c0.039,22.663-9.292,44.338-25.782,59.882c-27.823-11.77-32.956-17.31-33.839-18.681
	v-5.222c4.988-5.716,8.657-12.466,10.733-19.765c2.986-2.538,4.937-6.082,5.482-9.963c0.558-3.935-0.376-7.936-2.626-11.209v-15.595
	c0-21.037-12.981-33.091-35.624-33.091c-22.307,0-35.634,12.368-35.634,33.091v15.606c-2.247,3.276-3.18,7.277-2.616,11.211
	c0.542,3.874,2.482,7.418,5.457,9.964c2.084,7.302,5.755,14.055,10.749,19.778v5.267c-0.923,1.571-6.078,6.926-34.463,18.783
	C232.363,472.611,222.941,450.972,222.92,428.309L222.92,428.309z M255.414,493.583c28.647-12.253,34.077-18.194,35.385-22.418
	c0.114-0.364,0.172-0.749,0.176-1.132v-7.475c0.005-0.991-0.385-1.947-1.085-2.654c-4.952-5.337-8.492-11.826-10.301-18.879
	c-0.237-0.844-0.756-1.578-1.469-2.081c-3.774-2.703-4.645-7.956-1.941-11.73c0.111-0.153,0.227-0.304,0.347-0.451
	c0.546-0.677,0.847-1.521,0.847-2.391V407.52c0-16.452,9.963-25.506,28.049-25.506c18.347,0,28.05,8.817,28.05,25.506v16.853
	c0,0.87,0.298,1.714,0.849,2.391c2.953,3.591,2.438,8.898-1.151,11.852c-0.148,0.119-0.295,0.231-0.446,0.344
	c-0.717,0.5-1.238,1.234-1.47,2.078c-1.804,7.053-5.34,13.542-10.286,18.884c-0.684,0.727-1.045,1.693-1.01,2.689v7.473
	c0,0.385,0.061,0.767,0.172,1.133c0.787,2.492,2.605,8.234,34.803,22.168C325.653,516.045,284.782,516.126,255.414,493.583z"/>
</svg>
