<?xml version="1.0" encoding="utf-8"?>
<!-- Generator: Adobe Illustrator 16.0.4, SVG Export Plug-In . SVG Version: 6.00 Build 0)  -->
<!DOCTYPE svg PUBLIC "-//W3C//DTD SVG 1.1//EN" "http://www.w3.org/Graphics/SVG/1.1/DTD/svg11.dtd">
<svg version="1.1" id="Layer_1" xmlns="http://www.w3.org/2000/svg" xmlns:xlink="http://www.w3.org/1999/xlink" x="0px" y="0px"
	 width="175px" height="50px" viewBox="0 0 175 50" enable-background="new 0 0 175 50" xml:space="preserve">
<title>assets</title>
<desc>Created with Sketch.</desc>
<g id="Group-13">
	<g id="Clip-6">
	</g>
	<g id="Clip-12">
	</g>
</g>
<g>
	<path fill="#221F20" d="M16.219,39.238c-4.38-0.963-5.194,1.773-4.589,3.305c2.996,1.566,6.401,2.459,10.018,2.459
		c8.212,0,15.355-4.574,19.023-11.311C38.158,35,26.087,41.41,16.219,39.238z"/>
	<path fill="#221F20" d="M34.898,10.822C31.524,10.712,21.174,0.8,10.635,7.088c0.608-0.318,3.517-1.409,9.189,2.981
		c1.067,0.827,16.268,16.321,23.071,17.416c0.26-1.338,0.399-2.719,0.399-4.132c0-5.802-2.287-11.067-6.003-14.954
		C37.456,9.174,37.533,10.909,34.898,10.822z"/>
	<path fill="#221F20" d="M39.798,31.217c0,0-6.758-1.45-25.327-15.715c-0.595-0.456-7.248-5.992-13.8,2.488
		C0.234,19.706,0,21.502,0,23.354c0,1.526,0.16,3.015,0.461,4.453C3.587,23.468,22.283,38.561,39.798,31.217z"/>
	<rect x="52.295" fill="#221F20" width="2" height="50"/>
	<path fill="#221F20" d="M69.29,6.919l-5.672,15.062h2.092l1.633-4.512h5.91l1.572,4.512h2.235L71.594,6.919H69.29z M67.945,15.809
		l2.41-6.655l2.319,6.655H67.945z"/>
	<path fill="#221F20" d="M86.079,16.578c-0.46-0.3-1.365-0.611-2.716-0.933l-1.243-0.298c-0.543-0.129-0.955-0.279-1.233-0.45
		c-0.483-0.286-0.724-0.667-0.724-1.144c0-0.437,0.184-0.787,0.551-1.053c0.368-0.266,0.908-0.398,1.622-0.398
		c1.07,0,1.823,0.241,2.257,0.724c0.266,0.341,0.416,0.718,0.451,1.132h1.743c0.014-0.71-0.211-1.373-0.676-1.988
		c-0.741-0.971-1.95-1.457-3.626-1.457c-1.282,0-2.302,0.322-3.061,0.965c-0.758,0.643-1.138,1.483-1.138,2.521
		c0,0.883,0.403,1.573,1.209,2.072c0.451,0.287,1.153,0.547,2.105,0.779l1.49,0.369c0.799,0.198,1.334,0.372,1.605,0.522
		c0.424,0.246,0.636,0.604,0.636,1.077c0,0.622-0.265,1.081-0.795,1.379c-0.53,0.297-1.145,0.445-1.842,0.445
		c-1.172,0-1.996-0.297-2.47-0.892c-0.258-0.328-0.415-0.8-0.471-1.415h-1.774c0.048,1.094,0.417,2.012,1.105,2.753
		c0.689,0.742,1.86,1.112,3.514,1.112c1.537,0,2.68-0.355,3.431-1.066c0.751-0.71,1.126-1.555,1.126-2.532
		C87.156,17.792,86.797,17.05,86.079,16.578z"/>
	<path fill="#221F20" d="M96.579,16.578c-0.46-0.3-1.365-0.611-2.716-0.933l-1.244-0.298c-0.543-0.129-0.954-0.279-1.232-0.45
		c-0.482-0.286-0.725-0.667-0.725-1.144c0-0.437,0.184-0.787,0.551-1.053c0.368-0.266,0.908-0.398,1.623-0.398
		c1.07,0,1.822,0.241,2.256,0.724c0.266,0.341,0.416,0.718,0.451,1.132h1.744c0.014-0.71-0.212-1.373-0.676-1.988
		c-0.742-0.971-1.951-1.457-3.627-1.457c-1.281,0-2.302,0.322-3.061,0.965c-0.758,0.643-1.138,1.483-1.138,2.521
		c0,0.883,0.403,1.573,1.209,2.072c0.451,0.287,1.153,0.547,2.104,0.779l1.49,0.369c0.799,0.198,1.334,0.372,1.605,0.522
		c0.424,0.246,0.635,0.604,0.635,1.077c0,0.622-0.265,1.081-0.795,1.379c-0.53,0.297-1.145,0.445-1.842,0.445
		c-1.172,0-1.996-0.297-2.471-0.892c-0.258-0.328-0.414-0.8-0.471-1.415h-1.773c0.049,1.094,0.417,2.012,1.105,2.753
		c0.689,0.742,1.86,1.112,3.514,1.112c1.537,0,2.681-0.355,3.432-1.066c0.751-0.71,1.127-1.555,1.127-2.532
		C97.656,17.792,97.297,17.05,96.579,16.578z"/>
	<path fill="#221F20" d="M103.9,22.372c0.557,0,1.055-0.055,1.496-0.164c0.82-0.191,1.51-0.561,2.066-1.107
		c0.332-0.314,0.633-0.72,0.903-1.215c0.27-0.496,0.429-0.945,0.477-1.349h-1.815c-0.133,0.487-0.358,0.917-0.678,1.288
		c-0.569,0.639-1.332,0.958-2.289,0.958c-1.023,0-1.779-0.338-2.268-1.014c-0.489-0.675-0.75-1.571-0.784-2.688h7.987
		c0-1.107-0.055-1.914-0.162-2.42c-0.123-0.738-0.367-1.384-0.734-1.938c-0.381-0.58-0.934-1.054-1.661-1.42
		c-0.728-0.365-1.478-0.549-2.252-0.549c-1.536,0-2.778,0.551-3.729,1.651s-1.428,2.532-1.428,4.296
		c0,1.792,0.473,3.185,1.417,4.179C101.391,21.875,102.542,22.372,103.9,22.372z M101.955,13.282
		c0.568-0.612,1.273-0.918,2.114-0.918c1.173,0,2.01,0.444,2.512,1.333c0.271,0.479,0.444,1.117,0.519,1.918h-6.05
		C101.084,14.671,101.385,13.893,101.955,13.282z"/>
	<path fill="#221F20" d="M115.323,20.515c-0.137,0.019-0.257,0.03-0.358,0.035c-0.104,0.004-0.199,0.006-0.287,0.006
		c-0.336,0-0.574-0.037-0.719-0.112c-0.26-0.13-0.389-0.386-0.389-0.769v-7.168h1.753V11h-1.753V7.934h-1.867V11h-1.486v1.508h1.486
		v7.27c0,0.705,0.154,1.277,0.462,1.718c0.308,0.441,0.892,0.661,1.753,0.661c0.268,0,0.515-0.014,0.744-0.041
		c0.229-0.027,0.449-0.071,0.661-0.133V20.515z"/>
	<path fill="#221F20" d="M125.67,18.803c0-1.012-0.359-1.753-1.077-2.226c-0.46-0.3-1.365-0.611-2.716-0.933l-1.244-0.298
		c-0.543-0.129-0.954-0.279-1.232-0.45c-0.482-0.286-0.725-0.667-0.725-1.144c0-0.437,0.184-0.787,0.551-1.053
		c0.368-0.266,0.908-0.398,1.623-0.398c1.07,0,1.822,0.241,2.256,0.724c0.266,0.341,0.416,0.718,0.451,1.132h1.744
		c0.014-0.71-0.212-1.373-0.676-1.988c-0.742-0.971-1.951-1.457-3.627-1.457c-1.281,0-2.302,0.322-3.061,0.965
		c-0.758,0.643-1.138,1.483-1.138,2.521c0,0.883,0.403,1.573,1.209,2.072c0.451,0.287,1.153,0.547,2.104,0.779l1.49,0.369
		c0.799,0.198,1.334,0.372,1.605,0.522c0.424,0.246,0.635,0.604,0.635,1.077c0,0.622-0.265,1.081-0.795,1.379
		c-0.53,0.297-1.145,0.445-1.842,0.445c-1.172,0-1.996-0.297-2.471-0.892c-0.258-0.328-0.414-0.8-0.471-1.415h-1.773
		c0.049,1.094,0.417,2.012,1.105,2.753c0.689,0.742,1.86,1.112,3.514,1.112c1.537,0,2.681-0.355,3.432-1.066
		C125.294,20.625,125.67,19.781,125.67,18.803z"/>
	<path fill="#221F20" d="M69.637,30.463c-0.212-0.225-0.5-0.4-0.864-0.529c-0.364-0.127-0.826-0.191-1.386-0.191h-3.156v8.641h0.816
		v-3.816h1.848c0.4,0,0.798-0.035,1.194-0.107s0.75-0.199,1.062-0.379s0.566-0.426,0.762-0.738c0.196-0.311,0.294-0.707,0.294-1.188
		c0-0.32-0.042-0.625-0.126-0.918C69.997,30.945,69.849,30.686,69.637,30.463z M69.217,32.988c-0.116,0.229-0.28,0.408-0.492,0.541
		c-0.212,0.131-0.47,0.221-0.774,0.27c-0.304,0.047-0.648,0.072-1.032,0.072h-1.872v-3.434h2.112c0.776,0,1.342,0.141,1.698,0.42
		c0.356,0.281,0.534,0.693,0.534,1.236C69.391,32.463,69.333,32.76,69.217,32.988z"/>
	<path fill="#221F20" d="M76.135,32.953c-0.24-0.293-0.54-0.525-0.9-0.697s-0.784-0.258-1.272-0.258c-0.48,0-0.9,0.086-1.26,0.258
		c-0.36,0.172-0.66,0.406-0.9,0.703c-0.24,0.295-0.42,0.641-0.54,1.037c-0.12,0.396-0.18,0.822-0.18,1.277
		c0,0.545,0.076,1.021,0.228,1.43c0.152,0.406,0.358,0.748,0.618,1.02c0.26,0.271,0.564,0.477,0.912,0.611
		c0.348,0.137,0.722,0.209,1.122,0.217c0.432,0,0.826-0.078,1.182-0.234s0.66-0.379,0.912-0.666s0.446-0.633,0.582-1.031
		c0.136-0.4,0.204-0.85,0.204-1.346c0-0.455-0.058-0.883-0.174-1.283C76.553,33.59,76.375,33.244,76.135,32.953z M75.955,36.246
		c-0.08,0.312-0.204,0.592-0.372,0.84s-0.386,0.447-0.654,0.594c-0.268,0.148-0.59,0.223-0.966,0.223
		c-0.344,0-0.648-0.064-0.912-0.191c-0.264-0.129-0.484-0.309-0.66-0.541c-0.176-0.232-0.31-0.51-0.402-0.834
		c-0.092-0.324-0.138-0.678-0.138-1.062c0-0.336,0.04-0.66,0.12-0.977c0.08-0.316,0.204-0.596,0.372-0.84s0.386-0.441,0.654-0.588
		c0.268-0.148,0.59-0.223,0.966-0.223c0.384,0,0.708,0.068,0.972,0.203c0.264,0.137,0.48,0.322,0.648,0.559s0.292,0.514,0.372,0.834
		c0.08,0.32,0.12,0.664,0.12,1.031C76.075,35.609,76.035,35.934,75.955,36.246z"/>
	<polygon fill="#221F20" points="83.419,37.422 82.051,32.166 81.247,32.166 79.807,37.471 78.199,32.166 77.479,32.166 
		79.375,38.383 80.239,38.383 81.619,33.162 81.643,33.162 82.999,38.383 83.767,38.383 85.783,32.166 85.051,32.166 	"/>
	<path fill="#221F20" d="M91.375,32.881c-0.488-0.588-1.16-0.883-2.016-0.883c-0.449,0-0.849,0.086-1.201,0.258
		c-0.352,0.172-0.649,0.408-0.894,0.709c-0.244,0.299-0.432,0.65-0.564,1.049c-0.132,0.4-0.198,0.828-0.198,1.285
		c0,0.455,0.056,0.881,0.168,1.277c0.112,0.396,0.284,0.74,0.516,1.031c0.232,0.293,0.528,0.523,0.887,0.691
		c0.361,0.168,0.789,0.252,1.285,0.252c0.392,0,0.735-0.053,1.031-0.156s0.553-0.25,0.768-0.438c0.217-0.189,0.396-0.408,0.541-0.66
		c0.144-0.252,0.26-0.527,0.348-0.822h-0.805c-0.111,0.455-0.336,0.809-0.672,1.057s-0.739,0.371-1.211,0.371
		c-0.345,0-0.648-0.066-0.912-0.197c-0.264-0.133-0.482-0.309-0.654-0.529c-0.172-0.219-0.302-0.479-0.39-0.779
		s-0.132-0.617-0.132-0.955h4.824C92.103,34.322,91.863,33.469,91.375,32.881z M87.271,34.842c0.032-0.295,0.1-0.576,0.204-0.84
		c0.104-0.264,0.242-0.496,0.414-0.695s0.38-0.359,0.624-0.48c0.244-0.119,0.526-0.18,0.847-0.18c0.319,0,0.604,0.059,0.852,0.174
		s0.454,0.271,0.618,0.469c0.163,0.195,0.288,0.428,0.372,0.695s0.125,0.555,0.125,0.857H87.271z"/>
	<path fill="#221F20" d="M94.279,33.33h-0.024v-1.164h-0.72v6.217h0.72v-3.049c0-0.344,0.03-0.674,0.09-0.99
		c0.06-0.314,0.168-0.59,0.324-0.822c0.155-0.23,0.366-0.414,0.63-0.551s0.6-0.201,1.008-0.191v-0.781
		c-0.52,0-0.938,0.098-1.254,0.295C94.736,32.488,94.479,32.834,94.279,33.33z"/>
	<path fill="#221F20" d="M101.826,32.881c-0.488-0.588-1.16-0.883-2.016-0.883c-0.448,0-0.848,0.086-1.2,0.258
		s-0.649,0.408-0.894,0.709c-0.244,0.299-0.432,0.65-0.564,1.049c-0.132,0.4-0.197,0.828-0.197,1.285
		c0,0.455,0.055,0.881,0.168,1.277c0.111,0.396,0.283,0.74,0.516,1.031c0.232,0.293,0.527,0.523,0.888,0.691
		s0.788,0.252,1.284,0.252c0.393,0,0.736-0.053,1.032-0.156s0.552-0.25,0.768-0.438c0.216-0.189,0.396-0.408,0.54-0.66
		s0.26-0.527,0.348-0.822h-0.804c-0.112,0.455-0.336,0.809-0.672,1.057s-0.739,0.371-1.212,0.371c-0.344,0-0.648-0.066-0.912-0.197
		c-0.264-0.133-0.482-0.309-0.654-0.529c-0.172-0.219-0.302-0.479-0.39-0.779s-0.132-0.617-0.132-0.955h4.824
		C102.555,34.322,102.314,33.469,101.826,32.881z M97.723,34.842c0.031-0.295,0.1-0.576,0.204-0.84
		c0.104-0.264,0.241-0.496,0.413-0.695c0.173-0.199,0.381-0.359,0.625-0.48c0.244-0.119,0.525-0.18,0.846-0.18
		s0.604,0.059,0.852,0.174s0.455,0.271,0.619,0.469c0.163,0.195,0.287,0.428,0.371,0.695s0.126,0.555,0.126,0.857H97.723z"/>
	<path fill="#221F20" d="M108.751,33.162c-0.232-0.383-0.55-0.674-0.954-0.869c-0.404-0.197-0.826-0.295-1.266-0.295
		c-0.473,0-0.883,0.09-1.23,0.27c-0.348,0.182-0.636,0.42-0.863,0.721c-0.229,0.301-0.398,0.65-0.511,1.051
		c-0.112,0.398-0.168,0.814-0.168,1.248c0,0.455,0.052,0.883,0.156,1.283c0.104,0.4,0.271,0.746,0.498,1.037
		c0.228,0.293,0.518,0.523,0.87,0.691c0.352,0.168,0.779,0.252,1.283,0.252c0.2,0,0.404-0.029,0.612-0.084
		c0.208-0.057,0.41-0.137,0.606-0.24c0.195-0.104,0.375-0.234,0.539-0.391s0.299-0.338,0.402-0.545h0.024v1.092h0.72v-8.641h-0.72
		V33.162z M108.613,36.301c-0.092,0.324-0.227,0.604-0.402,0.84s-0.396,0.422-0.66,0.559c-0.264,0.135-0.564,0.203-0.9,0.203
		c-0.304,0-0.584-0.055-0.84-0.162s-0.479-0.266-0.672-0.475c-0.191-0.207-0.342-0.461-0.449-0.762
		c-0.108-0.299-0.162-0.646-0.162-1.037c-0.017-0.393,0.016-0.758,0.096-1.098s0.208-0.639,0.384-0.895s0.399-0.459,0.672-0.605
		c0.272-0.148,0.597-0.223,0.972-0.223c0.328,0,0.623,0.07,0.883,0.209c0.26,0.141,0.479,0.328,0.66,0.564
		c0.18,0.236,0.317,0.512,0.414,0.828c0.096,0.316,0.144,0.65,0.144,1.002C108.751,35.627,108.705,35.977,108.613,36.301z"/>
	<path fill="#221F20" d="M119.736,32.988c-0.229-0.301-0.516-0.539-0.863-0.721c-0.349-0.18-0.759-0.27-1.23-0.27
		c-0.44,0-0.862,0.098-1.266,0.295c-0.404,0.195-0.723,0.486-0.955,0.869v-3.42h-0.719v8.641h0.719v-1.092h0.024
		c0.104,0.207,0.238,0.389,0.402,0.545c0.163,0.156,0.344,0.287,0.54,0.391c0.195,0.104,0.397,0.184,0.605,0.24
		c0.208,0.055,0.412,0.084,0.612,0.084c0.504,0,0.932-0.084,1.284-0.252c0.352-0.168,0.642-0.398,0.869-0.691
		c0.229-0.291,0.395-0.637,0.498-1.037c0.104-0.4,0.156-0.828,0.156-1.283c0-0.434-0.056-0.85-0.168-1.248
		C120.135,33.639,119.965,33.289,119.736,32.988z M119.484,36.504c-0.107,0.301-0.258,0.555-0.45,0.762
		c-0.192,0.209-0.416,0.367-0.672,0.475s-0.536,0.162-0.84,0.162c-0.336,0-0.636-0.068-0.899-0.203
		c-0.265-0.137-0.484-0.322-0.66-0.559c-0.177-0.236-0.311-0.516-0.402-0.84s-0.139-0.674-0.139-1.051
		c0-0.352,0.049-0.686,0.145-1.002s0.234-0.592,0.414-0.828s0.4-0.424,0.66-0.564c0.26-0.139,0.554-0.209,0.882-0.209
		c0.368,0,0.69,0.074,0.966,0.223c0.275,0.146,0.502,0.35,0.678,0.605s0.305,0.555,0.385,0.895s0.111,0.705,0.096,1.098
		C119.646,35.857,119.592,36.205,119.484,36.504z"/>
	<path fill="#221F20" d="M124.099,37.506l-1.992-5.34h-0.804l2.412,6.256c-0.072,0.135-0.137,0.301-0.192,0.496
		s-0.126,0.383-0.21,0.562s-0.19,0.334-0.318,0.463c-0.128,0.127-0.292,0.191-0.492,0.191c-0.104,0-0.205-0.008-0.306-0.025
		c-0.101-0.016-0.198-0.031-0.294-0.047v0.684c0.096,0.023,0.202,0.045,0.318,0.061c0.115,0.016,0.238,0.023,0.365,0.023
		c0.248,0,0.463-0.059,0.643-0.174s0.344-0.283,0.492-0.504c0.147-0.221,0.287-0.486,0.42-0.799c0.132-0.311,0.27-0.664,0.414-1.055
		l2.316-6.133h-0.781L124.099,37.506z"/>
	<path fill="#221F20" d="M135.066,34.615h2.916c-0.008,0.328-0.038,0.639-0.09,0.936c-0.053,0.295-0.146,0.58-0.282,0.852
		c-0.144,0.279-0.315,0.516-0.517,0.707c-0.199,0.193-0.416,0.35-0.647,0.469c-0.231,0.121-0.472,0.207-0.72,0.258
		c-0.248,0.053-0.488,0.078-0.721,0.078c-0.496,0-0.938-0.096-1.326-0.287c-0.387-0.193-0.715-0.453-0.983-0.781
		s-0.472-0.707-0.612-1.139c-0.14-0.434-0.209-0.889-0.209-1.369c0-0.607,0.061-1.166,0.186-1.674
		c0.123-0.508,0.318-0.943,0.582-1.309c0.264-0.363,0.6-0.645,1.008-0.846c0.408-0.199,0.896-0.299,1.464-0.299
		c0.319,0,0.628,0.045,0.925,0.137c0.295,0.092,0.563,0.225,0.803,0.396c0.24,0.172,0.446,0.387,0.619,0.643
		c0.172,0.256,0.293,0.543,0.365,0.863h0.84c-0.096-0.463-0.252-0.865-0.468-1.205s-0.481-0.625-0.798-0.854
		c-0.316-0.227-0.672-0.396-1.068-0.51c-0.396-0.111-0.822-0.168-1.277-0.168c-0.68,0-1.271,0.117-1.771,0.35
		c-0.5,0.23-0.916,0.549-1.248,0.953s-0.577,0.881-0.737,1.428c-0.16,0.549-0.24,1.139-0.24,1.77c0,0.77,0.094,1.441,0.281,2.018
		c0.188,0.574,0.451,1.053,0.787,1.434c0.336,0.379,0.735,0.666,1.199,0.857s0.969,0.287,1.512,0.287
		c0.424,0,0.805-0.039,1.141-0.119s0.632-0.193,0.888-0.342s0.481-0.328,0.679-0.541c0.195-0.211,0.369-0.445,0.521-0.701v1.477
		h0.695v-4.465h-3.695V34.615z"/>
	<path fill="#221F20" d="M145.17,32.881c-0.488-0.588-1.16-0.883-2.016-0.883c-0.448,0-0.848,0.086-1.2,0.258
		s-0.649,0.408-0.894,0.709c-0.244,0.299-0.432,0.65-0.564,1.049c-0.132,0.4-0.197,0.828-0.197,1.285
		c0,0.455,0.055,0.881,0.168,1.277c0.111,0.396,0.283,0.74,0.516,1.031c0.232,0.293,0.527,0.523,0.888,0.691
		s0.788,0.252,1.284,0.252c0.393,0,0.736-0.053,1.032-0.156s0.552-0.25,0.768-0.438c0.216-0.189,0.396-0.408,0.54-0.66
		s0.26-0.527,0.348-0.822h-0.804c-0.112,0.455-0.336,0.809-0.672,1.057s-0.739,0.371-1.212,0.371c-0.344,0-0.648-0.066-0.912-0.197
		c-0.264-0.133-0.482-0.309-0.654-0.529c-0.172-0.219-0.302-0.479-0.39-0.779s-0.132-0.617-0.132-0.955h4.824
		C145.898,34.322,145.658,33.469,145.17,32.881z M141.066,34.842c0.031-0.295,0.1-0.576,0.204-0.84
		c0.104-0.264,0.241-0.496,0.413-0.695c0.173-0.199,0.381-0.359,0.625-0.48c0.244-0.119,0.525-0.18,0.846-0.18
		s0.604,0.059,0.852,0.174s0.455,0.271,0.619,0.469c0.163,0.195,0.287,0.428,0.371,0.695s0.126,0.555,0.126,0.857H141.066z"/>
	<path fill="#221F20" d="M151.938,32.953c-0.239-0.293-0.54-0.525-0.899-0.697c-0.36-0.172-0.785-0.258-1.272-0.258
		c-0.479,0-0.899,0.086-1.26,0.258s-0.66,0.406-0.9,0.703c-0.239,0.295-0.42,0.641-0.54,1.037c-0.119,0.396-0.18,0.822-0.18,1.277
		c0,0.545,0.076,1.021,0.229,1.43c0.151,0.406,0.357,0.748,0.617,1.02s0.564,0.477,0.912,0.611c0.348,0.137,0.723,0.209,1.122,0.217
		c0.433,0,0.826-0.078,1.183-0.234c0.355-0.156,0.66-0.379,0.912-0.666s0.445-0.633,0.582-1.031c0.135-0.4,0.203-0.85,0.203-1.346
		c0-0.455-0.059-0.883-0.174-1.283C152.356,33.59,152.179,33.244,151.938,32.953z M151.759,36.246
		c-0.08,0.312-0.204,0.592-0.372,0.84s-0.387,0.447-0.654,0.594c-0.268,0.148-0.59,0.223-0.966,0.223
		c-0.345,0-0.647-0.064-0.912-0.191c-0.264-0.129-0.483-0.309-0.659-0.541c-0.177-0.232-0.311-0.51-0.402-0.834
		s-0.139-0.678-0.139-1.062c0-0.336,0.041-0.66,0.121-0.977c0.079-0.316,0.203-0.596,0.371-0.84s0.387-0.441,0.654-0.588
		c0.268-0.148,0.59-0.223,0.966-0.223c0.384,0,0.708,0.068,0.972,0.203c0.264,0.137,0.48,0.322,0.648,0.559s0.292,0.514,0.372,0.834
		c0.079,0.32,0.12,0.664,0.12,1.031C151.879,35.609,151.838,35.934,151.759,36.246z"/>
	<path fill="#221F20" d="M157.519,35.268c-0.296-0.131-0.616-0.232-0.96-0.305s-0.664-0.154-0.96-0.246s-0.542-0.213-0.738-0.361
		c-0.196-0.146-0.294-0.361-0.294-0.641c0-0.32,0.12-0.578,0.36-0.775c0.239-0.195,0.588-0.293,1.044-0.293s0.834,0.098,1.134,0.293
		c0.3,0.197,0.481,0.535,0.546,1.016h0.732c-0.088-0.705-0.342-1.207-0.762-1.506c-0.42-0.301-0.967-0.451-1.639-0.451
		c-0.695,0-1.234,0.166-1.613,0.498c-0.381,0.332-0.57,0.758-0.57,1.277c0,0.408,0.098,0.725,0.294,0.949s0.442,0.396,0.737,0.516
		c0.297,0.119,0.616,0.211,0.961,0.27c0.344,0.061,0.664,0.133,0.959,0.217c0.297,0.084,0.543,0.199,0.738,0.348
		c0.196,0.148,0.295,0.375,0.295,0.678c0,0.152-0.033,0.297-0.097,0.432c-0.063,0.137-0.158,0.258-0.282,0.367
		c-0.124,0.107-0.281,0.193-0.474,0.258s-0.42,0.096-0.685,0.096c-0.543,0-0.961-0.109-1.254-0.33
		c-0.292-0.221-0.494-0.598-0.605-1.135h-0.732c0.016,0.297,0.08,0.572,0.192,0.828s0.268,0.48,0.468,0.672
		c0.2,0.193,0.441,0.344,0.727,0.451c0.283,0.107,0.609,0.162,0.978,0.162s0.706-0.039,1.015-0.115
		c0.307-0.074,0.573-0.189,0.797-0.342c0.225-0.15,0.4-0.342,0.528-0.57c0.128-0.227,0.192-0.488,0.192-0.785
		c0-0.4-0.098-0.711-0.295-0.936C158.061,35.578,157.814,35.4,157.519,35.268z"/>
	<rect x="160.074" y="32.166" fill="#221F20" width="0.721" height="6.217"/>
	<rect x="160.039" y="29.742" fill="#221F20" width="0.791" height="1.068"/>
	<path fill="#221F20" d="M167.568,37.848c-0.101-0.076-0.15-0.254-0.15-0.533V33.93c0-0.359-0.059-0.664-0.174-0.912
		c-0.116-0.248-0.275-0.445-0.48-0.594c-0.203-0.146-0.443-0.256-0.72-0.324c-0.276-0.066-0.569-0.102-0.882-0.102
		c-0.336,0-0.654,0.039-0.954,0.115c-0.3,0.074-0.563,0.195-0.792,0.359s-0.414,0.375-0.559,0.635
		c-0.143,0.262-0.228,0.574-0.252,0.943h0.732c0.032-0.271,0.098-0.498,0.198-0.678c0.101-0.182,0.228-0.324,0.384-0.434
		c0.156-0.107,0.338-0.184,0.547-0.227c0.207-0.045,0.436-0.066,0.684-0.066c0.56,0,0.957,0.117,1.193,0.354
		s0.354,0.539,0.354,0.906c0,0.111-0.015,0.234-0.042,0.365c-0.028,0.133-0.102,0.227-0.223,0.283
		c-0.119,0.057-0.273,0.1-0.461,0.131c-0.188,0.033-0.351,0.057-0.486,0.072l-0.996,0.133c-1.448,0.191-2.172,0.816-2.172,1.871
		c0,0.305,0.056,0.566,0.168,0.787c0.111,0.219,0.264,0.406,0.455,0.557c0.193,0.152,0.414,0.266,0.666,0.336
		c0.253,0.072,0.515,0.109,0.787,0.109c0.455,0,0.879-0.088,1.271-0.264s0.74-0.434,1.044-0.77c0,0.113,0.008,0.219,0.024,0.318
		c0.016,0.1,0.046,0.193,0.09,0.277s0.102,0.154,0.174,0.215s0.168,0.098,0.288,0.113c0.104,0.025,0.212,0.037,0.324,0.037
		c0.104,0,0.21-0.016,0.317-0.049c0.108-0.031,0.19-0.055,0.246-0.072v-0.562C167.87,37.906,167.668,37.924,167.568,37.848z
		 M166.698,36.09c0,0.312-0.064,0.582-0.192,0.811s-0.298,0.416-0.51,0.564s-0.454,0.258-0.727,0.33
		c-0.271,0.072-0.551,0.107-0.84,0.107c-0.168,0-0.334-0.021-0.498-0.066c-0.164-0.043-0.308-0.111-0.432-0.203
		s-0.225-0.209-0.3-0.348c-0.076-0.141-0.114-0.307-0.114-0.498c0-0.424,0.154-0.74,0.463-0.949
		c0.307-0.207,0.737-0.332,1.289-0.371c0.312-0.025,0.624-0.057,0.936-0.096c0.312-0.041,0.621-0.125,0.925-0.252V36.09z"/>
	<path fill="#221F20" d="M174.942,33.979c-0.104-0.4-0.271-0.746-0.498-1.039c-0.228-0.291-0.519-0.521-0.87-0.689
		s-0.779-0.252-1.283-0.252c-0.201,0-0.404,0.029-0.612,0.084c-0.208,0.057-0.41,0.137-0.606,0.24
		c-0.195,0.104-0.376,0.236-0.539,0.396c-0.164,0.16-0.299,0.34-0.402,0.539h-0.024v-1.092h-0.72v8.664h0.72v-3.443
		c0.231,0.383,0.55,0.674,0.954,0.869c0.404,0.197,0.826,0.295,1.266,0.295c0.473,0,0.883-0.09,1.23-0.27
		c0.348-0.182,0.636-0.422,0.863-0.721c0.229-0.301,0.398-0.65,0.511-1.051c0.112-0.398,0.168-0.816,0.168-1.248
		C175.099,34.807,175.047,34.379,174.942,33.979z M174.234,36.18c-0.08,0.34-0.208,0.639-0.384,0.895
		c-0.177,0.256-0.402,0.459-0.679,0.605c-0.275,0.148-0.598,0.223-0.965,0.223c-0.328,0-0.623-0.07-0.883-0.211
		c-0.26-0.139-0.48-0.326-0.66-0.562s-0.317-0.512-0.414-0.828c-0.096-0.316-0.144-0.65-0.144-1.002
		c0-0.377,0.046-0.727,0.138-1.051s0.227-0.604,0.402-0.84s0.396-0.422,0.66-0.559c0.264-0.135,0.564-0.203,0.9-0.203
		c0.303,0,0.584,0.055,0.84,0.162s0.479,0.266,0.672,0.475c0.191,0.207,0.342,0.461,0.449,0.762
		c0.108,0.299,0.162,0.646,0.162,1.037C174.346,35.475,174.314,35.84,174.234,36.18z"/>
</g>
</svg>
