<?xml version="1.0" encoding="utf-8"?>
<!-- Generator: Adobe Illustrator 16.0.4, SVG Export Plug-In . SVG Version: 6.00 Build 0)  -->
<!DOCTYPE svg PUBLIC "-//W3C//DTD SVG 1.1//EN" "http://www.w3.org/Graphics/SVG/1.1/DTD/svg11.dtd">
<svg version="1.1" id="Layer_1" xmlns="http://www.w3.org/2000/svg" xmlns:xlink="http://www.w3.org/1999/xlink" x="0px" y="0px"
	 width="24px" height="24px" viewBox="0 0 24 24" enable-background="new 0 0 24 24" xml:space="preserve">
<g>
	<path d="M21.369,18.001h-2.584c-0.276,0-0.5-0.224-0.5-0.5s0.224-0.5,0.5-0.5h2.584c0.869,0,1.631-0.773,1.631-1.655V8.558
		c0-0.858-0.731-1.557-1.631-1.557H2.562C1.687,7.001,1,7.685,1,8.558v6.788c0,0.913,0.701,1.655,1.562,1.655H14.95
		c0.276,0,0.5,0.224,0.5,0.5s-0.224,0.5-0.5,0.5H2.562C1.149,18.001,0,16.81,0,15.346V8.558c0-1.434,1.125-2.557,2.562-2.557h18.807
		c1.45,0,2.631,1.147,2.631,2.557v6.788C24,16.785,22.795,18.001,21.369,18.001z"/>
	<path d="M18.555,23.052L18.555,23.052c-0.268,0-0.516-0.145-0.648-0.377l-0.983-1.727l-0.584,0.585
		c-0.4,0.4-1.169,0.151-1.263-0.402l-1.208-6.928c-0.039-0.216,0.02-0.438,0.16-0.605c0.262-0.312,0.771-0.352,1.073-0.077
		l5.293,4.755c0.213,0.192,0.297,0.48,0.221,0.755c-0.075,0.273-0.296,0.478-0.574,0.532l-0.523,0.104l0.974,1.285
		c0.124,0.163,0.176,0.373,0.142,0.575c-0.034,0.201-0.15,0.382-0.32,0.495l-1.341,0.903C18.85,23.008,18.705,23.052,18.555,23.052z
		 M17.032,19.631c0.022,0,0.044,0.001,0.066,0.005c0.154,0.021,0.291,0.112,0.368,0.248l1.173,2.059l0.893-0.601l-1.295-1.709
		c-0.104-0.137-0.13-0.318-0.069-0.479c0.062-0.161,0.202-0.279,0.371-0.312l0.81-0.16l-4.369-3.926l0.998,5.725l0.701-0.702
		C16.772,19.683,16.9,19.631,17.032,19.631z"/>
</g>
</svg>
