<?xml version="1.0" encoding="utf-8"?>
<!-- Generator: Adobe Illustrator 16.0.4, SVG Export Plug-In . SVG Version: 6.00 Build 0)  -->
<!DOCTYPE svg PUBLIC "-//W3C//DTD SVG 1.1//EN" "http://www.w3.org/Graphics/SVG/1.1/DTD/svg11.dtd">
<svg version="1.1" id="Camada_6" xmlns="http://www.w3.org/2000/svg" xmlns:xlink="http://www.w3.org/1999/xlink" x="0px" y="0px"
	 width="174.503px" height="176.319px" viewBox="213.109 322.445 174.503 176.319"
	 enable-background="new 213.109 322.445 174.503 176.319" xml:space="preserve">
<title>icon_cadeado</title>
<g>
	<path fill="#FFFFFF" d="M386.38,405.25c-0.01-0.009-0.02-0.02-0.03-0.029c-1.627-1.535-4.188-1.47-5.733,0.146l-14.519,15.243
		c-0.673-38.564-29.038-71.74-67.603-76.448c-42.638-4.3-80.689,26.778-84.989,69.417c-4.174,41.392,25.037,78.711,66.22,84.599
		c3.178,0.392,6.376,0.588,9.579,0.587c28.341,0.026,54.417-15.483,67.921-40.4c1.076-1.97,0.353-4.438-1.616-5.514
		s-4.438-0.353-5.514,1.617c-18.384,33.677-60.589,46.075-94.267,27.69c-33.678-18.384-46.075-60.589-27.691-94.266
		c13.634-24.976,41.12-39.113,69.366-35.678c35.004,4.311,60.636,34.814,60.515,70.034l-16.691-15.89
		c-1.677-1.489-4.243-1.336-5.732,0.341c-1.416,1.596-1.356,4.015,0.138,5.539l23.037,21.942c0.132,0.099,0.27,0.188,0.413,0.268
		c0.428,0.347,0.934,0.581,1.475,0.682c0.138,0.054,0.279,0.1,0.422,0.138c0.078,0,0.156,0,0.233,0s0.164,0.043,0.25,0.043
		c0.166-0.021,0.33-0.054,0.491-0.095c0.494-0.012,0.975-0.161,1.389-0.431c0.312-0.161,0.603-0.364,0.862-0.604
		c0.052-0.052,0.129-0.068,0.189-0.129l21.976-23.071C388.028,409.372,387.988,406.808,386.38,405.25z"/>
	<path fill="#FFFFFF" d="M288.779,381.873c-11.208,0-20.355,8.561-20.355,19.088v11.915c-5.186,0.667-9.044,5.119-8.966,10.347
		l2.767,28.201c0.047,5.68,4.666,10.259,10.346,10.259h32.365c5.717,0,10.346-4.595,10.346-9.862l2.812-28.995
		c-0.069-5.115-3.921-9.387-9.002-9.983v-11.915C309.126,390.434,299.995,381.873,288.779,381.873z M276.536,400.927
		c0-6.018,5.492-10.94,12.243-10.94v0.008c6.742,0,12.225,4.923,12.225,10.967v11.604h-24.468V400.927z M310.023,422.455v0.009
		l-2.811,28.994c-0.033,1.211-1.039,2.167-2.25,2.138h-32.366c-1.286-0.028-2.304-1.093-2.276-2.378
		c0.001-0.053,0.004-0.104,0.009-0.156l-2.768-28.201c0.033-1.211,1.039-2.167,2.25-2.139h37.935
		C308.824,420.674,309.782,421.404,310.023,422.455z"/>
	<path fill="#FFFFFF" d="M288.77,431.094c-2.243,0-4.061,1.818-4.061,4.061v7.337c-0.004,2.243,1.81,4.064,4.053,4.069
		c2.243,0.004,4.064-1.811,4.069-4.054c0-0.005,0-0.01,0-0.016v-7.337C292.831,432.912,291.013,431.094,288.77,431.094z"/>
</g>
</svg>
