<?xml version="1.0" encoding="utf-8"?>
<!-- Generator: Adobe Illustrator 16.0.4, SVG Export Plug-In . SVG Version: 6.00 Build 0)  -->
<!DOCTYPE svg PUBLIC "-//W3C//DTD SVG 1.1//EN" "http://www.w3.org/Graphics/SVG/1.1/DTD/svg11.dtd">
<svg version="1.1" id="Layer_1" xmlns:sketch="http://www.bohemiancoding.com/sketch/ns"
	 xmlns="http://www.w3.org/2000/svg" xmlns:xlink="http://www.w3.org/1999/xlink" x="0px" y="0px" width="49px" height="49px"
	 viewBox="0 0 49 49" enable-background="new 0 0 49 49" xml:space="preserve">
<title>thin-0394_business_handshake_deal_contract_sign</title>
<desc>Created with Sketch.</desc>
<g id="Group_1_" transform="translate(2.000000, 12.000000)" sketch:type="MSShapeGroup">
	<g id="Shape_10_">
		
			<rect x="26.22" y="15.42" transform="matrix(0.7658 0.643 -0.643 0.7658 17.5279 -14.793)" fill="#747474" width="5.71" height="2.499"/>
	</g>
	<g id="Shape_9_">
		
			<rect x="23.159" y="18.023" transform="matrix(0.7738 0.6334 -0.6334 0.7738 17.9658 -11.768)" fill="#747474" width="4.604" height="2.5"/>
	</g>
	<g id="Shape_8_">
		<path fill="#747474" d="M20.886,26.489c-0.775,0-1.619-0.288-2.428-0.973c-1.032-0.796-10.504-8.197-11.855-12.083l2.361-0.821
			c0.834,2.399,7.23,7.997,11.065,10.96c0.288,0.243,0.897,0.675,1.274,0.227c0.172-0.204,0.328-0.664-0.182-1.096l-1.615-1.562
			l1.74-1.795l1.553,1.506c1.536,1.298,1.433,3.355,0.412,4.562C22.659,26.068,21.823,26.489,20.886,26.489z"/>
	</g>
	<g id="Shape_7_">
		<path fill="#747474" d="M26.154,25.804c-0.763,0-1.582-0.278-2.36-0.937l-4.236-3.679l1.64-1.887l4.223,3.668
			c0.346,0.29,0.855,0.554,1.26,0.076c0.022-0.025,0.533-0.645-0.091-1.176l-0.002-0.001c0,0,0,0-0.001-0.001l1.614-1.909
			l0.001,0.001l0,0l1.065,0.899c0.256,0.218,0.497,0.274,0.759,0.18c0.348-0.124,0.66-0.494,0.727-0.859
			c0.05-0.276-0.045-0.506-0.299-0.721l1.614-1.909l0.164,0.139c0.256,0.216,0.495,0.274,0.76,0.179
			c0.349-0.125,0.661-0.495,0.727-0.86c0.05-0.275-0.045-0.504-0.299-0.718L23.525,8.22c-0.585,0.19-1.285,0.371-1.922,0.415
			c-0.76,1.014-2.412,2.935-4.24,3.27c-0.844,0.157-1.652-0.026-2.335-0.524c-1.205-0.878-1.635-2.599-1.152-4.603
			c0.723-2.997,3.423-6.332,7.831-7.049c0.639-0.141,3.672-0.547,9.966,2.606l2.049-0.621l0.725,2.393L31.433,5.02l-0.45-0.232
			c-6.11-3.148-8.699-2.624-8.725-2.621l-0.112,0.023c-3.298,0.521-5.309,2.973-5.84,5.173c-0.25,1.035-0.091,1.788,0.194,1.996
			c0.11,0.08,0.219,0.122,0.412,0.086c0.937-0.172,2.354-1.755,3.016-2.771l0.504-0.773l0.887,0.254
			c0.241,0.027,1.235-0.221,2.005-0.516L24,5.381l11.017,8.984c0.954,0.807,1.372,1.926,1.162,3.086
			c-0.226,1.252-1.145,2.339-2.342,2.769c-0.194,0.07-0.391,0.121-0.588,0.152c-0.009,0.084-0.021,0.168-0.036,0.253
			c-0.227,1.252-1.146,2.339-2.343,2.768c-0.547,0.196-1.111,0.24-1.651,0.139c-0.137,0.415-0.352,0.802-0.629,1.13
			C28.005,25.353,27.125,25.804,26.154,25.804z"/>
	</g>
	<g id="Rectangle-path_4_">
		<path fill="#747474" d="M7.527,18.815l-9.816-2.783L2.74-1.717l9.816,2.782L7.527,18.815z M0.798,14.31l5.006,1.418L9.47,2.788
			L4.464,1.37L0.798,14.31z"/>
	</g>
	<g id="Rectangle-path_3_">
		<path fill="#747474" d="M37.563,19.25L32.536,1.497l9.816-2.78l5.026,17.752L37.563,19.25z M35.622,3.222l3.666,12.941
			l5.005-1.418L40.628,1.804L35.622,3.222z"/>
	</g>
	<g id="Shape_6_">
		<path fill="#747474" d="M11.304,3.939c0.002-0.001,0.261-0.116,0.446-0.45L9.56,2.282C9.875,1.711,10.267,1,18.848,0.813
			l0.055,2.499C12.611,3.449,11.419,3.89,11.304,3.939z"/>
	</g>
	<g id="Shape_5_">
		<path fill="#747474" d="M35.879,17.786c-0.663,0-1.173-0.122-1.29-0.152l0.619-2.422c0.317,0.077,1.314,0.193,1.723-0.274
			l1.881,1.646C37.956,17.562,36.777,17.786,35.879,17.786z"/>
	</g>
</g>
</svg>
