<?xml version="1.0" encoding="utf-8"?>
<!-- Generator: Adobe Illustrator 16.0.4, SVG Export Plug-In . SVG Version: 6.00 Build 0)  -->
<!DOCTYPE svg PUBLIC "-//W3C//DTD SVG 1.1//EN" "http://www.w3.org/Graphics/SVG/1.1/DTD/svg11.dtd">
<svg version="1.1" id="Login" xmlns="http://www.w3.org/2000/svg" xmlns:xlink="http://www.w3.org/1999/xlink" x="0px" y="0px"
	 width="191.662px" height="184.002px" viewBox="201.759 314.445 191.662 184.002"
	 enable-background="new 201.759 314.445 191.662 184.002" xml:space="preserve">
<title>icon_erro_500</title>
<g>
	<path fill="#FFFFFF" d="M376.285,345.333c-0.748-1.175-2.045-1.886-3.438-1.886H222.354c-1.393,0-2.689,0.711-3.438,1.886
		c-11.381,17.858-17.158,36.977-17.158,56.85c0,45.362,28.818,85.506,68.521,95.454c2.278,0.562,4.617,0.833,6.962,0.809h40.695
		c2.341,0.025,4.677-0.243,6.951-0.797c39.714-9.959,68.532-50.104,68.532-95.465C393.453,382.31,387.677,363.191,376.285,345.333z
		 M322.916,489.737v0.011c-1.623,0.388-3.288,0.572-4.957,0.55h-40.728c-1.673,0.021-3.342-0.167-4.968-0.561
		c-35.565-8.902-62.357-46.536-62.357-87.543c0-17.589,4.947-34.595,14.711-50.578h145.967c9.764,15.983,14.71,32.989,14.71,50.578
		C385.295,443.212,358.482,480.824,322.916,489.737z"/>
	<path fill="#FFFFFF" d="M375.898,394.391c-10.099,0-18.882-4.871-21.382-11.854c-1.477-4.085-8.019-4.085-9.484,0
		c-2.5,6.983-11.283,11.854-21.382,11.854s-18.882-4.871-21.382-11.854c-1.487-4.074-8.008-4.106-9.484,0
		c-2.5,6.983-11.284,11.854-21.382,11.854c-10.098,0-18.893-4.871-21.382-11.854c-1.477-4.085-8.008-4.085-9.484,0
		c-2.5,6.983-11.284,11.854-21.382,11.854c-2.253,0-4.079,1.826-4.079,4.079c0,2.253,1.826,4.08,4.079,4.08
		c10.907,0,20.822-4.656,26.124-11.855c5.302,7.167,15.218,11.855,26.135,11.855c10.917,0,20.822-4.656,26.135-11.855
		c5.303,7.167,15.217,11.855,26.124,11.855c10.906,0,20.821-4.656,26.135-11.855c5.303,7.167,15.218,11.855,26.124,11.855
		c2.253-0.009,4.072-1.843,4.063-4.096C379.984,396.201,378.151,394.382,375.898,394.391z"/>
	<path fill="#FFFFFF" d="M336.787,425.796c-0.088-2.254-1.987-4.01-4.241-3.922c-0.124,0.005-0.248,0.015-0.372,0.031
		c-3.373,0.442-11.315,5.723-15.799,9.021c-10.163-8.535-19.938-12.846-29.099-12.846c-14.775,0-23.774,10.906-28.43,16.564
		c-2.455,3.06-2.313,7.452,0.334,10.347c4.312,5.237,13.321,16.165,28.096,16.165c9.171,0,18.958-4.311,29.099-12.846
		c4.472,3.298,12.426,8.622,15.799,9.021c2.237,0.293,4.288-1.282,4.581-3.519c0.017-0.123,0.027-0.248,0.032-0.372
		c0-0.927,0.226-8.233-2.36-13.816C337.013,434.03,336.82,426.723,336.787,425.796z M313.497,439.979
		c-9.549,8.621-18.321,12.997-26.231,12.997c-10.928,0-18.009-8.622-21.792-13.569c3.793-4.602,10.863-13.18,21.792-13.18
		c7.867,0,16.693,4.375,26.231,12.997c0.151,0.139,0.313,0.266,0.485,0.377C313.812,439.717,313.65,439.843,313.497,439.979z
		 M326.43,441.994v-0.011c0.834,1.334,1.392,2.822,1.638,4.376c-3.085-1.881-6.055-3.947-8.891-6.187
		c-0.214-0.224-0.452-0.423-0.711-0.593c0.243-0.152,0.471-0.33,0.679-0.527c2.85-2.259,5.833-4.343,8.935-6.24
		c-0.248,1.561-0.805,3.055-1.639,4.397C325.408,438.637,325.405,440.563,326.43,441.994z"/>
	<path fill="#FFFFFF" d="M275.001,434.493c-0.792,0.737-1.234,1.774-1.218,2.856c0,1.104,0.438,2.161,1.218,2.941
		c1.631,1.547,4.197,1.514,5.788-0.075c1.558-1.627,1.524-4.202-0.076-5.787C279.093,432.933,276.587,432.961,275.001,434.493z"/>
</g>
</svg>
