<?xml version="1.0" encoding="utf-8"?>
<!-- Generator: Adobe Illustrator 16.0.4, SVG Export Plug-In . SVG Version: 6.00 Build 0)  -->
<!DOCTYPE svg PUBLIC "-//W3C//DTD SVG 1.1//EN" "http://www.w3.org/Graphics/SVG/1.1/DTD/svg11.dtd">
<svg version="1.1" id="Layer_1" xmlns="http://www.w3.org/2000/svg" xmlns:xlink="http://www.w3.org/1999/xlink" x="0px" y="0px"
	 width="41.336px" height="38.33px" viewBox="0.786 6.28 41.336 38.33" enable-background="new 0.786 6.28 41.336 38.33"
	 xml:space="preserve">
<g>
	<title>planejamento-orcamentario</title>
	<desc>Created with Sketch.</desc>
	<g id="Group-13" transform="translate(0.000000, 0.890600)">
		<g id="Clip-6">
		</g>
		<g id="Clip-12">
		</g>
	</g>
	<g>
		<path fill="#221F20" d="M21.455,44.61c-3.367,0-6.585-0.789-9.565-2.349l-0.301-0.157l-0.125-0.315
			c-0.39-0.988-0.271-2.136,0.312-2.992c0.451-0.664,1.371-1.454,3.195-1.454c0.528,0,1.109,0.069,1.726,0.204
			c1.161,0.257,2.423,0.386,3.753,0.386c3.492,0,9.42-0.921,17.831-5.308l2.768-1.44l-1.431,2.628
			C35.99,40.472,29.03,44.61,21.455,44.61z M13.082,40.822c2.619,1.303,5.434,1.963,8.373,1.963c5.795,0,11.193-2.655,14.735-7.095
			c-5.842,2.7-11.125,4.067-15.741,4.067c-1.461,0-2.856-0.145-4.145-0.429c-0.488-0.106-0.938-0.16-1.334-0.16
			c-0.566,0-1.318,0.113-1.686,0.654C13.077,40.128,13.034,40.504,13.082,40.822z"/>
	</g>
	<g>
		<path fill="#221F20" d="M41.573,28.754L40.7,28.613c-4.938-0.793-13.89-8.872-20.194-14.88c-0.594-0.565-1.154-1.1-1.275-1.194
			c-4.801-3.715-7.136-2.774-7.405-2.633l-0.89-1.593c2.262-1.349,4.715-2.033,7.291-2.033c4.691,0,8.874,2.208,11.927,3.819
			c1.436,0.758,2.792,1.474,3.423,1.494l0.141,0.002c0.515,0,0.895-0.104,1.042-0.287c0.186-0.23,0.107-0.689,0.078-0.825
			l-0.67-3.146l2.222,2.325c3.696,3.866,5.731,8.937,5.731,14.278c0,1.316-0.128,2.643-0.381,3.944L41.573,28.754z M15.655,8.371
			c1.448,0.518,3.018,1.428,4.693,2.726c0.185,0.143,0.545,0.485,1.417,1.316c3.333,3.177,13.097,12.481,18.343,14.181
			c0.125-0.881,0.188-1.769,0.188-2.651c0-4.25-1.414-8.313-4.015-11.622c-0.032,0.047-0.066,0.093-0.102,0.138
			c-0.518,0.64-1.346,0.963-2.461,0.963l-0.201-0.003c-1.05-0.034-2.378-0.735-4.215-1.704c-2.885-1.523-6.837-3.609-11.075-3.609
			C17.342,8.105,16.488,8.193,15.655,8.371z"/>
	</g>
	<g>
		<path fill="#221F20" d="M28.348,33.9c-6.633,0-12.754-2.14-17.671-3.86c-2.84-0.993-5.292-1.85-6.762-1.85
			c-0.803,0-0.987,0.255-1.055,0.35l-1.21,1.682l-0.424-2.029c-0.292-1.395-0.44-2.826-0.44-4.25c0-1.729,0.215-3.452,0.641-5.12
			l0.047-0.184l0.115-0.149c2.374-3.071,5.06-4.628,7.985-4.628c1.986,0,4.061,0.766,5.843,2.158
			c16.495,12.671,22.738,14.195,22.799,14.209l2.774,0.632l-2.618,1.102C35.3,33.247,31.928,33.9,28.348,33.9z M3.915,26.365
			c1.78,0,4.244,0.863,7.364,1.953c4.787,1.674,10.745,3.758,17.069,3.758c2.456,0,4.803-0.327,7.006-0.977
			c-3.209-1.421-9.764-4.962-21.005-13.599c-1.518-1.185-3.195-1.814-4.775-1.814c-2.286,0-4.446,1.269-6.424,3.77
			c-0.357,1.464-0.538,2.972-0.538,4.486c0,0.856,0.059,1.715,0.175,2.567C3.123,26.414,3.5,26.365,3.915,26.365z"/>
	</g>
</g>
</svg>
