<?xml version="1.0" encoding="utf-8"?>
<!-- Generator: Adobe Illustrator 16.0.4, SVG Export Plug-In . SVG Version: 6.00 Build 0)  -->
<!DOCTYPE svg PUBLIC "-//W3C//DTD SVG 1.1//EN" "http://www.w3.org/Graphics/SVG/1.1/DTD/svg11.dtd">
<svg version="1.1" id="Layer_1" xmlns="http://www.w3.org/2000/svg" xmlns:xlink="http://www.w3.org/1999/xlink" x="0px" y="0px"
	 width="175px" height="52px" viewBox="0 0 175 52" enable-background="new 0 0 175 52" xml:space="preserve">
<title>gestao-de-governo</title>
<desc>Created with Sketch.</desc>
<g id="Group-13" transform="translate(0.000000, 0.891600)">
	<g id="Clip-6">
	</g>
	<g id="Clip-12">
	</g>
</g>
<g>
	<path fill="#221F20" d="M16.219,40.049c-4.38-0.963-5.194,1.773-4.589,3.305c2.996,1.566,6.401,2.459,10.018,2.459
		c8.212,0,15.355-4.574,19.023-11.311C38.158,35.811,26.087,42.221,16.219,40.049z"/>
	<path fill="#221F20" d="M34.898,11.633c-3.374-0.11-13.724-10.022-24.263-3.734c0.608-0.318,3.517-1.409,9.189,2.981
		c1.067,0.827,16.268,16.321,23.071,17.416c0.26-1.338,0.399-2.719,0.399-4.132c0-5.802-2.287-11.067-6.003-14.954
		C37.456,9.985,37.533,11.72,34.898,11.633z"/>
	<path fill="#221F20" d="M39.798,32.027c0,0-6.758-1.45-25.327-15.715c-0.595-0.456-7.248-5.992-13.8,2.488
		C0.234,20.516,0,22.312,0,24.165c0,1.526,0.16,3.015,0.461,4.453C3.587,24.278,22.283,39.371,39.798,32.027z"/>
	<rect x="52.295" y="0.811" fill="#221F20" width="2" height="50"/>
	<path fill="#221F20" d="M70.907,15.431c1.358,0,2.478-0.254,3.359-0.76c0.524-0.293,1.126-0.82,1.806-1.578l0.492,1.938h1.312
		v-8.06h-6.614v1.692h4.717c-0.021,1.764-0.468,3.04-1.342,3.829c-0.874,0.79-1.978,1.185-3.311,1.185
		c-1.742,0-2.998-0.562-3.768-1.687c-0.771-1.125-1.156-2.582-1.156-4.374c0-2.07,0.467-3.629,1.401-4.676
		c0.934-1.045,2.083-1.568,3.449-1.568c1.151,0,2.105,0.251,2.862,0.754c0.756,0.502,1.255,1.304,1.496,2.404h2.02
		c-0.33-1.969-1.233-3.346-2.708-4.133c-1.018-0.546-2.223-0.82-3.618-0.82c-2.035,0-3.692,0.712-4.973,2.133
		c-1.347,1.491-2.021,3.497-2.021,6.02c0,2.529,0.689,4.519,2.068,5.968C67.642,14.853,69.152,15.431,70.907,15.431z"/>
	<path fill="#221F20" d="M85.228,15.42c0.557,0,1.055-0.055,1.496-0.164c0.821-0.191,1.509-0.561,2.066-1.107
		c0.332-0.314,0.634-0.72,0.903-1.215c0.27-0.496,0.43-0.945,0.477-1.349h-1.814c-0.133,0.487-0.359,0.917-0.678,1.288
		c-0.57,0.639-1.333,0.958-2.289,0.958c-1.024,0-1.78-0.338-2.269-1.014c-0.489-0.675-0.75-1.571-0.784-2.688h7.988
		c0-1.107-0.055-1.914-0.163-2.42c-0.122-0.738-0.366-1.384-0.733-1.938c-0.381-0.58-0.935-1.054-1.662-1.42
		c-0.727-0.365-1.478-0.549-2.252-0.549c-1.536,0-2.779,0.551-3.73,1.651s-1.427,2.532-1.427,4.296c0,1.792,0.472,3.185,1.417,4.179
		C82.718,14.923,83.87,15.42,85.228,15.42z M83.282,6.331c0.569-0.612,1.274-0.918,2.115-0.918c1.173,0,2.01,0.444,2.512,1.333
		c0.271,0.479,0.444,1.117,0.519,1.918h-6.05C82.411,7.72,82.713,6.942,83.282,6.331z"/>
	<path fill="#221F20" d="M100.036,14.384c0.751-0.71,1.126-1.555,1.126-2.532c0-1.012-0.358-1.753-1.076-2.226
		c-0.46-0.3-1.365-0.611-2.717-0.933l-1.242-0.298c-0.544-0.129-0.955-0.279-1.233-0.45C94.41,7.66,94.17,7.279,94.17,6.802
		c0-0.437,0.184-0.787,0.551-1.053s0.908-0.398,1.621-0.398c1.07,0,1.823,0.241,2.258,0.724c0.266,0.341,0.416,0.718,0.451,1.132
		h1.742c0.014-0.71-0.211-1.373-0.676-1.988c-0.74-0.971-1.949-1.457-3.626-1.457c-1.282,0-2.302,0.322-3.061,0.965
		s-1.138,1.483-1.138,2.521c0,0.883,0.402,1.573,1.209,2.072c0.451,0.287,1.153,0.547,2.105,0.779l1.489,0.369
		c0.8,0.198,1.334,0.372,1.604,0.522c0.424,0.246,0.637,0.604,0.637,1.077c0,0.622-0.266,1.081-0.796,1.379
		c-0.53,0.297-1.145,0.445-1.842,0.445c-1.173,0-1.995-0.297-2.47-0.892c-0.259-0.328-0.416-0.8-0.471-1.415h-1.774
		c0.048,1.094,0.417,2.012,1.105,2.753c0.688,0.742,1.86,1.112,3.515,1.112C98.142,15.451,99.285,15.095,100.036,14.384z"/>
	<path fill="#221F20" d="M103.531,12.826c0,0.705,0.154,1.277,0.461,1.718c0.309,0.441,0.893,0.661,1.754,0.661
		c0.267,0,0.514-0.014,0.743-0.041s0.45-0.071,0.661-0.133v-1.467c-0.137,0.019-0.256,0.03-0.358,0.035
		c-0.103,0.004-0.198,0.006-0.287,0.006c-0.335,0-0.574-0.037-0.718-0.112c-0.26-0.13-0.39-0.386-0.39-0.769V5.556h1.753V4.048
		h-1.753V0.983h-1.866v3.065h-1.486v1.508h1.486V12.826z"/>
	<path fill="#221F20" d="M114.883,8.384l-2.943,0.369c-1.032,0.13-1.866,0.475-2.502,1.034s-0.953,1.349-0.953,2.366
		c0,0.929,0.322,1.701,0.969,2.319s1.479,0.927,2.496,0.927c0.848,0,1.624-0.182,2.328-0.543c0.704-0.362,1.244-0.79,1.62-1.282
		c0.062,0.438,0.167,0.776,0.317,1.016c0.287,0.45,0.749,0.677,1.385,0.677c0.26,0,0.465-0.011,0.615-0.031s0.369-0.072,0.656-0.154
		v-1.363c-0.116,0.021-0.226,0.036-0.328,0.046c-0.103,0.011-0.195,0.016-0.277,0.016c-0.252,0-0.418-0.058-0.496-0.174
		c-0.08-0.116-0.119-0.27-0.119-0.462V6.818c0-1.039-0.398-1.805-1.197-2.297c-0.807-0.492-1.854-0.738-3.145-0.738
		c-1.113,0-2.092,0.266-2.935,0.797s-1.282,1.476-1.315,2.832h1.723c0.068-0.569,0.215-0.999,0.439-1.288
		c0.402-0.521,1.085-0.782,2.047-0.782c0.832,0,1.472,0.142,1.918,0.427c0.447,0.285,0.671,0.743,0.671,1.374
		c0,0.309-0.041,0.546-0.123,0.71C115.59,8.153,115.307,8.331,114.883,8.384z M115.805,10.934c0,1.133-0.512,1.948-1.537,2.446
		c-0.609,0.301-1.238,0.451-1.887,0.451c-0.533,0-0.995-0.154-1.385-0.461s-0.584-0.727-0.584-1.258
		c0-0.703,0.285-1.215,0.855-1.535c0.338-0.19,0.84-0.331,1.508-0.419l1.116-0.144c0.341-0.041,0.688-0.109,1.044-0.206
		c0.354-0.096,0.645-0.216,0.869-0.359V10.934z"/>
	<path fill="#221F20" d="M111.084,1.68c0.152-0.157,0.35-0.235,0.589-0.235c0.191,0,0.388,0.028,0.589,0.087
		c0.202,0.058,0.464,0.146,0.785,0.261l0.543,0.195c0.178,0.068,0.383,0.13,0.615,0.185s0.424,0.082,0.574,0.082
		c0.486,0,0.932-0.164,1.338-0.492c0.407-0.328,0.683-0.926,0.826-1.794h-1.076c-0.035,0.26-0.096,0.454-0.186,0.584
		c-0.164,0.239-0.438,0.359-0.82,0.359c-0.164,0-0.324-0.024-0.481-0.072s-0.331-0.113-0.522-0.195
		c-0.479-0.205-0.86-0.341-1.145-0.41c-0.283-0.067-0.541-0.102-0.773-0.102c-0.766,0-1.344,0.314-1.732,0.943
		c-0.205,0.342-0.353,0.782-0.441,1.322h1.005C110.825,2.077,110.93,1.837,111.084,1.68z"/>
	<path fill="#221F20" d="M124.824,15.42c1.799,0,3.127-0.577,3.981-1.731c0.855-1.154,1.283-2.616,1.283-4.385
		c0-1.83-0.485-3.217-1.456-4.159s-2.158-1.414-3.563-1.414c-1.568,0-2.817,0.547-3.747,1.64s-1.395,2.561-1.395,4.405
		c0,1.721,0.44,3.092,1.323,4.113C122.133,14.91,123.324,15.42,124.824,15.42z M122.584,6.631c0.508-0.86,1.318-1.29,2.434-1.29
		c1.258,0,2.143,0.505,2.656,1.516c0.325,0.642,0.487,1.475,0.487,2.499c0,1.133-0.225,2.162-0.675,3.088
		c-0.449,0.925-1.279,1.388-2.488,1.388c-1.102,0-1.906-0.39-2.414-1.168c-0.506-0.778-0.76-1.751-0.76-2.919
		C121.824,8.53,122.078,7.492,122.584,6.631z"/>
	<path fill="#221F20" d="M71.908,30.703v1.527h1.661V17.117h-1.774v5.548c-0.416-0.514-0.787-0.872-1.113-1.077
		c-0.565-0.355-1.267-0.533-2.104-0.533c-1.512,0-2.675,0.586-3.488,1.759c-0.814,1.172-1.221,2.559-1.221,4.158
		c0,1.709,0.446,3.078,1.338,4.107c0.893,1.027,1.948,1.543,3.167,1.543c0.756,0,1.426-0.15,2.012-0.451
		C70.972,31.869,71.479,31.379,71.908,30.703z M68.95,31.01c-1.095,0-1.891-0.395-2.388-1.189c-0.497-0.791-0.745-1.775-0.745-2.953
		c0-1.379,0.287-2.425,0.862-3.136s1.325-1.066,2.25-1.066c0.83,0,1.527,0.333,2.091,0.999c0.564,0.667,0.847,1.694,0.847,3.081
		c0,1.375-0.274,2.43-0.821,3.164C70.498,30.643,69.8,31.01,68.95,31.01z"/>
	<path fill="#221F20" d="M82.069,32.457c0.821-0.191,1.509-0.561,2.066-1.107c0.332-0.314,0.633-0.721,0.904-1.215
		c0.27-0.496,0.429-0.945,0.477-1.35H83.7c-0.133,0.488-0.359,0.918-0.678,1.289c-0.57,0.639-1.333,0.957-2.289,0.957
		c-1.024,0-1.78-0.338-2.269-1.014c-0.489-0.674-0.75-1.57-0.784-2.688h7.988c0-1.108-0.055-1.915-0.163-2.42
		c-0.123-0.738-0.367-1.384-0.734-1.938c-0.38-0.58-0.934-1.054-1.661-1.42c-0.727-0.365-1.478-0.549-2.252-0.549
		c-1.536,0-2.779,0.551-3.73,1.651s-1.427,2.532-1.427,4.295c0,1.793,0.472,3.186,1.417,4.18s2.096,1.492,3.454,1.492
		C81.129,32.621,81.628,32.566,82.069,32.457z M78.627,23.531c0.569-0.612,1.274-0.918,2.115-0.918c1.173,0,2.01,0.444,2.512,1.333
		c0.271,0.479,0.444,1.117,0.519,1.918h-6.05C77.756,24.92,78.058,24.142,78.627,23.531z"/>
	<path fill="#221F20" d="M105.264,30.293l0.492,1.938h1.312v-8.059h-6.613v1.692h4.717c-0.021,1.763-0.468,3.041-1.342,3.83
		c-0.875,0.789-1.979,1.184-3.312,1.184c-1.741,0-2.998-0.562-3.769-1.686c-0.77-1.125-1.155-2.582-1.155-4.375
		c0-2.07,0.467-3.629,1.401-4.676c0.934-1.045,2.083-1.568,3.449-1.568c1.15,0,2.104,0.251,2.861,0.754
		c0.756,0.502,1.256,1.304,1.496,2.404h2.02c-0.33-1.969-1.232-3.346-2.708-4.133c-1.018-0.546-2.224-0.82-3.618-0.82
		c-2.035,0-3.691,0.712-4.973,2.133c-1.347,1.491-2.021,3.497-2.021,6.02c0,2.529,0.689,4.519,2.067,5.968
		c1.265,1.154,2.774,1.732,4.529,1.732c1.358,0,2.479-0.254,3.359-0.76C103.982,31.578,104.585,31.051,105.264,30.293z"/>
	<path fill="#221F20" d="M118.306,30.889c0.855-1.154,1.283-2.615,1.283-4.385c0-1.83-0.485-3.216-1.456-4.159
		s-2.158-1.414-3.563-1.414c-1.568,0-2.817,0.547-3.747,1.64s-1.395,2.561-1.395,4.406c0,1.721,0.44,3.092,1.323,4.113
		c0.882,1.02,2.073,1.531,3.573,1.531C116.123,32.621,117.451,32.043,118.306,30.889z M114.498,31.031
		c-1.102,0-1.906-0.389-2.414-1.168c-0.506-0.777-0.76-1.75-0.76-2.918c0-1.215,0.254-2.253,0.76-3.114
		c0.508-0.86,1.318-1.29,2.434-1.29c1.258,0,2.143,0.505,2.656,1.516c0.325,0.642,0.487,1.475,0.487,2.5
		c0,1.133-0.225,2.162-0.675,3.088C116.537,30.568,115.707,31.031,114.498,31.031z"/>
	<polygon fill="#221F20" points="125.695,30.189 122.762,21.249 120.619,21.249 124.67,32.23 126.637,32.23 130.771,21.249 
		128.75,21.249 	"/>
	<path fill="#221F20" d="M141.543,28.785h-1.815c-0.133,0.488-0.358,0.918-0.678,1.289c-0.569,0.639-1.333,0.957-2.289,0.957
		c-1.024,0-1.78-0.338-2.269-1.014c-0.488-0.674-0.75-1.57-0.783-2.688h7.987c0-1.108-0.055-1.915-0.163-2.42
		c-0.123-0.738-0.367-1.384-0.734-1.938c-0.38-0.58-0.934-1.054-1.66-1.42c-0.728-0.365-1.479-0.549-2.252-0.549
		c-1.536,0-2.779,0.551-3.73,1.651s-1.427,2.532-1.427,4.295c0,1.793,0.472,3.186,1.417,4.18c0.943,0.994,2.096,1.492,3.453,1.492
		c0.557,0,1.056-0.055,1.496-0.164c0.821-0.191,1.51-0.561,2.066-1.107c0.332-0.314,0.633-0.721,0.904-1.215
		C141.336,29.639,141.494,29.189,141.543,28.785z M134.654,23.531c0.569-0.612,1.274-0.918,2.115-0.918
		c1.172,0,2.01,0.444,2.512,1.333c0.271,0.479,0.443,1.117,0.518,1.918h-6.049C133.783,24.92,134.085,24.142,134.654,23.531z"/>
	<path fill="#221F20" d="M149.125,22.961c0.093,0.007,0.193,0.021,0.303,0.041v-1.948c-0.198-0.021-0.338-0.034-0.42-0.041
		s-0.141-0.011-0.175-0.011c-0.731,0-1.378,0.266-1.938,0.795c-0.561,0.53-0.912,0.979-1.056,1.349v-1.897h-1.753V32.23h1.846
		v-6.316c0-0.779,0.249-1.468,0.748-2.066c0.499-0.598,1.213-0.896,2.143-0.896C148.932,22.952,149.033,22.955,149.125,22.961z"/>
	<path fill="#221F20" d="M156.369,21.002c-0.711,0-1.356,0.141-1.938,0.421s-1.131,0.742-1.65,1.384v-1.559h-1.754V32.23h1.846
		v-5.751c0-0.719,0.046-1.271,0.139-1.656c0.092-0.387,0.292-0.761,0.6-1.123c0.383-0.451,0.827-0.752,1.333-0.902
		c0.28-0.089,0.64-0.133,1.077-0.133c0.861,0,1.455,0.342,1.783,1.025c0.199,0.41,0.298,0.95,0.298,1.619v6.921h1.876v-7.044
		c0-1.107-0.15-1.958-0.451-2.553C158.98,21.546,157.928,21.002,156.369,21.002z"/>
	<path fill="#221F20" d="M166.855,32.621c1.799,0,3.126-0.578,3.98-1.732c0.855-1.154,1.283-2.615,1.283-4.385
		c0-1.83-0.484-3.216-1.455-4.159s-2.159-1.414-3.564-1.414c-1.568,0-2.816,0.547-3.746,1.64c-0.931,1.093-1.396,2.561-1.396,4.406
		c0,1.721,0.44,3.092,1.323,4.113C164.164,32.109,165.355,32.621,166.855,32.621z M164.615,23.832c0.507-0.86,1.318-1.29,2.434-1.29
		c1.258,0,2.143,0.505,2.656,1.516c0.324,0.642,0.486,1.475,0.486,2.5c0,1.133-0.225,2.162-0.674,3.088
		c-0.449,0.924-1.279,1.387-2.488,1.387c-1.103,0-1.907-0.389-2.414-1.168c-0.507-0.777-0.76-1.75-0.76-2.918
		C163.855,25.73,164.108,24.692,164.615,23.832z"/>
	<path fill="#221F20" d="M69.637,40.711c-0.212-0.223-0.5-0.4-0.864-0.527c-0.364-0.129-0.826-0.191-1.386-0.191h-3.156v8.639h0.816
		v-3.816h1.848c0.4,0,0.798-0.035,1.194-0.107s0.75-0.197,1.062-0.377c0.312-0.182,0.566-0.426,0.762-0.738
		c0.196-0.312,0.294-0.709,0.294-1.188c0-0.32-0.042-0.627-0.126-0.92C69.997,41.193,69.849,40.936,69.637,40.711z M69.217,43.238
		c-0.116,0.227-0.28,0.406-0.492,0.539c-0.212,0.133-0.47,0.223-0.774,0.27c-0.304,0.049-0.648,0.072-1.032,0.072h-1.872v-3.432
		h2.112c0.776,0,1.342,0.141,1.698,0.42s0.534,0.691,0.534,1.236C69.391,42.711,69.333,43.01,69.217,43.238z"/>
	<path fill="#221F20" d="M76.135,43.201c-0.24-0.291-0.54-0.523-0.9-0.695s-0.784-0.258-1.272-0.258c-0.48,0-0.9,0.086-1.26,0.258
		c-0.36,0.172-0.66,0.406-0.9,0.701c-0.24,0.297-0.42,0.643-0.54,1.039c-0.12,0.395-0.18,0.82-0.18,1.277
		c0,0.545,0.076,1.02,0.228,1.428c0.152,0.408,0.358,0.748,0.618,1.02c0.26,0.273,0.564,0.477,0.912,0.613
		c0.348,0.135,0.722,0.207,1.122,0.215c0.432,0,0.826-0.078,1.182-0.234c0.356-0.154,0.66-0.377,0.912-0.666
		c0.252-0.287,0.446-0.631,0.582-1.031c0.136-0.4,0.204-0.848,0.204-1.344c0-0.457-0.058-0.885-0.174-1.283
		C76.553,43.84,76.375,43.494,76.135,43.201z M75.955,46.496c-0.08,0.311-0.204,0.592-0.372,0.84s-0.386,0.445-0.654,0.594
		s-0.59,0.221-0.966,0.221c-0.344,0-0.648-0.062-0.912-0.191c-0.264-0.127-0.484-0.307-0.66-0.539
		c-0.176-0.232-0.31-0.51-0.402-0.834c-0.092-0.324-0.138-0.678-0.138-1.062c0-0.336,0.04-0.662,0.12-0.979
		c0.08-0.316,0.204-0.596,0.372-0.84s0.386-0.439,0.654-0.588c0.268-0.148,0.59-0.223,0.966-0.223c0.384,0,0.708,0.068,0.972,0.205
		c0.264,0.137,0.48,0.322,0.648,0.559c0.168,0.234,0.292,0.514,0.372,0.834c0.08,0.318,0.12,0.664,0.12,1.031
		C76.075,45.859,76.035,46.184,75.955,46.496z"/>
	<polygon fill="#221F20" points="83.419,47.672 82.051,42.416 81.247,42.416 79.807,47.719 78.199,42.416 77.479,42.416 
		79.375,48.631 80.239,48.631 81.619,43.412 81.643,43.412 82.999,48.631 83.767,48.631 85.783,42.416 85.051,42.416 	"/>
	<path fill="#221F20" d="M91.375,43.129c-0.488-0.588-1.16-0.881-2.016-0.881c-0.449,0-0.849,0.086-1.201,0.258
		c-0.352,0.172-0.649,0.408-0.894,0.707c-0.244,0.301-0.432,0.65-0.564,1.051c-0.132,0.4-0.198,0.828-0.198,1.283
		c0,0.457,0.056,0.883,0.168,1.279c0.112,0.395,0.284,0.738,0.516,1.031c0.232,0.293,0.528,0.521,0.887,0.689
		c0.361,0.168,0.789,0.252,1.285,0.252c0.392,0,0.735-0.051,1.031-0.156c0.296-0.104,0.553-0.25,0.768-0.438
		c0.217-0.188,0.396-0.408,0.541-0.66c0.144-0.252,0.26-0.525,0.348-0.822h-0.805c-0.111,0.457-0.336,0.809-0.672,1.057
		s-0.739,0.371-1.211,0.371c-0.345,0-0.648-0.064-0.912-0.197c-0.264-0.131-0.482-0.309-0.654-0.527
		c-0.172-0.221-0.302-0.48-0.39-0.781c-0.088-0.299-0.132-0.617-0.132-0.953h4.824C92.103,44.572,91.863,43.717,91.375,43.129z
		 M87.271,45.092c0.032-0.297,0.1-0.576,0.204-0.84c0.104-0.264,0.242-0.496,0.414-0.697c0.172-0.199,0.38-0.359,0.624-0.479
		c0.244-0.121,0.526-0.182,0.847-0.182c0.319,0,0.604,0.059,0.852,0.176c0.248,0.115,0.454,0.271,0.618,0.467
		c0.163,0.197,0.288,0.428,0.372,0.695c0.084,0.27,0.125,0.555,0.125,0.859H87.271z"/>
	<path fill="#221F20" d="M94.279,43.58h-0.024v-1.164h-0.72v6.215h0.72v-3.047c0-0.344,0.03-0.674,0.09-0.99s0.168-0.59,0.324-0.822
		c0.155-0.232,0.366-0.416,0.63-0.553c0.264-0.135,0.6-0.199,1.008-0.191v-0.779c-0.52,0-0.938,0.098-1.254,0.293
		C94.736,42.738,94.479,43.084,94.279,43.58z"/>
	<path fill="#221F20" d="M101.826,43.129c-0.488-0.588-1.16-0.881-2.016-0.881c-0.448,0-0.848,0.086-1.2,0.258
		s-0.649,0.408-0.894,0.707c-0.244,0.301-0.432,0.65-0.564,1.051c-0.132,0.4-0.197,0.828-0.197,1.283
		c0,0.457,0.055,0.883,0.168,1.279c0.111,0.395,0.283,0.738,0.516,1.031s0.527,0.521,0.888,0.689s0.788,0.252,1.284,0.252
		c0.393,0,0.736-0.051,1.032-0.156c0.296-0.104,0.552-0.25,0.768-0.438s0.396-0.408,0.54-0.66s0.26-0.525,0.348-0.822h-0.804
		c-0.112,0.457-0.336,0.809-0.672,1.057s-0.739,0.371-1.212,0.371c-0.344,0-0.648-0.064-0.912-0.197
		c-0.264-0.131-0.482-0.309-0.654-0.527c-0.172-0.221-0.302-0.48-0.39-0.781c-0.088-0.299-0.132-0.617-0.132-0.953h4.824
		C102.555,44.572,102.314,43.717,101.826,43.129z M97.723,45.092c0.031-0.297,0.1-0.576,0.204-0.84
		c0.104-0.264,0.241-0.496,0.413-0.697c0.173-0.199,0.381-0.359,0.625-0.479c0.244-0.121,0.525-0.182,0.846-0.182
		s0.604,0.059,0.852,0.176c0.248,0.115,0.455,0.271,0.619,0.467c0.163,0.197,0.287,0.428,0.371,0.695
		c0.084,0.27,0.126,0.555,0.126,0.859H97.723z"/>
	<path fill="#221F20" d="M108.751,43.412c-0.232-0.385-0.55-0.674-0.954-0.871c-0.404-0.195-0.826-0.293-1.266-0.293
		c-0.473,0-0.883,0.09-1.23,0.27s-0.636,0.42-0.863,0.721c-0.229,0.299-0.398,0.648-0.511,1.049s-0.168,0.816-0.168,1.248
		c0,0.457,0.052,0.885,0.156,1.285c0.104,0.398,0.271,0.744,0.498,1.037s0.518,0.521,0.87,0.689
		c0.352,0.168,0.779,0.252,1.283,0.252c0.2,0,0.404-0.027,0.612-0.084c0.208-0.055,0.41-0.135,0.606-0.24
		c0.195-0.104,0.375-0.232,0.539-0.389s0.299-0.338,0.402-0.547h0.024v1.092h0.72v-8.639h-0.72V43.412z M108.613,46.549
		c-0.092,0.324-0.227,0.605-0.402,0.84c-0.176,0.236-0.396,0.422-0.66,0.559s-0.564,0.203-0.9,0.203c-0.304,0-0.584-0.053-0.84-0.16
		c-0.256-0.109-0.479-0.268-0.672-0.475c-0.191-0.209-0.342-0.463-0.449-0.762c-0.108-0.301-0.162-0.646-0.162-1.039
		c-0.017-0.391,0.016-0.758,0.096-1.098s0.208-0.639,0.384-0.895s0.399-0.457,0.672-0.605s0.597-0.223,0.972-0.223
		c0.328,0,0.623,0.07,0.883,0.211s0.479,0.328,0.66,0.564c0.18,0.236,0.317,0.512,0.414,0.828c0.096,0.314,0.144,0.648,0.144,1.002
		C108.751,45.875,108.705,46.225,108.613,46.549z"/>
	<path fill="#221F20" d="M119.736,43.238c-0.229-0.301-0.516-0.541-0.863-0.721c-0.349-0.18-0.759-0.27-1.23-0.27
		c-0.44,0-0.862,0.098-1.266,0.293c-0.404,0.197-0.723,0.486-0.955,0.871v-3.42h-0.719v8.639h0.719v-1.092h0.024
		c0.104,0.209,0.238,0.391,0.402,0.547c0.163,0.156,0.344,0.285,0.54,0.389c0.195,0.105,0.397,0.186,0.605,0.24
		c0.208,0.057,0.412,0.084,0.612,0.084c0.504,0,0.932-0.084,1.284-0.252c0.352-0.168,0.642-0.396,0.869-0.689
		c0.229-0.293,0.395-0.639,0.498-1.037c0.104-0.4,0.156-0.828,0.156-1.285c0-0.432-0.056-0.848-0.168-1.248
		C120.135,43.887,119.965,43.537,119.736,43.238z M119.484,46.754c-0.107,0.299-0.258,0.553-0.45,0.762
		c-0.192,0.207-0.416,0.365-0.672,0.475c-0.256,0.107-0.536,0.16-0.84,0.16c-0.336,0-0.636-0.066-0.899-0.203
		c-0.265-0.137-0.484-0.322-0.66-0.559c-0.177-0.234-0.311-0.516-0.402-0.84s-0.139-0.674-0.139-1.049
		c0-0.354,0.049-0.688,0.145-1.002c0.096-0.316,0.234-0.592,0.414-0.828s0.4-0.424,0.66-0.564s0.554-0.211,0.882-0.211
		c0.368,0,0.69,0.074,0.966,0.223s0.502,0.35,0.678,0.605s0.305,0.555,0.385,0.895s0.111,0.707,0.096,1.098
		C119.646,46.107,119.592,46.453,119.484,46.754z"/>
	<path fill="#221F20" d="M124.099,47.756l-1.992-5.34h-0.804l2.412,6.254c-0.072,0.137-0.137,0.301-0.192,0.498
		c-0.056,0.195-0.126,0.383-0.21,0.562s-0.19,0.334-0.318,0.461c-0.128,0.129-0.292,0.191-0.492,0.191
		c-0.104,0-0.205-0.008-0.306-0.023s-0.198-0.031-0.294-0.049v0.686c0.096,0.023,0.202,0.043,0.318,0.059
		c0.115,0.016,0.238,0.025,0.365,0.025c0.248,0,0.463-0.059,0.643-0.174c0.18-0.117,0.344-0.285,0.492-0.506
		c0.147-0.219,0.287-0.484,0.42-0.797c0.132-0.312,0.27-0.664,0.414-1.057l2.316-6.131h-0.781L124.099,47.756z"/>
	<path fill="#221F20" d="M135.066,44.863h2.916c-0.008,0.328-0.038,0.641-0.09,0.936c-0.053,0.297-0.146,0.58-0.282,0.852
		c-0.144,0.281-0.315,0.518-0.517,0.709c-0.199,0.191-0.416,0.348-0.647,0.469c-0.231,0.119-0.472,0.205-0.72,0.258
		c-0.248,0.051-0.488,0.078-0.721,0.078c-0.496,0-0.938-0.098-1.326-0.289c-0.387-0.191-0.715-0.451-0.983-0.779
		s-0.472-0.709-0.612-1.141c-0.14-0.432-0.209-0.889-0.209-1.367c0-0.609,0.061-1.166,0.186-1.674
		c0.123-0.508,0.318-0.945,0.582-1.309s0.6-0.646,1.008-0.846c0.408-0.201,0.896-0.301,1.464-0.301c0.319,0,0.628,0.047,0.925,0.139
		c0.295,0.092,0.563,0.225,0.803,0.396c0.24,0.172,0.446,0.385,0.619,0.641c0.172,0.256,0.293,0.545,0.365,0.865h0.84
		c-0.096-0.465-0.252-0.867-0.468-1.207s-0.481-0.623-0.798-0.852s-0.672-0.398-1.068-0.51c-0.396-0.111-0.822-0.168-1.277-0.168
		c-0.68,0-1.271,0.115-1.771,0.348s-0.916,0.551-1.248,0.953c-0.332,0.404-0.577,0.881-0.737,1.43c-0.16,0.547-0.24,1.137-0.24,1.77
		c0,0.768,0.094,1.439,0.281,2.016c0.188,0.576,0.451,1.055,0.787,1.434c0.336,0.381,0.735,0.666,1.199,0.859
		c0.464,0.191,0.969,0.287,1.512,0.287c0.424,0,0.805-0.041,1.141-0.119c0.336-0.08,0.632-0.195,0.888-0.344
		c0.256-0.146,0.481-0.326,0.679-0.539c0.195-0.213,0.369-0.445,0.521-0.701v1.475h0.695v-4.463h-3.695V44.863z"/>
	<path fill="#221F20" d="M145.17,43.129c-0.488-0.588-1.16-0.881-2.016-0.881c-0.448,0-0.848,0.086-1.2,0.258
		s-0.649,0.408-0.894,0.707c-0.244,0.301-0.432,0.65-0.564,1.051c-0.132,0.4-0.197,0.828-0.197,1.283
		c0,0.457,0.055,0.883,0.168,1.279c0.111,0.395,0.283,0.738,0.516,1.031s0.527,0.521,0.888,0.689s0.788,0.252,1.284,0.252
		c0.393,0,0.736-0.051,1.032-0.156c0.296-0.104,0.552-0.25,0.768-0.438s0.396-0.408,0.54-0.66s0.26-0.525,0.348-0.822h-0.804
		c-0.112,0.457-0.336,0.809-0.672,1.057s-0.739,0.371-1.212,0.371c-0.344,0-0.648-0.064-0.912-0.197
		c-0.264-0.131-0.482-0.309-0.654-0.527c-0.172-0.221-0.302-0.48-0.39-0.781c-0.088-0.299-0.132-0.617-0.132-0.953h4.824
		C145.898,44.572,145.658,43.717,145.17,43.129z M141.066,45.092c0.031-0.297,0.1-0.576,0.204-0.84
		c0.104-0.264,0.241-0.496,0.413-0.697c0.173-0.199,0.381-0.359,0.625-0.479c0.244-0.121,0.525-0.182,0.846-0.182
		s0.604,0.059,0.852,0.176c0.248,0.115,0.455,0.271,0.619,0.467c0.163,0.197,0.287,0.428,0.371,0.695
		c0.084,0.27,0.126,0.555,0.126,0.859H141.066z"/>
	<path fill="#221F20" d="M151.938,43.201c-0.239-0.291-0.54-0.523-0.899-0.695c-0.36-0.172-0.785-0.258-1.272-0.258
		c-0.479,0-0.899,0.086-1.26,0.258s-0.66,0.406-0.9,0.701c-0.239,0.297-0.42,0.643-0.54,1.039c-0.119,0.395-0.18,0.82-0.18,1.277
		c0,0.545,0.076,1.02,0.229,1.428c0.151,0.408,0.357,0.748,0.617,1.02c0.26,0.273,0.564,0.477,0.912,0.613
		c0.348,0.135,0.723,0.207,1.122,0.215c0.433,0,0.826-0.078,1.183-0.234c0.355-0.154,0.66-0.377,0.912-0.666
		c0.252-0.287,0.445-0.631,0.582-1.031c0.135-0.4,0.203-0.848,0.203-1.344c0-0.457-0.059-0.885-0.174-1.283
		C152.356,43.84,152.179,43.494,151.938,43.201z M151.759,46.496c-0.08,0.311-0.204,0.592-0.372,0.84s-0.387,0.445-0.654,0.594
		s-0.59,0.221-0.966,0.221c-0.345,0-0.647-0.062-0.912-0.191c-0.264-0.127-0.483-0.307-0.659-0.539
		c-0.177-0.232-0.311-0.51-0.402-0.834s-0.139-0.678-0.139-1.062c0-0.336,0.041-0.662,0.121-0.979
		c0.079-0.316,0.203-0.596,0.371-0.84s0.387-0.439,0.654-0.588s0.59-0.223,0.966-0.223c0.384,0,0.708,0.068,0.972,0.205
		s0.48,0.322,0.648,0.559c0.168,0.234,0.292,0.514,0.372,0.834c0.079,0.318,0.12,0.664,0.12,1.031
		C151.879,45.859,151.838,46.184,151.759,46.496z"/>
	<path fill="#221F20" d="M157.519,45.518c-0.296-0.133-0.616-0.234-0.96-0.307s-0.664-0.154-0.96-0.246s-0.542-0.211-0.738-0.359
		s-0.294-0.361-0.294-0.643c0-0.32,0.12-0.578,0.36-0.773c0.239-0.195,0.588-0.295,1.044-0.295s0.834,0.1,1.134,0.295
		s0.481,0.533,0.546,1.014h0.732c-0.088-0.703-0.342-1.205-0.762-1.506s-0.967-0.449-1.639-0.449c-0.695,0-1.234,0.166-1.613,0.498
		c-0.381,0.332-0.57,0.758-0.57,1.277c0,0.408,0.098,0.725,0.294,0.947c0.196,0.225,0.442,0.396,0.737,0.518
		c0.297,0.119,0.616,0.209,0.961,0.27c0.344,0.059,0.664,0.131,0.959,0.215c0.297,0.084,0.543,0.201,0.738,0.35
		c0.196,0.146,0.295,0.373,0.295,0.678c0,0.152-0.033,0.295-0.097,0.432s-0.158,0.258-0.282,0.365
		c-0.124,0.109-0.281,0.195-0.474,0.258c-0.192,0.064-0.42,0.096-0.685,0.096c-0.543,0-0.961-0.109-1.254-0.328
		c-0.292-0.221-0.494-0.6-0.605-1.135h-0.732c0.016,0.297,0.08,0.572,0.192,0.828s0.268,0.48,0.468,0.672s0.441,0.342,0.727,0.449
		c0.283,0.109,0.609,0.162,0.978,0.162s0.706-0.037,1.015-0.113c0.307-0.076,0.573-0.189,0.797-0.342
		c0.225-0.152,0.4-0.342,0.528-0.57s0.192-0.49,0.192-0.785c0-0.4-0.098-0.713-0.295-0.938
		C158.061,45.828,157.814,45.648,157.519,45.518z"/>
	<rect x="160.074" y="42.416" fill="#221F20" width="0.721" height="6.215"/>
	<rect x="160.039" y="39.992" fill="#221F20" width="0.791" height="1.066"/>
	<path fill="#221F20" d="M167.568,48.098c-0.101-0.076-0.15-0.254-0.15-0.535V44.18c0-0.359-0.059-0.664-0.174-0.912
		c-0.116-0.248-0.275-0.445-0.48-0.594c-0.203-0.148-0.443-0.256-0.72-0.324s-0.569-0.102-0.882-0.102
		c-0.336,0-0.654,0.037-0.954,0.113s-0.563,0.195-0.792,0.359s-0.414,0.377-0.559,0.637c-0.143,0.26-0.228,0.574-0.252,0.941h0.732
		c0.032-0.271,0.098-0.498,0.198-0.678s0.228-0.324,0.384-0.432s0.338-0.184,0.547-0.229c0.207-0.043,0.436-0.066,0.684-0.066
		c0.56,0,0.957,0.119,1.193,0.355s0.354,0.537,0.354,0.906c0,0.111-0.015,0.232-0.042,0.365c-0.028,0.133-0.102,0.227-0.223,0.281
		c-0.119,0.057-0.273,0.102-0.461,0.133c-0.188,0.031-0.351,0.057-0.486,0.072l-0.996,0.131c-1.448,0.193-2.172,0.816-2.172,1.873
		c0,0.305,0.056,0.566,0.168,0.785c0.111,0.221,0.264,0.406,0.455,0.559c0.193,0.152,0.414,0.264,0.666,0.336
		c0.253,0.072,0.515,0.107,0.787,0.107c0.455,0,0.879-0.088,1.271-0.264s0.74-0.432,1.044-0.768c0,0.111,0.008,0.219,0.024,0.318
		c0.016,0.1,0.046,0.191,0.09,0.275s0.102,0.156,0.174,0.217c0.072,0.059,0.168,0.098,0.288,0.113
		c0.104,0.023,0.212,0.035,0.324,0.035c0.104,0,0.21-0.016,0.317-0.047c0.108-0.033,0.19-0.057,0.246-0.072v-0.564
		C167.87,48.156,167.668,48.174,167.568,48.098z M166.698,46.34c0,0.311-0.064,0.582-0.192,0.809
		c-0.128,0.229-0.298,0.416-0.51,0.564s-0.454,0.258-0.727,0.33c-0.271,0.072-0.551,0.107-0.84,0.107
		c-0.168,0-0.334-0.021-0.498-0.064c-0.164-0.045-0.308-0.113-0.432-0.205s-0.225-0.207-0.3-0.348
		c-0.076-0.141-0.114-0.307-0.114-0.498c0-0.424,0.154-0.74,0.463-0.947c0.307-0.209,0.737-0.332,1.289-0.373
		c0.312-0.023,0.624-0.055,0.936-0.096c0.312-0.039,0.621-0.123,0.925-0.252V46.34z"/>
	<path fill="#221F20" d="M174.942,44.227c-0.104-0.398-0.271-0.744-0.498-1.037s-0.519-0.521-0.87-0.689s-0.779-0.252-1.283-0.252
		c-0.201,0-0.404,0.027-0.612,0.084c-0.208,0.055-0.41,0.135-0.606,0.24c-0.195,0.104-0.376,0.234-0.539,0.395
		c-0.164,0.16-0.299,0.34-0.402,0.541h-0.024v-1.092h-0.72v8.664h0.72v-3.445c0.231,0.385,0.55,0.674,0.954,0.871
		c0.404,0.195,0.826,0.293,1.266,0.293c0.473,0,0.883-0.09,1.23-0.27s0.636-0.42,0.863-0.721c0.229-0.299,0.398-0.648,0.511-1.049
		s0.168-0.816,0.168-1.248C175.099,45.055,175.047,44.627,174.942,44.227z M174.234,46.43c-0.08,0.34-0.208,0.639-0.384,0.895
		c-0.177,0.256-0.402,0.457-0.679,0.605c-0.275,0.148-0.598,0.221-0.965,0.221c-0.328,0-0.623-0.068-0.883-0.209
		s-0.48-0.328-0.66-0.564s-0.317-0.512-0.414-0.828c-0.096-0.314-0.144-0.648-0.144-1.002c0-0.375,0.046-0.725,0.138-1.049
		s0.227-0.605,0.402-0.84c0.176-0.236,0.396-0.422,0.66-0.559s0.564-0.205,0.9-0.205c0.303,0,0.584,0.055,0.84,0.162
		c0.256,0.109,0.479,0.268,0.672,0.475c0.191,0.209,0.342,0.463,0.449,0.762c0.108,0.301,0.162,0.646,0.162,1.039
		C174.346,45.723,174.314,46.09,174.234,46.43z"/>
</g>
</svg>
