<?xml version="1.0" encoding="utf-8"?>
<!-- Generator: Adobe Illustrator 16.0.4, SVG Export Plug-In . SVG Version: 6.00 Build 0)  -->
<!DOCTYPE svg PUBLIC "-//W3C//DTD SVG 1.1//EN" "http://www.w3.org/Graphics/SVG/1.1/DTD/svg11.dtd">
<svg version="1.1" id="Login" xmlns="http://www.w3.org/2000/svg" xmlns:xlink="http://www.w3.org/1999/xlink" x="0px" y="0px"
	 width="154.789px" height="176.051px" viewBox="220.216 322.445 154.789 176.051"
	 enable-background="new 220.216 322.445 154.789 176.051" xml:space="preserve">
<title>icon_erro_404</title>
<g>
	<path fill="#FFFFFF" d="M320.903,470.412c-0.004,0-0.007,0.001-0.011,0.001c-1.758,0.284-2.953,1.94-2.669,3.698
		c0,0.001,0.001,0.002,0.001,0.003l2.942,17.896h-47.041l2.894-17.864c0.285-1.759-0.91-3.416-2.668-3.701
		c-1.759-0.285-3.416,0.91-3.701,2.669l-3.136,19.63c0,3.169,2.837,5.749,6.32,5.749H321.4c3.369,0.099,6.181-2.552,6.279-5.921
		c0.004-0.115,0.004-0.229,0.001-0.344l-3.104-19.114C324.308,471.354,322.663,470.144,320.903,470.412z"/>
	<path fill="#FFFFFF" d="M361.59,343.497c-0.098-0.001-0.195-0.001-0.292,0H233.921c-7.493-0.076-13.629,5.937-13.705,13.43
		c-0.001,0.092-0.001,0.184,0,0.275v88.56c-0.018,7.589,6.116,13.759,13.705,13.785h127.377c7.588-0.031,13.719-6.197,13.705-13.785
		v-88.527C375.092,349.736,369.087,343.586,361.59,343.497z M368.553,445.801c0.045,4.007-3.167,7.291-7.174,7.336
		c-0.027,0-0.055,0-0.081,0H233.921c-4.007,0.001-7.256-3.248-7.256-7.255c0-0.027,0-0.054,0-0.081v-5.562h141.888V445.801z
		 M368.553,357.201v76.588H226.665v-76.588c-0.036-3.971,3.155-7.22,7.126-7.255c0.043,0,0.086,0,0.129,0h127.377
		c3.976-0.031,7.224,3.167,7.255,7.142C368.554,357.126,368.554,357.164,368.553,357.201z"/>
	<path fill="#FFFFFF" d="M308.856,397.196c5.698-8.966,3.049-20.854-5.918-26.551c-8.966-5.698-20.853-3.049-26.551,5.917
		c-5.698,8.966-3.049,20.854,5.917,26.552c6.296,4.001,14.338,4.001,20.634,0l11.738,11.738c1.635,1.634,4.283,1.634,5.918,0
		c1.634-1.634,1.634-4.284,0-5.917L308.856,397.196z M292.652,402.509c-8.616,0-15.6-6.984-15.6-15.6s6.984-15.6,15.6-15.6
		c8.608,0.013,15.582,6.991,15.592,15.6h0.008C308.251,395.524,301.267,402.509,292.652,402.509z"/>
	<path fill="#FFFFFF" d="M293.837,373.131c-7.907-0.281-14.545,5.901-14.826,13.808c-0.012,0.339-0.012,0.679,0,1.018
		c0.035,0.991,0.863,1.769,1.854,1.742c0.993-0.031,1.772-0.86,1.742-1.853c0-0.003,0-0.006,0-0.01
		c-0.212-5.922,4.417-10.895,10.34-11.106c0.232-0.008,0.464-0.009,0.696-0.002c0.472,0.054,0.944-0.096,1.298-0.411
		c0.385-0.336,0.613-0.819,0.629-1.33C295.602,373.996,294.826,373.167,293.837,373.131z"/>
</g>
</svg>
