<?xml version="1.0" encoding="utf-8"?>
<!-- Generator: Adobe Illustrator 16.0.4, SVG Export Plug-In . SVG Version: 6.00 Build 0)  -->
<!DOCTYPE svg PUBLIC "-//W3C//DTD SVG 1.1//EN" "http://www.w3.org/Graphics/SVG/1.1/DTD/svg11.dtd">
<svg version="1.1" id="Layer_1" xmlns:sketch="http://www.bohemiancoding.com/sketch/ns"
	 xmlns="http://www.w3.org/2000/svg" xmlns:xlink="http://www.w3.org/1999/xlink" x="0px" y="0px" width="48px" height="42px"
	 viewBox="0 0 48 42" enable-background="new 0 0 48 42" xml:space="preserve">
<title>thin-0070_paper_role</title>
<desc>Created with Sketch.</desc>
<g>
	<path fill="#747474" d="M15.691,0.306l-0.096,1.442c-0.011,0.161-1.118,16.176-5.122,24.771l2.72,1.268
		c3.553-7.627,4.909-20.148,5.281-24.397l26.537,0.776c-1.552,16.42-5.374,33.701-9.656,34.483
		c-0.035,0.007-0.073,0.012-0.114,0.016c-0.04,0-0.123-0.001-0.245-0.001c-1.002-0.09-3.09-1.241-6.186-7.691l-0.398-0.829
		l-28.924-0.669l0.398,1.858c0.086,0.402,2.204,9.864,9.958,10.049c7.718,0.182,22.075,0.266,24.915,0.28
		c0.11,0.009,0.22,0.013,0.329,0.013c0.269,0,0.538-0.024,0.807-0.074c8.171-1.493,11.286-27.575,12.249-38.758l0.138-1.583
		L15.691,0.306z M9.915,38.381c-3.661-0.087-5.616-3.57-6.498-5.815L26.512,33.1c1.163,2.317,2.314,4.159,3.463,5.532
		C24.315,38.591,15.417,38.512,9.915,38.381z"/>
	<g>
		
			<rect x="29.189" y="3.369" transform="matrix(0.0352 -0.9994 0.9994 0.0352 18.7059 41.1963)" fill="#747474" width="3" height="15.084"/>
		
			<rect x="22.039" y="16.213" transform="matrix(-0.9994 -0.0351 0.0351 -0.9994 57.5377 36.4368)" fill="#747474" width="14.1" height="3"/>
		
			<rect x="20.256" y="22.95" transform="matrix(-0.9994 -0.0352 0.0352 -0.9994 47.684 49.7397)" fill="#747474" width="8.047" height="3"/>
	</g>
</g>
</svg>
