<?xml version="1.0" encoding="utf-8"?>
<!-- Generator: Adobe Illustrator 16.0.0, SVG Export Plug-In . SVG Version: 6.00 Build 0)  -->
<!DOCTYPE svg PUBLIC "-//W3C//DTD SVG 1.1//EN" "http://www.w3.org/Graphics/SVG/1.1/DTD/svg11.dtd">
<svg version="1.1" id="Layer_1" xmlns="http://www.w3.org/2000/svg" xmlns:xlink="http://www.w3.org/1999/xlink" x="0px" y="0px"
	 width="38px" height="38px" viewBox="0 0 38 38" enable-background="new 0 0 38 38" xml:space="preserve">
<g>
	<g>
		<path fill="#4C87FF" d="M24.849,38H2.093c-1.154,0-2.094-0.962-2.094-2.146v-3.236c0-0.887,0.52-1.672,1.324-1.998
			c6.152-2.489,7.591-3.63,7.922-3.993v-0.515c-0.732-0.9-1.314-2.027-1.699-3.303c-0.513-0.508-0.854-1.188-0.956-1.923
			c-0.104-0.763,0.043-1.519,0.423-2.172v-2.528c0-3.865,2.475-6.266,6.457-6.266c4.043,0,6.456,2.342,6.456,6.266v2.526
			c0.382,0.655,0.53,1.413,0.425,2.179c-0.104,0.734-0.444,1.414-0.957,1.92c-0.387,1.273-0.965,2.4-1.697,3.301v0.545
			c0.264,0.277,1.619,1.414,7.921,3.963c0.806,0.326,1.323,1.111,1.323,1.998v3.236C26.942,37.038,26.003,38,24.849,38z
			 M2.451,35.548H24.49v-2.739c-7.923-3.221-8.903-4.533-9.195-5.512c-0.034-0.113-0.052-0.23-0.052-0.352V25.65
			c0-0.312,0.117-0.608,0.331-0.836c0.688-0.738,1.228-1.778,1.556-3.008c0.072-0.271,0.234-0.508,0.459-0.673
			c0.178-0.13,0.299-0.343,0.332-0.585c0.021-0.148,0.023-0.439-0.189-0.716c-0.166-0.215-0.256-0.479-0.256-0.752v-2.897
			c0-2.564-1.311-3.812-4.004-3.812c-2.658,0-4.006,1.282-4.006,3.812v2.899c0,0.272-0.09,0.537-0.257,0.753
			C8.997,20.107,9,20.398,9.021,20.547c0.035,0.243,0.155,0.457,0.334,0.589c0.225,0.166,0.386,0.401,0.457,0.671
			c0.328,1.229,0.867,2.268,1.558,3.008c0.212,0.228,0.33,0.526,0.33,0.836v1.295c0,0.119-0.017,0.236-0.052,0.351
			c-0.291,0.978-1.268,2.289-9.194,5.513v2.739H2.451z"/>
	</g>
	<g>
		<path fill="#4C87FF" d="M36.087,38h-6.668c-0.678,0-1.227-0.548-1.227-1.227c0-0.678,0.549-1.227,1.227-1.227h6.127V34
			c-6.209-2.422-6.975-3.402-7.245-4.27c-0.036-0.119-0.056-0.241-0.056-0.366v-0.976c0-0.322,0.125-0.63,0.35-0.857
			c0.51-0.521,0.908-1.26,1.152-2.133c0.077-0.272,0.244-0.51,0.477-0.672c0.076-0.054,0.127-0.14,0.141-0.237
			c0.015-0.101-0.014-0.192-0.082-0.276c-0.18-0.22-0.274-0.492-0.274-0.773v-2.186c0-1.104-0.301-2.572-2.903-2.572
			c-1.955,0-2.905,0.842-2.905,2.572v2.186c0,0.281-0.097,0.554-0.274,0.771c-0.068,0.084-0.096,0.178-0.082,0.279
			c0.014,0.097,0.064,0.184,0.139,0.236c0.233,0.162,0.402,0.4,0.478,0.674c0.244,0.871,0.644,1.607,1.151,2.129
			c0.476,0.484,0.468,1.262-0.016,1.734c-0.484,0.475-1.262,0.465-1.734-0.018c-0.723-0.736-1.288-1.705-1.651-2.821
			c-0.427-0.428-0.709-0.989-0.795-1.598c-0.086-0.618,0.033-1.229,0.333-1.763v-1.812c0-3.101,2.053-5.024,5.357-5.024
			c3.354,0,5.356,1.879,5.356,5.024v1.812c0.302,0.533,0.419,1.144,0.334,1.762c-0.084,0.609-0.368,1.172-0.796,1.601
			c-0.303,0.927-0.745,1.753-1.3,2.429v0.121c0.362,0.312,1.646,1.157,6.075,2.869c0.733,0.285,1.227,1.006,1.227,1.793v2.44
			C37.999,37.139,37.142,38,36.087,38z"/>
	</g>
</g>
</svg>
