<?xml version="1.0" encoding="utf-8"?>
<!-- Generator: Adobe Illustrator 16.0.0, SVG Export Plug-In . SVG Version: 6.00 Build 0)  -->
<!DOCTYPE svg PUBLIC "-//W3C//DTD SVG 1.1//EN" "http://www.w3.org/Graphics/SVG/1.1/DTD/svg11.dtd">
<svg version="1.1" id="Layer_1" xmlns="http://www.w3.org/2000/svg" xmlns:xlink="http://www.w3.org/1999/xlink" x="0px" y="0px"
	 width="30.333px" height="38.333px" viewBox="0 0 30.333 38.333" enable-background="new 0 0 30.333 38.333" xml:space="preserve">
<g>
	<g>
		<path fill="#aaa" d="M19.226,38.25H1.441c-0.415,0-0.751-0.404-0.751-0.903V4.812c0-0.45,0.275-0.831,0.645-0.895l17.785-3.08
			c0.217-0.037,0.435,0.04,0.599,0.211c0.165,0.172,0.259,0.421,0.259,0.684v35.614C19.977,37.845,19.641,38.25,19.226,38.25z
			 M2.192,36.442h16.282V2.775L2.192,5.595V36.442z"/>
	</g>
	<g>
		<path fill="#aaa" d="M11.901,38.22H8.775c-0.415,0-0.751-0.404-0.751-0.904v-7.524c0-0.499,0.336-0.904,0.751-0.904h3.126
			c0.416,0,0.751,0.405,0.751,0.904v7.524C12.653,37.816,12.317,38.22,11.901,38.22z M9.526,36.412h1.624v-5.716H9.526V36.412z"/>
	</g>
	<g>
		<path fill="#aaa" d="M11.901,25.638H8.775c-0.415,0-0.751-0.404-0.751-0.903v-3.75c0-0.5,0.336-0.904,0.751-0.904h3.126
			c0.416,0,0.751,0.404,0.751,0.904v3.75C12.653,25.234,12.317,25.638,11.901,25.638z M9.526,23.831h1.624v-1.941H9.526V23.831z"/>
	</g>
	<g>
		<path fill="#aaa" d="M11.901,16.833H8.775c-0.415,0-0.751-0.405-0.751-0.904v-3.75c0-0.499,0.336-0.904,0.751-0.904h3.126
			c0.416,0,0.751,0.405,0.751,0.904v3.75C12.653,16.427,12.317,16.833,11.901,16.833z M9.526,15.024h1.624v-1.941H9.526V15.024z"/>
	</g>
	<g>
		<path fill="#aaa" d="M29.766,38.25H19.226c-0.415,0-0.751-0.404-0.751-0.903V14.23c0-0.272,0.102-0.53,0.277-0.701
			c0.176-0.172,0.407-0.239,0.627-0.185l10.541,2.638c0.348,0.087,0.598,0.457,0.598,0.886v20.479
			C30.518,37.845,30.182,38.25,29.766,38.25z M19.977,36.442h9.038V17.603l-9.038-2.262V36.442z"/>
	</g>
	<g>
		<path fill="#aaa" d="M24.491,38.22c-0.415,0-0.751-0.404-0.751-0.904v-4.693c0-0.499,0.336-0.904,0.751-0.904
			s0.751,0.405,0.751,0.904v4.693C25.243,37.816,24.906,38.22,24.491,38.22z"/>
	</g>
	<g>
		<path fill="#aaa" d="M24.491,28.702c-0.415,0-0.751-0.405-0.751-0.904v-1.711c0-0.499,0.336-0.904,0.751-0.904
			s0.751,0.405,0.751,0.904v1.711C25.243,28.296,24.906,28.702,24.491,28.702z"/>
	</g>
	<g>
		<path fill="#aaa" d="M24.491,23.951c-0.415,0-0.751-0.404-0.751-0.904v-1.71c0-0.5,0.336-0.904,0.751-0.904
			s0.751,0.404,0.751,0.904v1.71C25.243,23.546,24.906,23.951,24.491,23.951z"/>
	</g>
</g>
</svg>
