<?xml version="1.0" encoding="UTF-8" standalone="no"?>
<svg width="49px" height="49px" viewBox="0 0 49 49" version="1.1" xmlns="http://www.w3.org/2000/svg" xmlns:xlink="http://www.w3.org/1999/xlink" xmlns:sketch="http://www.bohemiancoding.com/sketch/ns">
    <!-- Generator: Sketch 3.3.2 (12043) - http://www.bohemiancoding.com/sketch -->
    <title>thin-0959_city_flat_homes</title>
    <desc>Created with Sketch.</desc>
    <defs></defs>
    <g id="Page-1" stroke="none" stroke-width="1" fill="none" fill-rule="evenodd" sketch:type="MSPage">
        <g id="Picons" sketch:type="MSArtboardGroup" transform="translate(-66.000000, -5560.000000)">
            <g id="thin-0959_city_flat_homes" sketch:type="MSLayerGroup" transform="translate(66.000000, 5560.000000)">
                <g id="Group" stroke="#4C87FF" stroke-width="3" sketch:type="MSShapeGroup">
                    <rect id="Rectangle-path" x="15.0282" y="1.0708" width="18.0002" height="46"></rect>
                    <path id="Shape"></path>
                    <path id="Shape"></path>
                    <path id="Shape"></path>
                    <path id="Shape"></path>
                    <path id="Shape"></path>
                    <path id="Shape"></path>
                    <path id="Shape"></path>
                    <path id="Shape"></path>
                    <path id="Shape"></path>
                    <path id="Shape"></path>
                    <path id="Shape"></path>
                    <path id="Shape"></path>
                    <path id="Shape"></path>
                    <path id="Shape"></path>
                    <path id="Shape"></path>
                    <path id="Shape"></path>
                    <rect id="Rectangle-path" x="21.0284" y="41.0708" width="6" height="6"></rect>
                    <rect id="Rectangle-path" x="1.0282" y="9.0708" width="14" height="38"></rect>
                    <rect id="Rectangle-path" x="33.0286" y="13.0708" width="14" height="34"></rect>
                    <path id="Shape" d="M6.0302,15.0708 L6.0302,15.0708 L10.275,15.0708"></path>
                    <path id="Shape" d="M6.0302,19.071 L6.0302,19.071 L10.275,19.071"></path>
                    <path id="Shape" d="M6.0302,23.0714 L6.0302,23.0714 L10.275,23.0714"></path>
                    <path id="Shape" d="M6.0302,27.0716 L6.0302,27.0716 L10.275,27.0716"></path>
                    <path id="Shape" d="M6.0302,31.0718 L6.0302,31.0718 L10.275,31.0718"></path>
                    <path id="Shape" d="M6.0302,35.072 L6.0302,35.072 L10.275,35.072"></path>
                    <path id="Shape" d="M6.0302,39.0724 L6.0302,39.0724 L10.275,39.0724"></path>
                    <path id="Shape" d="M38.0322,19.071 L38.0322,19.071 L42.277,19.071"></path>
                    <path id="Shape" d="M38.0322,23.0714 L38.0322,23.0714 L42.277,23.0714"></path>
                    <path id="Shape" d="M38.0322,27.0716 L38.0322,27.0716 L42.277,27.0716"></path>
                    <path id="Shape" d="M38.0322,31.0718 L38.0322,31.0718 L42.277,31.0718"></path>
                    <path id="Shape" d="M38.0322,35.072 L38.0322,35.072 L42.277,35.072"></path>
                    <path id="Shape" d="M38.0322,39.0724 L38.0322,39.0724 L42.277,39.0724"></path>
                </g>
                <rect id="Rectangle-path" sketch:type="MSShapeGroup" x="0.0284" y="0.0708" width="48" height="48"></rect>
            </g>
        </g>
    </g>
</svg>
