<?xml version="1.0" encoding="utf-8"?>
<!-- Generator: Adobe Illustrator 16.0.0, SVG Export Plug-In . SVG Version: 6.00 Build 0)  -->
<!DOCTYPE svg PUBLIC "-//W3C//DTD SVG 1.1//EN" "http://www.w3.org/Graphics/SVG/1.1/DTD/svg11.dtd">
<svg version="1.1" id="Layer_1" xmlns="http://www.w3.org/2000/svg" xmlns:xlink="http://www.w3.org/1999/xlink" x="0px" y="0px"
	 width="38px" height="38px" viewBox="0 0 38 38" enable-background="new 0 0 38 38" xml:space="preserve">
<g>
	<g>
		<path fill="#4C87FF" d="M33.253,38H4.792c-0.684,0-1.236-0.58-1.236-1.297V13.946c0-0.717,0.553-1.297,1.236-1.297
			s1.236,0.58,1.236,1.297v21.46h25.986v-21.46c0-0.717,0.555-1.297,1.238-1.297s1.236,0.58,1.236,1.297v22.757
			C34.489,37.42,33.937,38,33.253,38z"/>
	</g>
	<g>
		<path fill="#4C87FF" d="M15.927,28.955h-4.898c-0.682,0-1.236-0.58-1.236-1.297v-5.17c0-0.717,0.555-1.297,1.236-1.297h4.898
			c0.684,0,1.237,0.58,1.237,1.297v5.17C17.165,28.375,16.61,28.955,15.927,28.955z M12.267,26.361h2.424v-2.576h-2.424V26.361z"/>
	</g>
	<g>
		<path fill="#4C87FF" d="M26.947,38h-7.259c-0.685,0-1.237-0.58-1.237-1.297V22.488c0-0.717,0.554-1.297,1.237-1.297h7.259
			c0.685,0,1.237,0.58,1.237,1.297v14.215C28.185,37.42,27.632,38,26.947,38z M20.926,35.406h4.785V23.785h-4.785V35.406z"/>
	</g>
	<g>
		<path fill="#4C87FF" d="M36.761,18.356c-0.281,0-0.563-0.102-0.799-0.308L18.999,2.996L2.036,18.048
			c-0.52,0.464-1.301,0.396-1.743-0.151s-0.377-1.364,0.146-1.828L18.2,0.307c0.461-0.41,1.137-0.41,1.599,0l17.765,15.762
			c0.521,0.464,0.586,1.281,0.146,1.828C37.462,18.201,37.112,18.356,36.761,18.356z"/>
	</g>
</g>
</svg>
