<?xml version="1.0" encoding="utf-8"?>
<!-- Generator: Adobe Illustrator 16.0.0, SVG Export Plug-In . SVG Version: 6.00 Build 0)  -->
<!DOCTYPE svg PUBLIC "-//W3C//DTD SVG 1.1//EN" "http://www.w3.org/Graphics/SVG/1.1/DTD/svg11.dtd">
<svg version="1.1" id="Layer_1" xmlns="http://www.w3.org/2000/svg" xmlns:xlink="http://www.w3.org/1999/xlink" x="0px" y="0px"
	 width="51px" height="44.667px" viewBox="0 0 51 44.667" enable-background="new 0 0 51 44.667" xml:space="preserve">
<g>
	<g>
		<path fill="#AAAAAA" d="M25.67,37.48H8.564c-1.084,0-1.967-0.887-1.967-1.977v-2.325c0-0.813,0.507-1.555,1.261-1.845
			c4.027-1.556,5.296-2.351,5.687-2.663c-0.517-0.641-0.932-1.417-1.22-2.287c-0.415-0.427-0.689-0.983-0.771-1.583
			c-0.083-0.606,0.028-1.205,0.315-1.732v-1.691c0-3.043,2.01-4.934,5.248-4.934c3.285,0,5.246,1.844,5.246,4.934v1.689
			c0.289,0.528,0.401,1.129,0.316,1.737c-0.084,0.599-0.359,1.155-0.773,1.581c-0.287,0.868-0.701,1.645-1.217,2.286
			c0.389,0.311,1.658,1.106,5.688,2.664c0.751,0.288,1.259,1.029,1.259,1.844v2.325C27.635,36.594,26.753,37.48,25.67,37.48z
			 M9.227,34.851h15.779v-1.229c-5.886-2.307-6.622-3.269-6.889-4.125c-0.04-0.126-0.06-0.258-0.06-0.391v-0.931
			c0-0.343,0.134-0.673,0.374-0.919c0.461-0.471,0.837-1.169,1.06-1.966c0.081-0.292,0.263-0.548,0.511-0.723
			c0.055-0.039,0.069-0.101,0.072-0.126c0.012-0.082-0.032-0.136-0.046-0.153c-0.19-0.234-0.294-0.528-0.294-0.83v-2.081
			c0-1.072-0.297-2.305-2.617-2.305c-2.347,0-2.619,1.316-2.619,2.305v2.083c0,0.302-0.104,0.595-0.294,0.829
			c-0.014,0.018-0.058,0.071-0.046,0.153c0.003,0.025,0.018,0.088,0.073,0.128c0.248,0.174,0.426,0.428,0.508,0.719
			c0.227,0.81,0.594,1.489,1.061,1.966c0.242,0.246,0.376,0.577,0.376,0.92v0.931c0,0.133-0.02,0.264-0.06,0.392
			c-0.267,0.856-1.003,1.818-6.891,4.125V34.851z"/>
	</g>
	<g>
		<path fill="#AAAAAA" d="M27.144,15.657h-3.392c-1.629,0-3-1.223-3.189-2.845l-1.128-9.561c-0.105-0.915,0.182-1.831,0.787-2.516
			c0.61-0.689,1.487-1.085,2.404-1.085h5.644c0.918,0,1.794,0.396,2.403,1.085c0.607,0.688,0.894,1.604,0.786,2.517l-1.126,9.562
			C30.143,14.435,28.771,15.657,27.144,15.657z M22.626,2.28c-0.165,0-0.324,0.072-0.434,0.197c-0.111,0.126-0.165,0.298-0.145,0.47
			l1.127,9.559c0.035,0.298,0.283,0.522,0.578,0.522h3.392c0.295,0,0.543-0.224,0.578-0.521l1.126-9.562
			c0.021-0.171-0.033-0.341-0.145-0.468c-0.11-0.125-0.268-0.197-0.433-0.197H22.626z"/>
	</g>
	<g>
		<path fill="#AAAAAA" d="M27.144,15.657h-3.392c-1.629,0-3-1.223-3.189-2.845l-1.128-9.561c-0.105-0.915,0.182-1.831,0.787-2.516
			c0.61-0.689,1.487-1.085,2.404-1.085h5.644c0.918,0,1.794,0.396,2.403,1.085c0.607,0.688,0.894,1.604,0.786,2.517l-1.126,9.562
			C30.143,14.435,28.771,15.657,27.144,15.657z M22.626,2.28c-0.165,0-0.324,0.072-0.434,0.197c-0.111,0.126-0.165,0.298-0.145,0.47
			l1.127,9.559c0.035,0.298,0.283,0.522,0.578,0.522h3.392c0.295,0,0.543-0.224,0.578-0.521l1.126-9.562
			c0.021-0.171-0.033-0.341-0.145-0.468c-0.11-0.125-0.268-0.197-0.433-0.197H22.626z"/>
	</g>
	<g>
		<path fill="#AAAAAA" d="M49.843,44.333H1.037c-0.727,0-1.315-0.589-1.315-1.314V9.358c0-0.726,0.588-1.314,1.315-1.314h20.442
			c0.726,0,1.315,0.588,1.315,1.314s-0.589,1.314-1.315,1.314H2.351v31.031h46.177V10.673H29.417c-0.727,0-1.315-0.588-1.315-1.314
			s0.588-1.314,1.315-1.314h20.426c0.726,0,1.314,0.588,1.314,1.314v33.66C51.158,43.744,50.569,44.333,49.843,44.333z"/>
	</g>
	<g>
		<path fill="#AAAAAA" d="M43.133,24.137H31.351c-0.726,0-1.314-0.588-1.314-1.314c0-0.726,0.589-1.314,1.314-1.314h11.782
			c0.727,0,1.314,0.589,1.314,1.314C44.447,23.548,43.859,24.137,43.133,24.137z"/>
	</g>
	<g>
		<path fill="#AAAAAA" d="M43.133,29.186H31.351c-0.726,0-1.314-0.589-1.314-1.315s0.589-1.314,1.314-1.314h11.782
			c0.727,0,1.314,0.588,1.314,1.314S43.859,29.186,43.133,29.186z"/>
	</g>
</g>
</svg>
