<?xml version="1.0" encoding="utf-8"?>
<!-- Generator: Adobe Illustrator 16.0.4, SVG Export Plug-In . SVG Version: 6.00 Build 0)  -->
<!DOCTYPE svg PUBLIC "-//W3C//DTD SVG 1.1//EN" "http://www.w3.org/Graphics/SVG/1.1/DTD/svg11.dtd">
<svg version="1.1" id="Layer_1" xmlns:sketch="http://www.bohemiancoding.com/sketch/ns"
	 xmlns="http://www.w3.org/2000/svg" xmlns:xlink="http://www.w3.org/1999/xlink" x="0px" y="0px" width="48px" height="48px"
	 viewBox="0 0 48 48" enable-background="new 0 0 48 48" xml:space="preserve">
<title>thin-0021_calendar_month_day_planner</title>
<desc>Created with Sketch.</desc>
<g id="Shape">
	<path fill="#B8BDC4" d="M41.01,46.846H6.99c-3.218,0-5.835-2.617-5.835-5.834V6.989c0-3.217,2.618-5.835,5.835-5.835h34.02
		c3.218,0,5.836,2.618,5.836,5.835v34.021C46.846,44.228,44.228,46.846,41.01,46.846z M6.99,3.952c-1.675,0-3.038,1.362-3.038,3.037
		v34.022c0,1.674,1.363,3.036,3.038,3.036h34.02c1.675,0,3.038-1.362,3.038-3.037V6.989c0-1.675-1.363-3.037-3.038-3.037H6.99z"/>
</g>
<g id="Shape_1_">
	<rect x="2.553" y="12.344" fill="#B8BDC4" width="42.893" height="2.798"/>
</g>
<g id="Shape_4_">
	<polygon fill="#B8BDC4" points="33.806,37.844 31.008,37.844 31.008,23.225 29.033,23.954 28.064,21.329 33.806,19.211 	"/>
</g>
<g id="Shape_5_">
	<path fill="#B8BDC4" d="M19.269,39.449c-2.891,0-5.894-1.45-7.035-3.56l2.459-1.331c0.771,1.422,3.463,2.397,5.538,2.007
		c1.425-0.268,2.235-1.102,2.407-2.479c0.128-1.021-0.062-1.784-0.581-2.327c-1.121-1.174-3.615-1.264-4.398-1.202l-3.257,0.254
		l6.679-8.195h-7.021v-2.797h12.91l-6.631,8.138c1.268,0.248,2.697,0.776,3.742,1.871c0.771,0.807,1.627,2.261,1.334,4.605
		c-0.326,2.605-2.027,4.385-4.666,4.881C20.266,39.406,19.769,39.449,19.269,39.449z"/>
</g>
</svg>
