<?xml version="1.0" encoding="utf-8"?>
<!-- Generator: Adobe Illustrator 16.0.4, SVG Export Plug-In . SVG Version: 6.00 Build 0)  -->
<!DOCTYPE svg PUBLIC "-//W3C//DTD SVG 1.1//EN" "http://www.w3.org/Graphics/SVG/1.1/DTD/svg11.dtd">
<svg version="1.1" id="Layer_1" xmlns:sketch="http://www.bohemiancoding.com/sketch/ns"
	 xmlns="http://www.w3.org/2000/svg" xmlns:xlink="http://www.w3.org/1999/xlink" x="0px" y="0px" width="48px" height="42px"
	 viewBox="0 0 48 42" enable-background="new 0 0 48 42" xml:space="preserve">
<title>thin-0070_paper_role</title>
<desc>Created with Sketch.</desc>
<g id="Group" transform="translate(0.000000, 4.000000)" sketch:type="MSShapeGroup">
	<g id="Shape">
		<path fill="#B8BDC4" d="M35.087,37.674c-0.109,0-0.219-0.004-0.329-0.013c-2.84-0.015-17.196-0.099-24.915-0.28
			c-7.754-0.185-9.872-9.646-9.958-10.049l-0.398-1.858l28.924,0.669l0.398,0.829c3.096,6.45,5.184,7.602,6.186,7.691
			c0.122,0,0.205,0.001,0.245,0.001c0.041-0.004,0.079-0.009,0.114-0.016c4.282-0.782,8.104-18.063,9.656-34.483L18.474-0.611
			c-0.373,4.25-1.729,16.77-5.281,24.397l-2.72-1.268c4.004-8.595,5.111-24.61,5.122-24.771l0.096-1.442L48.28-2.741l-0.138,1.583
			C47.18,10.025,44.064,36.106,35.894,37.6C35.625,37.649,35.355,37.674,35.087,37.674z M3.417,28.565
			c0.882,2.245,2.837,5.729,6.498,5.815c5.502,0.131,14.4,0.21,20.06,0.251c-1.148-1.373-2.3-3.215-3.463-5.532L3.417,28.565z"/>
	</g>
	<g id="Shape_1_">
		
			<rect x="23.147" y="5.41" transform="matrix(0.9994 0.0352 -0.0352 0.9994 0.2622 -1.0756)" fill="#B8BDC4" width="15.084" height="3"/>
	</g>
	<g id="Shape_2_">
		
			<rect x="22.039" y="12.213" transform="matrix(0.9994 0.0351 -0.0351 0.9994 0.5 -1.014)" fill="#B8BDC4" width="14.1" height="3"/>
	</g>
	<g id="Shape_3_">
		
			<rect x="20.256" y="18.95" transform="matrix(0.9994 0.0352 -0.0352 0.9994 0.7348 -0.8418)" fill="#B8BDC4" width="8.047" height="3"/>
	</g>
</g>
</svg>
