<?xml version="1.0" encoding="utf-8"?>
<!-- Generator: Adobe Illustrator 16.0.4, SVG Export Plug-In . SVG Version: 6.00 Build 0)  -->
<!DOCTYPE svg PUBLIC "-//W3C//DTD SVG 1.1//EN" "http://www.w3.org/Graphics/SVG/1.1/DTD/svg11.dtd">
<svg version="1.1" id="Layer_1" xmlns:sketch="http://www.bohemiancoding.com/sketch/ns"
	 xmlns="http://www.w3.org/2000/svg" xmlns:xlink="http://www.w3.org/1999/xlink" x="0px" y="0px" width="49px" height="49px"
	 viewBox="0 0 49 49" enable-background="new 0 0 49 49" xml:space="preserve">
<path id="Shape" fill="none" stroke="#B8BDC4" stroke-width="3" d="M0.985,0"/>
<path id="Shape_1_" fill="none" stroke="#B8BDC4" stroke-width="3" d="M0.985,0"/>
<path id="Shape_2_" fill="none" stroke="#B8BDC4" stroke-width="3" d="M0.985,0"/>
<path id="Shape_3_" fill="none" stroke="#B8BDC4" stroke-width="3" d="M0.985,0"/>
<path id="Shape_4_" fill="none" stroke="#B8BDC4" stroke-width="3" d="M0.985,0"/>
<path id="Shape_5_" fill="none" stroke="#B8BDC4" stroke-width="3" d="M0.985,0"/>
<path id="Shape_6_" fill="none" stroke="#B8BDC4" stroke-width="3" d="M0.985,0"/>
<path id="Shape_7_" fill="none" stroke="#B8BDC4" stroke-width="3" d="M0.985,0"/>
<path id="Shape_8_" fill="none" stroke="#B8BDC4" stroke-width="3" d="M0.985,0"/>
<path id="Shape_9_" fill="none" stroke="#B8BDC4" stroke-width="3" d="M0.985,0"/>
<path id="Shape_10_" fill="none" stroke="#B8BDC4" stroke-width="3" d="M0.985,0"/>
<path id="Shape_11_" fill="none" stroke="#B8BDC4" stroke-width="3" d="M0.985,0"/>
<path id="Shape_12_" fill="none" stroke="#B8BDC4" stroke-width="3" d="M0.985,0"/>
<path id="Shape_13_" fill="none" stroke="#B8BDC4" stroke-width="3" d="M0.985,0"/>
<path id="Shape_14_" fill="none" stroke="#B8BDC4" stroke-width="3" d="M0.985,0"/>
<path id="Shape_15_" fill="none" stroke="#B8BDC4" stroke-width="3" d="M0.985,0"/>
<g>
	<g id="Rectangle-path">
		<path fill="#B8BDC4" d="M35,49H14V0h21V49z M17,46h15V3H17V46z"/>
	</g>
	<g id="Rectangle-path_1_">
		<path fill="#B8BDC4" d="M29,49h-9v-9h9V49z M23,46h3v-3h-3V46z"/>
	</g>
	<g id="Rectangle-path_2_">
		<path fill="#B8BDC4" d="M17,49H0V8h17V49z M3,46h11V11H3V46z"/>
	</g>
	<g id="Rectangle-path_3_">
		<path fill="#B8BDC4" d="M49,49H32V12h17V49z M35,46h11V15H35V46z"/>
	</g>
	<g id="Shape_16_">
		<rect x="6.501" y="14" fill="#B8BDC4" width="4.245" height="3"/>
	</g>
	<g id="Shape_17_">
		<rect x="6.501" y="18" fill="#B8BDC4" width="4.245" height="3"/>
	</g>
	<g id="Shape_18_">
		<rect x="6.501" y="22.001" fill="#B8BDC4" width="4.245" height="3"/>
	</g>
	<g id="Shape_19_">
		<rect x="6.501" y="26.002" fill="#B8BDC4" width="4.245" height="3"/>
	</g>
	<g id="Shape_20_">
		<rect x="6.501" y="30.002" fill="#B8BDC4" width="4.245" height="3"/>
	</g>
	<g id="Shape_21_">
		<rect x="6.501" y="34.002" fill="#B8BDC4" width="4.245" height="3"/>
	</g>
	<g id="Shape_22_">
		<rect x="6.501" y="38.002" fill="#B8BDC4" width="4.245" height="3"/>
	</g>
	<g id="Shape_23_">
		<rect x="38.504" y="18" fill="#B8BDC4" width="4.244" height="3"/>
	</g>
	<g id="Shape_24_">
		<rect x="38.504" y="22.001" fill="#B8BDC4" width="4.244" height="3"/>
	</g>
	<g id="Shape_25_">
		<rect x="38.504" y="26.002" fill="#B8BDC4" width="4.244" height="3"/>
	</g>
	<g id="Shape_26_">
		<rect x="38.504" y="30.002" fill="#B8BDC4" width="4.244" height="3"/>
	</g>
	<g id="Shape_27_">
		<rect x="38.504" y="34.002" fill="#B8BDC4" width="4.244" height="3"/>
	</g>
	<g id="Shape_28_">
		<rect x="38.504" y="38.002" fill="#B8BDC4" width="4.244" height="3"/>
	</g>
</g>
</svg>
