<?xml version="1.0" encoding="utf-8"?>
<!-- Generator: Adobe Illustrator 16.0.0, SVG Export Plug-In . SVG Version: 6.00 Build 0)  -->
<!DOCTYPE svg PUBLIC "-//W3C//DTD SVG 1.1//EN" "http://www.w3.org/Graphics/SVG/1.1/DTD/svg11.dtd">
<svg version="1.1" id="Layer_1" xmlns="http://www.w3.org/2000/svg" xmlns:xlink="http://www.w3.org/1999/xlink" x="0px" y="0px"
	 width="34.667px" height="34.75px" viewBox="0 0 34.667 34.75" enable-background="new 0 0 34.667 34.75" xml:space="preserve">
<g>
	<path fill="#4C87FF" d="M9.572,14.34h15.774c0.396,0,0.716-0.321,0.716-0.717V0.717c0-0.396-0.32-0.717-0.716-0.717H9.572
		C9.175,0,8.854,0.321,8.854,0.717v12.906C8.854,14.02,9.175,14.34,9.572,14.34z M10.288,1.435h14.341v11.472H10.288V1.435z"/>
	<path fill="#4C87FF" d="M8.137,27.247h-7.17c-0.396,0-0.717,0.321-0.717,0.717V33.7c0,0.396,0.321,0.717,0.717,0.717h7.17
		c0.396,0,0.717-0.321,0.717-0.717v-5.736C8.854,27.568,8.534,27.247,8.137,27.247z M7.42,32.982H1.684V28.68H7.42V32.982z"/>
	<path fill="#4C87FF" d="M21.043,27.247h-7.17c-0.396,0-0.718,0.321-0.718,0.717V33.7c0,0.396,0.321,0.717,0.718,0.717h7.17
		c0.396,0,0.717-0.321,0.717-0.717v-5.736C21.76,27.568,21.44,27.247,21.043,27.247z M20.327,32.982H14.59V28.68h5.736V32.982z"/>
	<path fill="#4C87FF" d="M33.951,27.247H26.78c-0.396,0-0.718,0.321-0.718,0.717V33.7c0,0.396,0.321,0.717,0.718,0.717h7.171
		c0.396,0,0.716-0.321,0.716-0.717v-5.736C34.667,27.568,34.346,27.247,33.951,27.247z M33.233,32.982h-5.736V28.68h5.736V32.982z"
		/>
	<path fill="#4C87FF" d="M5.27,25.096c0.396,0,0.717-0.321,0.717-0.718V21.51h10.819v2.868c0,0.397,0.321,0.718,0.717,0.718
		c0.396,0,0.718-0.321,0.718-0.718V21.51h10.69v2.868c0,0.397,0.32,0.718,0.717,0.718c0.397,0,0.717-0.321,0.717-0.718v-3.584
		c0-0.396-0.32-0.717-0.717-0.717H18.24v-2.868c0-0.396-0.321-0.716-0.718-0.716c-0.396,0-0.717,0.321-0.717,0.716v2.868H5.27
		c-0.397,0-0.717,0.321-0.717,0.717v3.584C4.552,24.775,4.873,25.096,5.27,25.096z"/>
</g>
</svg>
