<?xml version="1.0" encoding="utf-8"?>
<!-- Generator: Adobe Illustrator 16.0.4, SVG Export Plug-In . SVG Version: 6.00 Build 0)  -->
<!DOCTYPE svg PUBLIC "-//W3C//DTD SVG 1.1//EN" "http://www.w3.org/Graphics/SVG/1.1/DTD/svg11.dtd">
<svg version="1.1" id="Layer_1" xmlns:sketch="http://www.bohemiancoding.com/sketch/ns"
	 xmlns="http://www.w3.org/2000/svg" xmlns:xlink="http://www.w3.org/1999/xlink" x="0px" y="0px" width="49px" height="49px"
	 viewBox="0 0 49 49" enable-background="new 0 0 49 49" xml:space="preserve">
<title>thin-0394_business_handshake_deal_contract_sign</title>
<desc>Created with Sketch.</desc>
<g>
	<path fill="#747474" d="M40.855,2.238L14.918,2.232l-8.593,8.43h43.041L40.855,2.238z M15.939,4.732l23.888,0.006l3.459,3.424
		H12.443L15.939,4.732z"/>
	<path fill="#747474" d="M42.468,33.385l-7.632,3.48c-0.441-0.461-1.018-0.809-1.695-1.008l-11.062-3.246
		c-1.834-0.538-6.818-0.854-11.945-0.203v-2.141h-10.5v16.5h10.5v-3.181c1.297-0.354,3.142-0.838,4.01-0.448
		c5.343,2.387,10.49,3.172,14.297,3.17c2.545,0,4.492-0.351,5.496-0.808l11.701-5.334c2.2-1.004,2.586-3.308,1.83-4.961
		C46.7,33.52,44.732,32.354,42.468,33.385z M7.634,44.268h-5.5v-11.5h5.5V44.268z M15.163,40.855
		c-1.469-0.656-3.36-0.289-5.029,0.145v-6.074c4.997-0.673,9.82-0.331,11.242,0.084l11.062,3.246
		c0.473,0.139,0.748,0.402,0.847,0.803c0.114,0.476-0.05,1.039-0.401,1.373c-0.296,0.281-0.666,0.354-1.138,0.215l-11.62-3.41
		l-0.704,2.398l11.62,3.41c0.384,0.113,0.766,0.168,1.139,0.168c0.44,0,0.867-0.082,1.268-0.234L32.9,43.227
		C31.09,44.051,23.416,44.543,15.163,40.855z M44.602,37.893l-11.016,5.021c0.369-0.161,0.717-0.38,1.021-0.671
		c0.824-0.787,1.258-1.938,1.199-3.071l7.698-3.511c1.095-0.498,1.57,0.321,1.688,0.584C45.281,36.434,45.661,37.41,44.602,37.893z"
		/>
	<polygon fill="#747474" points="41.447,14.341 43.286,16.162 12.443,16.162 14.295,14.345 12.544,12.561 6.325,18.662 
		49.366,18.662 43.205,12.564 	"/>
	<polygon fill="#747474" points="41.445,22.341 43.285,24.163 12.442,24.163 14.295,22.346 12.544,20.561 6.323,26.662 
		49.365,26.662 43.204,20.565 	"/>
</g>
</svg>
