<?xml version="1.0" encoding="utf-8"?>
<!-- Generator: Adobe Illustrator 16.0.4, SVG Export Plug-In . SVG Version: 6.00 Build 0)  -->
<!DOCTYPE svg PUBLIC "-//W3C//DTD SVG 1.1//EN" "http://www.w3.org/Graphics/SVG/1.1/DTD/svg11.dtd">
<svg version="1.1" id="Layer_1" xmlns:sketch="http://www.bohemiancoding.com/sketch/ns"
	 xmlns="http://www.w3.org/2000/svg" xmlns:xlink="http://www.w3.org/1999/xlink" x="0px" y="0px" width="49px" height="49px"
	 viewBox="0 0 49 49" enable-background="new 0 0 49 49" xml:space="preserve">
<path id="Shape" fill="none" stroke="#B8BDC4" stroke-width="3" d="M0.985,0"/>
<path id="Shape_1_" fill="none" stroke="#B8BDC4" stroke-width="3" d="M0.985,0"/>
<path id="Shape_2_" fill="none" stroke="#B8BDC4" stroke-width="3" d="M0.985,0"/>
<path id="Shape_3_" fill="none" stroke="#B8BDC4" stroke-width="3" d="M0.985,0"/>
<path id="Shape_4_" fill="none" stroke="#B8BDC4" stroke-width="3" d="M0.985,0"/>
<path id="Shape_5_" fill="none" stroke="#B8BDC4" stroke-width="3" d="M0.985,0"/>
<path id="Shape_6_" fill="none" stroke="#B8BDC4" stroke-width="3" d="M0.985,0"/>
<path id="Shape_7_" fill="none" stroke="#B8BDC4" stroke-width="3" d="M0.985,0"/>
<path id="Shape_8_" fill="none" stroke="#B8BDC4" stroke-width="3" d="M0.985,0"/>
<path id="Shape_9_" fill="none" stroke="#B8BDC4" stroke-width="3" d="M0.985,0"/>
<path id="Shape_10_" fill="none" stroke="#B8BDC4" stroke-width="3" d="M0.985,0"/>
<path id="Shape_11_" fill="none" stroke="#B8BDC4" stroke-width="3" d="M0.985,0"/>
<path id="Shape_12_" fill="none" stroke="#B8BDC4" stroke-width="3" d="M0.985,0"/>
<path id="Shape_13_" fill="none" stroke="#B8BDC4" stroke-width="3" d="M0.985,0"/>
<path id="Shape_14_" fill="none" stroke="#B8BDC4" stroke-width="3" d="M0.985,0"/>
<path id="Shape_15_" fill="none" stroke="#B8BDC4" stroke-width="3" d="M0.985,0"/>
<g>
	<path fill="#B8BDC4" d="M35,12V0H14v8H0v41h14h3h3h9h3h3h14V12H35z M14,46H3V11h11V46z M23,46v-3h3v3H23z M32,46h-3v-6h-9v6h-3V8V3
		h15v9V46z M46,46H35V15h11V46z"/>
	<rect x="6.501" y="14" fill="#B8BDC4" width="4.245" height="3"/>
	<rect x="6.501" y="18" fill="#B8BDC4" width="4.245" height="3"/>
	<rect x="6.501" y="22.001" fill="#B8BDC4" width="4.245" height="3"/>
	<rect x="6.501" y="26.002" fill="#B8BDC4" width="4.245" height="3"/>
	<rect x="6.501" y="30.002" fill="#B8BDC4" width="4.245" height="3"/>
	<rect x="6.501" y="34.002" fill="#B8BDC4" width="4.245" height="3"/>
	<rect x="6.501" y="38.002" fill="#B8BDC4" width="4.245" height="3"/>
	<rect x="38.504" y="18" fill="#B8BDC4" width="4.244" height="3"/>
	<rect x="38.504" y="22.001" fill="#B8BDC4" width="4.244" height="3"/>
	<rect x="38.504" y="26.002" fill="#B8BDC4" width="4.244" height="3"/>
	<rect x="38.504" y="30.002" fill="#B8BDC4" width="4.244" height="3"/>
	<rect x="38.504" y="34.002" fill="#B8BDC4" width="4.244" height="3"/>
	<rect x="38.504" y="38.002" fill="#B8BDC4" width="4.244" height="3"/>
</g>
</svg>
