<?xml version="1.0" encoding="utf-8"?>
<!-- Generator: Adobe Illustrator 16.0.0, SVG Export Plug-In . SVG Version: 6.00 Build 0)  -->
<!DOCTYPE svg PUBLIC "-//W3C//DTD SVG 1.1//EN" "http://www.w3.org/Graphics/SVG/1.1/DTD/svg11.dtd">
<svg version="1.1" id="Layer_1" xmlns="http://www.w3.org/2000/svg" xmlns:xlink="http://www.w3.org/1999/xlink" x="0px" y="0px"
	 width="38px" height="38px" viewBox="0 0 38 38" enable-background="new 0 0 38 38" xml:space="preserve">
<g>
	<g>
		<path fill="#4C87FF" d="M27.592,20.809h-9.234c-0.685,0-1.238-0.555-1.238-1.238V5.654c0-0.686,0.555-1.239,1.238-1.239
			c0.683,0,1.238,0.554,1.238,1.239v12.679h7.996c0.686,0,1.238,0.554,1.238,1.238C28.83,20.254,28.275,20.809,27.592,20.809z"/>
	</g>
	<g>
		<path fill="#4C87FF" d="M19,38C8.523,38,0,29.477,0,19C0,8.523,8.523,0,19,0S38,8.523,38,19C38,29.477,29.477,38,19,38z M19,2.476
			C9.889,2.476,2.477,9.888,2.477,19c0,9.112,7.414,16.524,16.523,16.524S35.523,28.111,35.523,19
			C35.523,9.888,28.109,2.476,19,2.476z"/>
	</g>
</g>
</svg>
