<?xml version="1.0" encoding="utf-8"?>
<!-- Generator: Adobe Illustrator 16.0.0, SVG Export Plug-In . SVG Version: 6.00 Build 0)  -->
<!DOCTYPE svg PUBLIC "-//W3C//DTD SVG 1.1//EN" "http://www.w3.org/Graphics/SVG/1.1/DTD/svg11.dtd">
<svg version="1.1" id="Layer_1" xmlns:sketch="http://www.bohemiancoding.com/sketch/ns"
	 xmlns="http://www.w3.org/2000/svg" xmlns:xlink="http://www.w3.org/1999/xlink" x="0px" y="0px" width="49px" height="49px"
	 viewBox="0 0 49 49" enable-background="new 0 0 49 49" xml:space="preserve">
<title>thin-0394_business_handshake_deal_contract_sign</title>
<desc>Created with Sketch.</desc>
<g id="thin-0394_business_handshake_deal_contract_sign" transform="translate(306.000000, 2368.000000)" sketch:type="MSLayerGroup">
	<g id="Group_1_" transform="translate(2.000000, 12.000000)" sketch:type="MSShapeGroup">
		<path id="Shape_10_" fill="none" stroke="#4C87FF" stroke-width="2.5" d="M-274.738-2349.494l-4.373-3.672"/>
		<path id="Shape_9_" fill="none" stroke="#4C87FF" stroke-width="2.5" d="M-278.758-2347.269l-3.562-2.917"/>
		<path id="Shape_8_" fill="none" stroke="#4C87FF" stroke-width="2.5" d="M-298.216-2354.976
			c1.268,3.646,11.482,11.538,11.482,11.538c2.463,2.085,4.688-1.098,2.665-2.812l-1.553-1.506"/>
		<path id="Shape_7_" fill="none" stroke="#4C87FF" stroke-width="2.5" d="M-285.622-2347.755l4.224,3.668
			c2.43,2.055,4.801-1.301,2.793-2.999l1.066,0.901c2.123,1.799,4.918-1.518,2.801-3.31l0.164,0.139
			c2.123,1.798,4.92-1.519,2.801-3.31l-10.455-8.526c0,0-2.018,0.773-2.797,0.55c0,0-3.01,4.617-5.211,3.012
			c-2.201-1.604,0-8.437,6.187-9.414c0,0,2.785-0.793,9.604,2.721l2.529-0.766"/>
		
			<rect id="Rectangle-path_4_" x="-304.782" y="-2367.499" transform="matrix(0.9621 0.2726 -0.2726 0.9621 -654.5475 -7.3191)" fill="none" stroke="#4C87FF" stroke-width="2.5" width="7.703" height="15.949"/>
		
			<rect id="Rectangle-path_3_" x="-269.92" y="-2367.089" transform="matrix(-0.9622 0.2725 -0.2725 -0.9622 -1164.9124 -4556.4521)" fill="none" stroke="#4C87FF" stroke-width="2.5" width="7.702" height="15.95"/>
		<path id="Shape_6_" fill="none" stroke="#4C87FF" stroke-width="2.5" d="M-295.345-2365.114c0,0,0.359-0.652,8.22-0.823"/>
		<path id="Shape_5_" fill="none" stroke="#4C87FF" stroke-width="2.5" d="M-271.098-2351.576c0,0,1.947,0.505,2.969-0.663"/>
	</g>
</g>
</svg>
