<?xml version="1.0" encoding="utf-8"?>
<!-- Generator: Adobe Illustrator 16.0.4, SVG Export Plug-In . SVG Version: 6.00 Build 0)  -->
<!DOCTYPE svg PUBLIC "-//W3C//DTD SVG 1.1//EN" "http://www.w3.org/Graphics/SVG/1.1/DTD/svg11.dtd">
<svg version="1.1" id="Layer_1" xmlns:sketch="http://www.bohemiancoding.com/sketch/ns"
	 xmlns="http://www.w3.org/2000/svg" xmlns:xlink="http://www.w3.org/1999/xlink" x="0px" y="0px" width="49px" height="49px"
	 viewBox="0 0 49 49" enable-background="new 0 0 49 49" xml:space="preserve">
<title>thin-0394_business_handshake_deal_contract_sign</title>
<desc>Created with Sketch.</desc>
<g id="Group" transform="translate(0.000000, 6.000000)" sketch:type="MSShapeGroup">
	<g id="Shape">
		<path fill="#B8BDC4" d="M49.366,4.662H6.325l8.593-8.43l25.938,0.006L49.366,4.662z M12.443,2.162h30.843l-3.459-3.424
			L15.939-1.268L12.443,2.162z"/>
	</g>
	<g transform="translate(0.000000, 28.000000)">
		<g id="Shape_1_">
			<path fill="#B8BDC4" d="M32.178,9.213c-0.372,0-0.754-0.055-1.138-0.168l-11.62-3.41l0.704-2.398l11.62,3.41
				c0.472,0.139,0.842,0.066,1.138-0.215c0.352-0.334,0.517-0.898,0.401-1.373c-0.098-0.4-0.374-0.664-0.846-0.803L21.376,1.01
				c-1.518-0.443-6.912-0.803-12.255,0.066L8.72-1.391c5.6-0.912,11.356-0.586,13.359,0.002l11.062,3.246
				c1.326,0.389,2.264,1.342,2.572,2.611c0.325,1.342-0.109,2.822-1.106,3.773C33.938,8.881,33.087,9.213,32.178,9.213z"/>
		</g>
		<g id="Shape_2_">
			<path fill="#B8BDC4" d="M28.441,12.309c-3.808,0.002-8.955-0.783-14.298-3.17c-0.902-0.404-2.867,0.135-4.168,0.492
				C9.713,9.703,9.463,9.771,9.231,9.83L8.609,7.408c0.22-0.057,0.457-0.121,0.706-0.189c1.841-0.502,4.133-1.129,5.848-0.363
				c8.253,3.688,15.927,3.195,17.736,2.371l11.702-5.334c1.06-0.482,0.68-1.459,0.593-1.648C45.075,1.982,44.6,1.162,43.505,1.66
				l-8.618,3.93L33.85,3.314l8.618-3.93c2.265-1.031,4.232,0.135,5.001,1.822c0.755,1.654,0.37,3.957-1.83,4.961l-11.702,5.334
				C32.934,11.959,30.986,12.309,28.441,12.309z"/>
		</g>
		<g id="Rectangle-path">
			<path fill="#B8BDC4" d="M10.134,12.768h-10.5v-16.5h10.5V12.768z M2.134,10.268h5.5v-11.5h-5.5V10.268z"/>
		</g>
	</g>
	<g id="Shape_3_">
		<polygon fill="#B8BDC4" points="49.366,12.662 6.325,12.662 12.544,6.561 14.295,8.345 12.443,10.162 43.286,10.162 41.447,8.341 
			43.205,6.564 		"/>
	</g>
	<g id="Shape_4_">
		<polygon fill="#B8BDC4" points="49.365,20.662 6.323,20.662 12.544,14.561 14.295,16.346 12.442,18.163 43.285,18.163 
			41.446,16.341 43.204,14.565 		"/>
	</g>
</g>
</svg>
