<?xml version="1.0" encoding="utf-8"?>
<!-- Generator: Adobe Illustrator 16.0.4, SVG Export Plug-In . SVG Version: 6.00 Build 0)  -->
<!DOCTYPE svg PUBLIC "-//W3C//DTD SVG 1.1//EN" "http://www.w3.org/Graphics/SVG/1.1/DTD/svg11.dtd">
<svg version="1.1" id="Layer_1" xmlns="http://www.w3.org/2000/svg" xmlns:xlink="http://www.w3.org/1999/xlink" x="0px" y="0px"
	 width="24px" height="24px" viewBox="0 0 24 24" enable-background="new 0 0 24 24" xml:space="preserve">
<g>
	<g>
		<g>
			<path d="M2.5,2.003c-0.276,0-0.5-0.224-0.5-0.5v-1c0-0.276,0.224-0.5,0.5-0.5S3,0.227,3,0.503v1C3,1.779,2.776,2.003,2.5,2.003z"
				/>
			<path d="M2.5,14.753c-0.276,0-0.5-0.224-0.5-0.5v-2.125c0-0.276,0.224-0.5,0.5-0.5s0.5,0.224,0.5,0.5v2.125
				C3,14.529,2.776,14.753,2.5,14.753z M2.5,8.378c-0.276,0-0.5-0.224-0.5-0.5V5.753c0-0.276,0.224-0.5,0.5-0.5S3,5.477,3,5.753
				v2.125C3,8.154,2.776,8.378,2.5,8.378z"/>
			<path d="M3.5,20.003h-1c-0.276,0-0.5-0.224-0.5-0.5v-1c0-0.276,0.224-0.5,0.5-0.5s0.5,0.224,0.5,0.5v0.5h0.5
				c0.276,0,0.5,0.224,0.5,0.5S3.776,20.003,3.5,20.003z"/>
			<path d="M8.9,20.003H7.1c-0.276,0-0.5-0.224-0.5-0.5s0.224-0.5,0.5-0.5h1.8c0.276,0,0.5,0.224,0.5,0.5S9.176,20.003,8.9,20.003z"
				/>
			<path d="M13.5,20.003h-1c-0.276,0-0.5-0.224-0.5-0.5s0.224-0.5,0.5-0.5h1c0.276,0,0.5,0.224,0.5,0.5S13.776,20.003,13.5,20.003z"
				/>
		</g>
	</g>
	<path d="M21.5,3.003h-1.967c-0.276,0-0.5-0.224-0.5-0.5v-2c0-0.276,0.224-0.5,0.5-0.5s0.5,0.224,0.5,0.5v1.5H21.5
		c0.276,0,0.5,0.224,0.5,0.5S21.776,3.003,21.5,3.003z"/>
	<path d="M21.113,11.003h-7.262c-0.478,0-0.852-0.364-0.852-0.829V0.868c0-0.477,0.382-0.865,0.852-0.865h5.767
		c0.223,0,0.437,0.088,0.601,0.25l1.51,1.476C21.902,1.9,22,2.123,22,2.341v7.833C22,10.631,21.603,11.003,21.113,11.003z
		 M14,10.003h7V2.414l-1.444-1.411H14V10.003z"/>
	<path d="M21.5,16.004h-1.967c-0.276,0-0.5-0.224-0.5-0.5v-2c0-0.276,0.224-0.5,0.5-0.5s0.5,0.224,0.5,0.5v1.5H21.5
		c0.276,0,0.5,0.224,0.5,0.5S21.776,16.004,21.5,16.004z"/>
	<path d="M21.113,24.004h-7.262c-0.478,0-0.852-0.364-0.852-0.829v-9.306c0-0.478,0.382-0.865,0.852-0.865h5.767
		c0.222,0,0.435,0.088,0.6,0.248l1.511,1.477C21.902,14.902,22,15.125,22,15.343v7.832C22,23.632,21.603,24.004,21.113,24.004z
		 M14,23.004h7v-7.589l-1.443-1.411H14V23.004z"/>
	<g>
		<g>
			<path d="M13.5,7.003h-1c-0.276,0-0.5-0.224-0.5-0.5s0.224-0.5,0.5-0.5h1c0.276,0,0.5,0.224,0.5,0.5S13.776,7.003,13.5,7.003z"/>
			<path d="M8.9,7.003H7.1c-0.276,0-0.5-0.224-0.5-0.5s0.224-0.5,0.5-0.5h1.8c0.276,0,0.5,0.224,0.5,0.5S9.176,7.003,8.9,7.003z"/>
			<path d="M3.5,7.003h-1c-0.276,0-0.5-0.224-0.5-0.5s0.224-0.5,0.5-0.5h1c0.276,0,0.5,0.224,0.5,0.5S3.776,7.003,3.5,7.003z"/>
		</g>
	</g>
</g>
</svg>
