<svg id="criar_conta" data-name="criar conta" xmlns="http://www.w3.org/2000/svg" viewBox="0 0 50.94 50.93"><defs><style>.cls-1{fill:#fff;}</style></defs><title>icon_lapin</title><path class="cls-1" d="M686.76,1398.44a25.47,25.47,0,1,0,25.48,25.46A25.49,25.49,0,0,0,686.76,1398.44Zm0,46.3a20.83,20.83,0,1,1,20.84-20.83A20.86,20.86,0,0,1,686.76,1444.74Z" transform="translate(-661.29 -1398.44)"/><path class="cls-1" d="M694.69,1418.83l-2.87-2.87a1.14,1.14,0,0,0-1.63,0l-13,13a0.53,0.53,0,0,0-.12.18l0,0.06c-0.16.36-.55,1.38-1.77,4.65a1.19,1.19,0,0,0,.3,1.21,1.17,1.17,0,0,0,1.22.28c3.26-1.21,4.28-1.59,4.64-1.75l0.06,0a0.53,0.53,0,0,0,.18-0.12l13-13A1.18,1.18,0,0,0,694.69,1418.83Zm-1,.82-12.53,12.53-0.9-.9,11.12-11.12a0.63,0.63,0,0,0-.9-0.9l-11.12,11.12-0.9-.9L691,1417Zm-15,13.68-1.41-1.41,0.49-1.3,2.21,2.21Zm-2.25.84,0.35-.94,0.59,0.59Z" transform="translate(-661.29 -1398.44)"/><path class="cls-1" d="M697.79,1414.77l-1.91-1.91a1.78,1.78,0,0,0-2.51,0l-1,1a0.63,0.63,0,0,0,.9.9l1-1a0.51,0.51,0,0,1,.72,0l1.91,1.91a0.55,0.55,0,0,1,.06.75l-1,1a0.63,0.63,0,1,0,.9.9l1-1A1.82,1.82,0,0,0,697.79,1414.77Z" transform="translate(-661.29 -1398.44)"/></svg>