<svg id="criar_conta" data-name="criar conta" xmlns="http://www.w3.org/2000/svg" viewBox="0 0 50.94 50.93"><defs><style>.cls-1{fill:#fff;}</style></defs><title>icon_plus</title><path class="cls-1" d="M686.76,1398.44a25.47,25.47,0,1,0,25.48,25.46A25.49,25.49,0,0,0,686.76,1398.44Zm0,46.3a20.83,20.83,0,1,1,20.84-20.83A20.86,20.86,0,0,1,686.76,1444.74Z" transform="translate(-661.29 -1398.44)"/><path class="cls-1" d="M699.78,1421.83H689.35V1411.4a2.32,2.32,0,1,0-4.64,0v10.43H674.28a2.32,2.32,0,0,0,0,4.64h10.44v10.44a2.32,2.32,0,1,0,4.64,0v-10.44h10.43A2.32,2.32,0,0,0,699.78,1421.83Z" transform="translate(-661.29 -1398.44)"/></svg>