<?xml version="1.0" encoding="utf-8"?>
<!-- Generator: Adobe Illustrator 16.0.4, SVG Export Plug-In . SVG Version: 6.00 Build 0)  -->
<!DOCTYPE svg PUBLIC "-//W3C//DTD SVG 1.1//EN" "http://www.w3.org/Graphics/SVG/1.1/DTD/svg11.dtd">
<svg version="1.1" id="Layer_1" xmlns="http://www.w3.org/2000/svg" xmlns:xlink="http://www.w3.org/1999/xlink" x="0px" y="0px"
	 width="24px" height="24px" viewBox="0 0 24 24" enable-background="new 0 0 24 24" xml:space="preserve">
<g>
	<path d="M6.515,23.002h-5c-0.276,0-0.5-0.224-0.5-0.5v-5.001c0-0.276,0.224-0.5,0.5-0.5h5c0.276,0,0.5,0.224,0.5,0.5v5.001
		C7.015,22.778,6.791,23.002,6.515,23.002z M2.014,22.002h4v-4.001h-4V22.002z"/>
	<path d="M6.515,15.001h-5c-0.276,0-0.5-0.224-0.5-0.5v-5c0-0.276,0.224-0.5,0.5-0.5h5c0.276,0,0.5,0.224,0.5,0.5v5
		C7.015,14.777,6.791,15.001,6.515,15.001z M2.014,14.001h4v-4h-4V14.001z"/>
	<path d="M6.515,7h-5c-0.276,0-0.5-0.224-0.5-0.5v-5c0-0.276,0.224-0.5,0.5-0.5h5c0.276,0,0.5,0.224,0.5,0.5v5
		C7.015,6.776,6.791,7,6.515,7z M2.014,6h4V2h-4V6z"/>
	<path d="M14.516,23.002h-5c-0.276,0-0.5-0.224-0.5-0.5v-5.001c0-0.276,0.224-0.5,0.5-0.5h5c0.276,0,0.5,0.224,0.5,0.5v5.001
		C15.016,22.778,14.792,23.002,14.516,23.002z M10.015,22.002h4v-4.001h-4V22.002z"/>
	<path d="M14.516,15.001h-5c-0.276,0-0.5-0.224-0.5-0.5v-5c0-0.276,0.224-0.5,0.5-0.5h5c0.276,0,0.5,0.224,0.5,0.5v5
		C15.016,14.777,14.792,15.001,14.516,15.001z M10.015,14.001h4v-4h-4V14.001z"/>
	<path d="M14.516,7h-5c-0.276,0-0.5-0.224-0.5-0.5v-5c0-0.276,0.224-0.5,0.5-0.5h5c0.276,0,0.5,0.224,0.5,0.5v5
		C15.016,6.776,14.792,7,14.516,7z M10.015,6h4V2h-4V6z"/>
	<path d="M22.517,23.002h-5.001c-0.276,0-0.5-0.224-0.5-0.5v-5.001c0-0.276,0.224-0.5,0.5-0.5h5.001c0.276,0,0.5,0.224,0.5,0.5
		v5.001C23.017,22.778,22.793,23.002,22.517,23.002z M18.016,22.002h4.001v-4.001h-4.001V22.002z"/>
	<path d="M22.517,15.001h-5.001c-0.276,0-0.5-0.224-0.5-0.5v-5c0-0.276,0.224-0.5,0.5-0.5h5.001c0.276,0,0.5,0.224,0.5,0.5v5
		C23.017,14.777,22.793,15.001,22.517,15.001z M18.016,14.001h4.001v-4h-4.001V14.001z"/>
	<path d="M22.517,7h-5.001c-0.276,0-0.5-0.224-0.5-0.5v-5c0-0.276,0.224-0.5,0.5-0.5h5.001c0.276,0,0.5,0.224,0.5,0.5v5
		C23.017,6.776,22.793,7,22.517,7z M18.016,6h4.001V2h-4.001V6z"/>
</g>
</svg>
