<?xml version="1.0" encoding="utf-8"?>
<!-- Generator: Adobe Illustrator 16.0.4, SVG Export Plug-In . SVG Version: 6.00 Build 0)  -->
<!DOCTYPE svg PUBLIC "-//W3C//DTD SVG 1.1//EN" "http://www.w3.org/Graphics/SVG/1.1/DTD/svg11.dtd">
<svg version="1.1" id="Layer_1" xmlns="http://www.w3.org/2000/svg" xmlns:xlink="http://www.w3.org/1999/xlink" x="0px" y="0px"
	 width="24px" height="24px" viewBox="0 0 24 24" enable-background="new 0 0 24 24" xml:space="preserve">
<g>
	<path d="M7.588,16.928c-2.435,0-4.416-1.98-4.416-4.415s1.981-4.416,4.416-4.416s4.416,1.981,4.416,4.416
		S10.023,16.928,7.588,16.928z M7.588,9.097c-1.883,0-3.416,1.532-3.416,3.416c0,1.883,1.532,3.415,3.416,3.415
		s3.415-1.532,3.415-3.415C11.003,10.629,9.472,9.097,7.588,9.097z"/>
	<path d="M16.397,19.861H7.588c-4.054,0-7.352-3.302-7.352-7.36c0-4.058,3.298-7.36,7.352-7.36h8.809
		c4.054,0,7.352,3.302,7.352,7.36C23.749,16.56,20.451,19.861,16.397,19.861z M7.588,6.141c-3.502,0-6.352,2.853-6.352,6.36
		s2.85,6.36,6.352,6.36h8.809c3.502,0,6.352-2.854,6.352-6.36s-2.85-6.36-6.352-6.36H7.588z"/>
</g>
</svg>
