<?xml version="1.0" encoding="utf-8"?>
<!-- Generator: Adobe Illustrator 16.0.4, SVG Export Plug-In . SVG Version: 6.00 Build 0)  -->
<!DOCTYPE svg PUBLIC "-//W3C//DTD SVG 1.1//EN" "http://www.w3.org/Graphics/SVG/1.1/DTD/svg11.dtd">
<svg version="1.1" id="Layer_1" xmlns="http://www.w3.org/2000/svg" xmlns:xlink="http://www.w3.org/1999/xlink" x="0px" y="0px"
	 width="24px" height="24px" viewBox="0 0 24 24" enable-background="new 0 0 24 24" xml:space="preserve">
<g>
	<path fill="#B8BDC4" d="M12.02,11.96V6.068c0-0.276-0.224-0.5-0.5-0.5s-0.5,0.224-0.5,0.5v5.893
		c-0.667,0.213-1.156,0.833-1.156,1.57c0,0.913,0.743,1.656,1.656,1.656s1.656-0.743,1.656-1.656
		C13.176,12.794,12.688,12.174,12.02,11.96z M11.52,14.188c-0.362,0-0.656-0.294-0.656-0.656s0.294-0.656,0.656-0.656
		s0.656,0.294,0.656,0.656S11.881,14.188,11.52,14.188z"/>
	<path fill="#B8BDC4" d="M22.646,4.315l-1.91-1.91c-0.195-0.195-0.512-0.195-0.707,0s-0.195,0.512,0,0.707l0.602,0.602l-2.131,2.13
		c-1.731-1.574-3.989-2.568-6.479-2.688V1.185c0-0.276-0.224-0.5-0.5-0.5s-0.5,0.224-0.5,0.5v1.972
		c-5.501,0.264-9.9,4.809-9.9,10.375c0,5.734,4.666,10.399,10.4,10.399s10.399-4.665,10.399-10.399c0-2.688-1.033-5.132-2.713-6.98
		l2.131-2.13l0.602,0.601c0.098,0.098,0.226,0.146,0.354,0.146s0.256-0.049,0.354-0.146C22.841,4.827,22.841,4.51,22.646,4.315z
		 M11.52,22.931c-5.183,0-9.4-4.217-9.4-9.399c0-5.183,4.217-9.4,9.4-9.4c5.183,0,9.399,4.217,9.399,9.4
		C20.919,18.714,16.702,22.931,11.52,22.931z"/>
</g>
</svg>
