<?xml version="1.0" encoding="utf-8"?>
<!-- Generator: Adobe Illustrator 16.0.4, SVG Export Plug-In . SVG Version: 6.00 Build 0)  -->
<!DOCTYPE svg PUBLIC "-//W3C//DTD SVG 1.1//EN" "http://www.w3.org/Graphics/SVG/1.1/DTD/svg11.dtd">
<svg version="1.1" id="Layer_1" xmlns="http://www.w3.org/2000/svg" xmlns:xlink="http://www.w3.org/1999/xlink" x="0px" y="0px"
	 width="24px" height="24px" viewBox="0 0 24 24" enable-background="new 0 0 24 24" xml:space="preserve">
<g>
	<path d="M19.378,24.039H4.604c-0.262,0-0.48-0.202-0.499-0.464L2.728,4.566C2.717,4.428,2.765,4.292,2.86,4.19
		c0.095-0.102,0.228-0.16,0.366-0.16h17.529c0.139,0,0.271,0.058,0.366,0.16c0.095,0.102,0.143,0.238,0.133,0.376l-1.377,19.009
		C19.857,23.837,19.64,24.039,19.378,24.039z M5.068,23.039h13.845L20.218,5.03H3.764L5.068,23.039z"/>
	<path d="M22.801,5.03H1.18c-0.276,0-0.5-0.224-0.5-0.5s0.224-0.5,0.5-0.5h21.621c0.276,0,0.5,0.224,0.5,0.5
		S23.077,5.03,22.801,5.03z"/>
	<path d="M15.218,5.03H8.763c-0.16,0-0.311-0.077-0.405-0.207c-0.094-0.129-0.12-0.296-0.07-0.449L9.28,1.337
		c0.067-0.206,0.259-0.345,0.475-0.345h4.472c0.217,0,0.408,0.139,0.476,0.345l0.991,3.038c0.05,0.152,0.023,0.319-0.071,0.449
		C15.528,4.954,15.378,5.03,15.218,5.03z M9.452,4.03h5.076l-0.665-2.038h-3.746L9.452,4.03z"/>
	<path d="M12,20.911c-0.276,0-0.5-0.224-0.5-0.5V7.583c0-0.276,0.224-0.5,0.5-0.5s0.5,0.224,0.5,0.5v12.828
		C12.5,20.688,12.276,20.911,12,20.911z"/>
	<path d="M15.701,20.911c-0.012,0-0.022,0-0.034-0.001c-0.275-0.019-0.484-0.257-0.466-0.532L16.055,7.55
		c0.019-0.276,0.262-0.475,0.532-0.466c0.275,0.019,0.484,0.257,0.466,0.532l-0.854,12.828
		C16.182,20.709,15.962,20.911,15.701,20.911z"/>
	<path d="M8.299,20.911c-0.261,0-0.481-0.202-0.499-0.467L6.947,7.617c-0.018-0.275,0.19-0.514,0.466-0.532
		c0.275-0.013,0.514,0.19,0.532,0.466l0.854,12.828c0.018,0.275-0.19,0.514-0.466,0.532C8.322,20.911,8.311,20.911,8.299,20.911z"/>
</g>
</svg>
