<?xml version="1.0" encoding="utf-8"?>
<!-- Generator: Adobe Illustrator 16.0.0, SVG Export Plug-In . SVG Version: 6.00 Build 0)  -->
<!DOCTYPE svg PUBLIC "-//W3C//DTD SVG 1.1//EN" "http://www.w3.org/Graphics/SVG/1.1/DTD/svg11.dtd">
<svg version="1.1" id="Layer_1" xmlns="http://www.w3.org/2000/svg" xmlns:xlink="http://www.w3.org/1999/xlink" x="0px" y="0px"
	 width="472.699px" height="459.093px" viewBox="27.028 14.352 472.699 459.093"
	 enable-background="new 27.028 14.352 472.699 459.093" xml:space="preserve">
<g>
	<path fill="#FFFFFF" d="M383.938,369.832c-10.249-0.748-13.108-3.145-14.479-4.52c-1.348-1.335-2.644-5.069-2.638-15.113
		l0.176-275.142c0-3.783-4.688-7.574-8.688-7.582l-106.275-0.059c-4.006,0-9.581,3.779-9.578,7.563l-0.085,127.839
		c-3.882-7.588-14.831-13.972-24.758-19.064c-16.849-8.643-35.013-13.023-55.141-13.034c-20.029-0.019-38.322,3.857-54.924,11.511
		c-16.521,7.613-30.824,18.353-42.809,31.89c-11.901,13.464-21.214,29.589-27.817,47.947c-6.581,18.249-9.882,38.221-9.894,59.341
		c-0.019,21.897,3.612,42.375,10.766,60.84c7.169,18.569,17.349,34.815,30.201,48.291c12.94,13.556,28.543,24.188,46.373,31.61
		c17.802,7.415,37.517,11.186,58.551,11.202c20.364,0,39.875-4.121,57.951-12.28c13.434-6.066,24.934-14.822,34.363-26.116
		c10.079,31.613,42.244,38.475,68.21,38.489c6.527,0.006,14.143-0.454,22.635-1.352c8.266-0.883,17.539-2.243,28.472-4.017
		c3.477-0.56,5.56-3.403,5.563-6.748l0.05-84.659C390.169,373.092,387.709,370.104,383.938,369.832z"/>
	<path fill="#2AD6F2" d="M499.724,66.581c0.327,29.165-23.047,53.083-52.217,53.412c-29.174,0.33-53.093-23.056-53.423-52.221
		c-0.328-29.178,23.054-53.086,52.229-53.417C475.483,14.027,499.392,37.403,499.724,66.581z"/>
</g>
</svg>
